/* XPM */
static const char * blur_reverse[] = {
"37 37 8 1",
" 	c None",
".	c #606060",
"+	c #A5A5A5",
"@	c #000000",
"#	c #CECECE",
"$	c #7C7C7C",
"%	c #FFFFFF",
"&	c #9B9B9B",
"....................................+",
".@@@@@@@@@@@@@@@@@@@@@@@@@@@@@@@@@@@#",
".@$$$$$$$$$$$$$$$$$$$$$$$$$$$$$$$$$@#",
".@$$$$$$$$$$$$$$$$$$$$$$$$$$$$$$$$$@#",
".@$$$$$$$$$$$$$$$$$$$$$$$$$$$$$$$$$@#",
".@$$$$$$$$$$$$$$$$$$$$$$$$$$$$$$$$$@#",
".@$$$$$$$$$$$$$$$$$$$$$$$$$$$$$$$$$@#",
".@$$$$$$$$$$$$$$$$$$$$$$$$$$$$$$$$$@#",
".@$$$$$$$$$$$$$$$$$$$$$$$$$$$$$$$$$@#",
".@$$$$$$$$$$$$$$$$$$$$$$$$$$$$$$$$$@#",
".@$$$$$$$$$$$$$$$$$$$$$$$$$$$$$$$$$@#",
".@$$$$$$$$$$$$$$$$$$$$$$$$$$$$$$$$$@#",
".@$$$$$$$$$$$$$$$$$$$$$$$$$$$$$$$$$@#",
".@$$$$$$$$$$$$$$$$$$$$$$$$$$$$$$$$$@#",
".@$$$$$$$$$$$$$$$$@$$$$$$$$$$$$$$$$@#",
".@$$$$$$$$$$$$$$$$@$$$$$$$$$$$$$$$$@#",
".@$$$$$$$$$$$$$$$@%@$$$$$$$$$$$$$$$@#",
".@$$$$$$$$$$$$$$$@%@$$$$$$$$$$$$$$$@#",
".@$$$$$$$$$$$$$$@%%%@$$$$$$$$$$$$$$@#",
".@$$$$$$$$$$$$$$@%%%@$$$$$$$$$$$$$$@#",
".@$$$$$$$$$$$$$@%%%%%@$$$$$$$$$$$$$@#",
".@$$$$$$$$$$$$$@%%%%%@$$$$$$$$$$$$$@#",
".@$$$$$$$$$$$$@%%%%%%%@$$$$$$$$$$$$@#",
".@$$$$$$$$$$$$@%%%%%%%@$$$$$$$$$$$$@#",
".@$$$$$$$$$$$@%%%%%%%%%@$$$$$$$$$$$@#",
".@$$$$$$$$$$$@%%%%%%%%%@$$$$$$$$$$$@#",
".@$$$$$$$$$$@%%%%%%%%%%%@$$$$$$$$$$@#",
".@$$$$$$$$$$@%%%%%%%%%%%@$$$$$$$$$$@#",
".@$$$$$$$$$$@%%%%%%%%%%%@$$$$$$$$$$@#",
".@$$$$$$$$$$@%%%%%%%%%%&@$$$$$$$$$$@#",
".@$$$$$$$$$$@%%%%%%%%%&&@$$$$$$$$$$@#",
".@$$$$$$$$$$$@&&&&&&&&&@$$$$$$$$$$$@#",
".@$$$$$$$$$$$$@@@@@@@@@$$$$$$$$$$$$@#",
".@$$$$$$$$$$$$$$$$$$$$$$$$$$$$$$$$$@#",
".@$$$$$$$$$$$$$$$$$$$$$$$$$$$$$$$$$@#",
".@@@@@@@@@@@@@@@@@@@@@@@@@@@@@@@@@@@#",
"+####################################"};
