/* XPM */
static const char * brushsize33[] = {
"33 33 201 2",
"  	c None",
". 	c #FFFFFF",
"+ 	c #FDFDFD",
"@ 	c #FEFEFE",
"# 	c #FAFAFA",
"$ 	c #F5F5F5",
"% 	c #F1F1F1",
"& 	c #EFEFEF",
"* 	c #EDEDED",
"= 	c #ECECEC",
"- 	c #EEEEEE",
"; 	c #F0F0F0",
"> 	c #F3F3F3",
", 	c #F7F7F7",
"' 	c #F8F8F8",
") 	c #EBEBEB",
"! 	c #E6E6E6",
"~ 	c #E2E2E2",
"{ 	c #DFDFDF",
"] 	c #DDDDDD",
"^ 	c #DEDEDE",
"/ 	c #E1E1E1",
"( 	c #E4E4E4",
"_ 	c #E9E9E9",
": 	c #F4F4F4",
"< 	c #FCFCFC",
"[ 	c #FBFBFB",
"} 	c #F2F2F2",
"| 	c #EAEAEA",
"1 	c #E3E3E3",
"2 	c #D8D8D8",
"3 	c #D3D3D3",
"4 	c #D0D0D0",
"5 	c #CECECE",
"6 	c #CDCDCD",
"7 	c #CFCFCF",
"8 	c #D2D2D2",
"9 	c #D5D5D5",
"0 	c #DADADA",
"a 	c #E0E0E0",
"b 	c #F6F6F6",
"c 	c #E5E5E5",
"d 	c #DCDCDC",
"e 	c #C9C9C9",
"f 	c #C4C4C4",
"g 	c #C1C1C1",
"h 	c #BFBFBF",
"i 	c #BEBEBE",
"j 	c #C0C0C0",
"k 	c #C2C2C2",
"l 	c #C6C6C6",
"m 	c #CBCBCB",
"n 	c #D9D9D9",
"o 	c #C7C7C7",
"p 	c #BABABA",
"q 	c #B5B5B5",
"r 	c #B2B2B2",
"s 	c #AFAFAF",
"t 	c #AEAEAE",
"u 	c #B0B0B0",
"v 	c #B3B3B3",
"w 	c #B8B8B8",
"x 	c #BDBDBD",
"y 	c #D4D4D4",
"z 	c #D6D6D6",
"A 	c #CCCCCC",
"B 	c #ACACAC",
"C 	c #A7A7A7",
"D 	c #A3A3A3",
"E 	c #A0A0A0",
"F 	c #9F9F9F",
"G 	c #A1A1A1",
"H 	c #A4A4A4",
"I 	c #A9A9A9",
"J 	c #B6B6B6",
"K 	c #D1D1D1",
"L 	c #DBDBDB",
"M 	c #ADADAD",
"N 	c #A5A5A5",
"O 	c #9E9E9E",
"P 	c #989898",
"Q 	c #949494",
"R 	c #919191",
"S 	c #8F8F8F",
"T 	c #909090",
"U 	c #929292",
"V 	c #969696",
"W 	c #9B9B9B",
"X 	c #B1B1B1",
"Y 	c #BBBBBB",
"Z 	c #C5C5C5",
"` 	c #E8E8E8",
" .	c #AAAAAA",
"..	c #8A8A8A",
"+.	c #858585",
"@.	c #818181",
"#.	c #808080",
"$.	c #838383",
"%.	c #878787",
"&.	c #8D8D8D",
"*.	c #9C9C9C",
"=.	c #8B8B8B",
"-.	c #828282",
";.	c #7B7B7B",
">.	c #767676",
",.	c #727272",
"'.	c #707070",
").	c #717171",
"!.	c #747474",
"~.	c #787878",
"{.	c #7F7F7F",
"].	c #868686",
"^.	c #999999",
"/.	c #BCBCBC",
"(.	c #898989",
"_.	c #757575",
":.	c #6D6D6D",
"<.	c #676767",
"[.	c #636363",
"}.	c #616161",
"|.	c #626262",
"1.	c #656565",
"2.	c #6A6A6A",
"3.	c #7A7A7A",
"4.	c #848484",
"5.	c #9A9A9A",
"6.	c #F9F9F9",
"7.	c #737373",
"8.	c #696969",
"9.	c #606060",
"0.	c #595959",
"a.	c #545454",
"b.	c #525252",
"c.	c #565656",
"d.	c #5C5C5C",
"e.	c #646464",
"f.	c #6E6E6E",
"g.	c #797979",
"h.	c #B9B9B9",
"i.	c #5D5D5D",
"j.	c #535353",
"k.	c #4B4B4B",
"l.	c #454545",
"m.	c #424242",
"n.	c #434343",
"o.	c #484848",
"p.	c #4F4F4F",
"q.	c #585858",
"r.	c #6F6F6F",
"s.	c #7C7C7C",
"t.	c #979797",
"u.	c #3E3E3E",
"v.	c #363636",
"w.	c #333333",
"x.	c #343434",
"y.	c #393939",
"z.	c #4D4D4D",
"A.	c #323232",
"B.	c #282828",
"C.	c #232323",
"D.	c #252525",
"E.	c #2C2C2C",
"F.	c #373737",
"G.	c #444444",
"H.	c #7D7D7D",
"I.	c #8C8C8C",
"J.	c #E7E7E7",
"K.	c #1C1C1C",
"L.	c #141414",
"M.	c #171717",
"N.	c #222222",
"O.	c #2F2F2F",
"P.	c #4C4C4C",
"Q.	c #5B5B5B",
"R.	c #6B6B6B",
"S.	c #A8A8A8",
"T.	c #B7B7B7",
"U.	c #060606",
"V.	c #0D0D0D",
"W.	c #2B2B2B",
"X.	c #3B3B3B",
"Y.	c #4A4A4A",
"Z.	c #888888",
"`.	c #111111",
" +	c #1E1E1E",
".+	c #3C3C3C",
"++	c #5A5A5A",
"@+	c #272727",
"#+	c #404040",
"$+	c #6C6C6C",
"%+	c #D7D7D7",
"&+	c #3D3D3D",
"*+	c #555555",
"=+	c #8E8E8E",
"-+	c #9D9D9D",
";+	c #CACACA",
">+	c #5E5E5E",
",+	c #A2A2A2",
"'+	c #686868",
")+	c #7E7E7E",
"!+	c #ABABAB",
". . . . . . . . . . . . . . . + + + @ . . . . . . . . . . . . . . ",
". . . . . . . . . . . # $ % & * = = - ; > , + . . . . . . . . . . ",
". . . . . . . . @ ' % ) ! ~ { ] ] ] ^ / ( _ - : < . . . . . . . . ",
". . . . . . . [ } | 1 ] 2 3 4 5 6 5 7 8 9 0 a ! - b @ . . . . . . ",
". . . . . . , - c d 9 5 e f g h i i j k l m 8 n a _ } < . . . . . ",
". . . . . b = / 2 7 o j p q r s t s u v w x f m y ] ! % < . . . . ",
". . . . , = a z A k p r B C D E F F G H I s J i o K L ! % + . . . ",
". . . # - / z m j J M N O P Q R S T U V W G I X Y Z 4 d ` : @ . . ",
". . + } c 2 A j q  .E P T ..+.@.#.#.$.%.&.Q *.N s p l 8 ^ ) ' . . ",
". . ' | d 7 k J  .F Q =.-.;.>.,.'.).!.~.{.].S ^.H u /.e z 1 % + . ",
". + % 1 9 o p M E Q (.{._.:.<.[.}.|.1.2.).3.4.S 5.C v g 5 d | ' . ",
". 6.) ] 5 j r N P =.{.7.8.9.0.a.b.b.c.d.e.f.g.+.R O B h.o z ( } . ",
". $ ! 2 e p B O T -._.8.i.j.k.l.m.n.o.p.q.[.r.s.(.t.N v k 4 { - # ",
". % ~ 3 f q C P ..;.:.9.j.o.u.v.w.x.y.m.z.0.<.!.-.R F t x A L | ' ",
"< & { 4 g r D Q +.>.<.0.k.u.A.B.C.D.E.F.G.b.9.f.H.I.W  .h.e 2 J.b ",
"[ * ] 5 h s E R @.,.[.a.l.v.B.K.L.M.N.O.u.P.Q.R.3.(.P S.T.l z c $ ",
"[ = ] 6 i t F S #.'.}.b.m.w.C.L.U.V.K.W.X.Y.0.8.~.Z.t.C J l 9 ( : ",
"[ = ] 5 i s F T #.).|.b.n.x.D.M.V.`. +E..+k.++8.g.Z.P C J l 9 c : ",
"< - ^ 7 j u G U $.!.1.c.o.y.E.N.K. +@+w.#+p.i.$+;...^.I w o %+! $ ",
"@ ; / 8 k v H V %.~.2.d.p.m.F.O.W.E.w.&+o.*+[.).#.=+-+B Y ;+n ` ' ",
". > ( 9 l w I W &.{.).e.q.z.G.u.X..+#+o.b.>+R.~.].Q ,+u h 5 ] = 6.",
". , _ 0 m x s G Q ].3.f.[.0.b.P.Y.k.p.*+>+'+!.#.&.5.S.J f 3 / ; + ",
". # - a 8 f J I *.S 4.g.r.<.9.Q.0.++i.[.R.!.)+..V ,+s x m n J.$ . ",
". . : ! n m i X N ^.S +.s.!.f.R.8.8.$+).~.#...Q F !+w Z 8 { * # . ",
". . # - a y o Y s H 5.R (.-.H.3.~.g.;.#.].&.V F  .q g 6 0 J.: . . ",
". . . b _ ] K Z p u C O t.R I.(.Z.Z...=+Q 5.,+!+q j m %+1 & [ . . ",
". . . + } ! L 4 l /.v B N F W P t.P ^.-+,+S.s w g m z / = 6.. . . ",
". . . . < % ! d 8 e g h.v t  .S.C C I B u J x Z 6 %+/ ) , . . . . ",
". . . . . < % ` ^ z 5 o k x h.T.J J w Y h f m 8 0 1 = , . . . . . ",
". . . . . . + : ) 1 d z 4 A e l l l o ;+5 3 n { J.& 6.. . . . . . ",
". . . . . . . . ' % | ( { L 2 z 9 9 %+n ] / J.* : + . . . . . . . ",
". . . . . . . . . @ ' } - | J.c ( c ! ` = ; $ < . . . . . . . . . ",
". . . . . . . . . . . . + 6.b $ : : $ ' < . . . . . . . . . . . . "};
