/* XPM */
static const char * brush2_reverse[] = {
"37 37 9 1",
" 	c None",
".	c #CECECE",
"+	c #A5A5A5",
"@	c #000000",
"#	c #606060",
"$	c #7C7C7C",
"%	c #FFFFFF",
"&	c #8C8E8C",
"*	c #9B9B9B",
"....................................+",
".@@@@@@@@@@@@@@@@@@@@@@@@@@@@@@@@@@@#",
".@$$$$$$$$$$$$$$$$$$$$$$$$$$$$$$$$$@#",
".@$$$$$$$$$$$$$$$$$$$$$$$$$$$$$$$$$@#",
".@$$$$$$$$$$$$$$$$$$$$$$$$$$$$$$$$$@#",
".@$$$$$$$$$$$$$$$$$$$$$$@@$$$$$$$$$@#",
".@$$$$$$$$$$$$$$$$$$$$$@@@@$$$$$$$$@#",
".@$$$$$$$$$$$$$$$$$$$$$@@@@$$$$$$$$@#",
".@$$$$$$$$$$$$$$$$$$$$@@@@@$$$$$$$$@#",
".@$$$$$$$$$$$$$$$$$$$$@@@@$$$$$$$$$@#",
".@$$$$$$$$$$$$$$$$$$$@@@@@$$$$$$$$$@#",
".@$$$$$$$$$$$$$$$$$$$@@@@$$$$$$$$$$@#",
".@$$$$$$$$$$$$$$$$$$@@@@@$$$$$$$$$$@#",
".@$$$$$$$$$$$$$$$$$$@@@@$$$$$$$$$$$@#",
".@$$$$$$$$$$$$$$$$$@@@@@$$$$$$$$$$$@#",
".@$$$$$$$$$$$$$$$$$@@@@$$$$$$$$$$$$@#",
".@$$$$$$$$$$$$$$$$@@@@@$$$$$$$$$$$$@#",
".@$$$$$$$$$$$$$$$$@@@@$$$$$$$$$$$$$@#",
".@$$$$$$$$$$$$@@@@@@@@$$$$$$$$$$$$$@#",
".@$$$$$$$$$$$$@%@@%&@$$$$$$$$$$$$$$@#",
".@$$$$$$$$$$$$@@@%%@@$$$$$$$$$$$$$$@#",
".@$$$$$$$$$$$$$@@%&@$$$$$$$$$$$$$$$@#",
".@$$$$$$$$$$$$$@%%@@$$$$$$$$$$$$$$$@#",
".@$$$$$$$$$$$$@@%&@$$$$$$$$$$$$$$$$@#",
".@$$$$$$$$$$$$@%%@@$$$$$$$@$$$$$$$$@#",
".@$$$$$$$$$$$@@%*@$$$$$$$@$$$$$$$$$@#",
".@$$$$$$$$$$$@%%@@@@$$$$@$$$$$$$$$$@#",
".@$$$$$$$$$$$@%*@$$@@$$@$$$$$$$$$$$@#",
".@$$$$$$$$$$$@@@@$$$@@@$$$$$$$$$$$$@#",
".@$$$$$$$$$$@%@@$$$$$$$$$$$$$$$$$$$@#",
".@$$$$$$$$$$@@@$$$$$$$$$$$$$$$$$$$$@#",
".@$$$$$$$$$$@@$$$$$$$$$$$$$$$$$$$$$@#",
".@$$$$$$$$$$$$$$$$$$$$$$$$$$$$$$$$$@#",
".@$$$$$$$$$$$$$$$$$$$$$$$$$$$$$$$$$@#",
".@$$$$$$$$$$$$$$$$$$$$$$$$$$$$$$$$$@#",
".@@@@@@@@@@@@@@@@@@@@@@@@@@@@@@@@@@@#",
"+####################################"};
