/* XPM */
static const char * brushsize25[] = {
"25 25 159 2",
"  	c None",
". 	c #FFFFFF",
"+ 	c #FDFDFD",
"@ 	c #FAFAFA",
"# 	c #F9F9F9",
"$ 	c #FCFCFC",
"% 	c #FBFBFB",
"& 	c #F3F3F3",
"* 	c #ECECEC",
"= 	c #E7E7E7",
"- 	c #E5E5E5",
"; 	c #E3E3E3",
"> 	c #E4E4E4",
", 	c #EBEBEB",
"' 	c #F1F1F1",
") 	c #F2F2F2",
"! 	c #E8E8E8",
"~ 	c #DFDFDF",
"{ 	c #D9D9D9",
"] 	c #D4D4D4",
"^ 	c #D0D0D0",
"/ 	c #CFCFCF",
"( 	c #D3D3D3",
"_ 	c #D7D7D7",
": 	c #DEDEDE",
"< 	c #E6E6E6",
"[ 	c #EFEFEF",
"} 	c #EDEDED",
"| 	c #E1E1E1",
"1 	c #D6D6D6",
"2 	c #CDCDCD",
"3 	c #C5C5C5",
"4 	c #C0C0C0",
"5 	c #BCBCBC",
"6 	c #BBBBBB",
"7 	c #BEBEBE",
"8 	c #C4C4C4",
"9 	c #CBCBCB",
"0 	c #E9E9E9",
"a 	c #F6F6F6",
"b 	c #DDDDDD",
"c 	c #BABABA",
"d 	c #B2B2B2",
"e 	c #ACACAC",
"f 	c #A8A8A8",
"g 	c #A6A6A6",
"h 	c #A7A7A7",
"i 	c #ABABAB",
"j 	c #B0B0B0",
"k 	c #B8B8B8",
"l 	c #C2C2C2",
"m 	c #DADADA",
"n 	c #CECECE",
"o 	c #B4B4B4",
"p 	c #9F9F9F",
"q 	c #989898",
"r 	c #949494",
"s 	c #929292",
"t 	c #939393",
"u 	c #979797",
"v 	c #9D9D9D",
"w 	c #B1B1B1",
"x 	c #BDBDBD",
"y 	c #CACACA",
"z 	c #F8F8F8",
"A 	c #A3A3A3",
"B 	c #8D8D8D",
"C 	c #858585",
"D 	c #7F7F7F",
"E 	c #7D7D7D",
"F 	c #838383",
"G 	c #8B8B8B",
"H 	c #A0A0A0",
"I 	c #AEAEAE",
"J 	c #CCCCCC",
"K 	c #DCDCDC",
"L 	c #878787",
"M 	c #7B7B7B",
"N 	c #727272",
"O 	c #6C6C6C",
"P 	c #696969",
"Q 	c #6B6B6B",
"R 	c #707070",
"S 	c #787878",
"T 	c #848484",
"U 	c #919191",
"V 	c #AFAFAF",
"W 	c #D2D2D2",
"X 	c #777777",
"Y 	c #6A6A6A",
"Z 	c #5F5F5F",
"` 	c #585858",
" .	c #555555",
"..	c #565656",
"+.	c #5D5D5D",
"@.	c #676767",
"#.	c #747474",
"$.	c #A4A4A4",
"%.	c #B6B6B6",
"&.	c #C8C8C8",
"*.	c #DBDBDB",
"=.	c #EEEEEE",
"-.	c #FEFEFE",
";.	c #5B5B5B",
">.	c #4D4D4D",
",.	c #444444",
"'.	c #404040",
").	c #434343",
"!.	c #4B4B4B",
"~.	c #575757",
"{.	c #666666",
"].	c #888888",
"^.	c #9A9A9A",
"/.	c #ADADAD",
"(.	c #3E3E3E",
"_.	c #313131",
":.	c #2C2C2C",
"<.	c #2F2F2F",
"[.	c #3A3A3A",
"}.	c #494949",
"|.	c #6D6D6D",
"1.	c #808080",
"2.	c #E2E2E2",
"3.	c #212121",
"4.	c #181818",
"5.	c #1E1E1E",
"6.	c #2D2D2D",
"7.	c #3F3F3F",
"8.	c #535353",
"9.	c #7A7A7A",
"0.	c #8F8F8F",
"a.	c #B7B7B7",
"b.	c #F4F4F4",
"c.	c #040404",
"d.	c #121212",
"e.	c #272727",
"f.	c #3B3B3B",
"g.	c #4F4F4F",
"h.	c #646464",
"i.	c #A1A1A1",
"j.	c #1A1A1A",
"k.	c #2B2B2B",
"l.	c #515151",
"m.	c #8E8E8E",
"n.	c #A2A2A2",
"o.	c #373737",
"p.	c #474747",
"q.	c #7E7E7E",
"r.	c #B9B9B9",
"s.	c #636363",
"t.	c #868686",
"u.	c #BFBFBF",
"v.	c #909090",
"w.	c #C6C6C6",
"x.	c #F7F7F7",
"y.	c #9C9C9C",
"z.	c #AAAAAA",
"A.	c #C9C9C9",
"B.	c #C7C7C7",
". . . . . . . . . . + @ # @ $ . . . . . . . . . . ",
". . . . . . . % & * = - ; > = , ' # . . . . . . . ",
". . . . . + ) ! ~ { ] ^ / ^ ( _ : < [ % . . . . . ",
". . . . @ } | 1 2 3 4 5 6 6 7 8 9 ] : 0 a . . . . ",
". . . # , b ^ 8 c d e f g h i j k l 2 m = a . . . ",
". . $ } b n 4 o f p q r s t u v g w x y { 0 z . . ",
". . ) | ^ 4 w A u B C D E D F G r H I 5 J K } + . ",
". z ! 1 8 o A r L M N O P Q R S T U p V 4 W ; a . ",
". & ~ 2 c f u L X Y Z `  ...+.@.#.F t $.%.&.*.=.-.",
"-.* { 3 d p B M Y ;.>.,.'.).!.~.{.X ].^./.4 ] = z ",
"# = ] 4 e q C N Z >.(._.:.<.[.}.;.|.1.t h 6 / 2.a ",
"z - ^ 5 f r D O ` ,._.3.4.5.6.7.8.@.9.0.A a.9 ~ b.",
"z ; / 6 g s E P  .'.:.4.c.d.e.f.g.h.S B i.%.y : & ",
"z > ^ 6 h t D Q ..).<.5.d.j.k.(.l.{.9.m.n.%.9 ~ & ",
"# = ( 7 i u F R +.!.[.6.e.k.o.p.` Q q.s g r.n 2.a ",
"$ , _ 8 j v G S @.~.}.7.f.(.p.8.s.#.t.q i u.W < z ",
". ' : 9 k g r T #.{.;.8.g.l.` s.R D v.i.o w.{ * + ",
". x.< ] l w H U F X |.@.h.{.Q #.D B y.e x / | b.. ",
". -.[ : 2 x I p t ].1.9.S 9.q.t.v.y.z.r.A.m , % . ",
". . # 0 m y 5 V $.^.t 0.B m.s q i.e r.B.1 - a . . ",
". . . a = { J 4 %./.h A i.n.g i o x A.1 > & . . . ",
". . . . a 0 K W &.4 6 a.%.%.r.u.w./ m - & -.. . . ",
". . . . . @ } ; *.] / 9 y 9 n W { | , a . . . . . ",
". . . . . . -.a =.= 2.~ : ~ 2.< * b.+ . . . . . . ",
". . . . . . . . . $ x.b.& & a % . . . . . . . . . "};
