/* XPM */
static const char * brushsize65[] = {
"65 65 244 2",
"  	c None",
". 	c #FFFFFF",
"+ 	c #FEFEFE",
"@ 	c #FCFCFC",
"# 	c #FBFBFB",
"$ 	c #F9F9F9",
"% 	c #F8F8F8",
"& 	c #F7F7F7",
"* 	c #F6F6F6",
"= 	c #FAFAFA",
"- 	c #FDFDFD",
"; 	c #F5F5F5",
"> 	c #F3F3F3",
", 	c #F1F1F1",
"' 	c #F0F0F0",
") 	c #EFEFEF",
"! 	c #EEEEEE",
"~ 	c #F2F2F2",
"{ 	c #F4F4F4",
"] 	c #EDEDED",
"^ 	c #EBEBEB",
"/ 	c #EAEAEA",
"( 	c #E8E8E8",
"_ 	c #E7E7E7",
": 	c #E6E6E6",
"< 	c #E9E9E9",
"[ 	c #ECECEC",
"} 	c #E5E5E5",
"| 	c #E3E3E3",
"1 	c #E2E2E2",
"2 	c #E1E1E1",
"3 	c #E0E0E0",
"4 	c #DFDFDF",
"5 	c #DEDEDE",
"6 	c #E4E4E4",
"7 	c #DCDCDC",
"8 	c #DADADA",
"9 	c #D9D9D9",
"0 	c #D8D8D8",
"a 	c #D7D7D7",
"b 	c #D6D6D6",
"c 	c #DBDBDB",
"d 	c #DDDDDD",
"e 	c #D4D4D4",
"f 	c #D3D3D3",
"g 	c #D1D1D1",
"h 	c #D0D0D0",
"i 	c #CFCFCF",
"j 	c #CECECE",
"k 	c #D2D2D2",
"l 	c #D5D5D5",
"m 	c #CDCDCD",
"n 	c #CBCBCB",
"o 	c #C9C9C9",
"p 	c #C8C8C8",
"q 	c #C7C7C7",
"r 	c #CACACA",
"s 	c #CCCCCC",
"t 	c #C5C5C5",
"u 	c #C3C3C3",
"v 	c #C2C2C2",
"w 	c #C0C0C0",
"x 	c #BFBFBF",
"y 	c #C1C1C1",
"z 	c #C4C4C4",
"A 	c #C6C6C6",
"B 	c #BDBDBD",
"C 	c #BBBBBB",
"D 	c #BABABA",
"E 	c #B9B9B9",
"F 	c #B8B8B8",
"G 	c #B7B7B7",
"H 	c #BCBCBC",
"I 	c #BEBEBE",
"J 	c #B6B6B6",
"K 	c #B4B4B4",
"L 	c #B2B2B2",
"M 	c #B1B1B1",
"N 	c #B0B0B0",
"O 	c #AFAFAF",
"P 	c #B3B3B3",
"Q 	c #B5B5B5",
"R 	c #AEAEAE",
"S 	c #ACACAC",
"T 	c #AAAAAA",
"U 	c #A9A9A9",
"V 	c #A8A8A8",
"W 	c #A7A7A7",
"X 	c #ABABAB",
"Y 	c #ADADAD",
"Z 	c #A5A5A5",
"` 	c #A3A3A3",
" .	c #A1A1A1",
"..	c #A0A0A0",
"+.	c #9F9F9F",
"@.	c #A2A2A2",
"#.	c #A4A4A4",
"$.	c #A6A6A6",
"%.	c #9D9D9D",
"&.	c #9B9B9B",
"*.	c #9A9A9A",
"=.	c #989898",
"-.	c #979797",
";.	c #999999",
">.	c #9C9C9C",
",.	c #9E9E9E",
"'.	c #959595",
").	c #939393",
"!.	c #929292",
"~.	c #919191",
"{.	c #909090",
"].	c #949494",
"^.	c #969696",
"/.	c #8E8E8E",
"(.	c #8C8C8C",
"_.	c #8A8A8A",
":.	c #898989",
"<.	c #888888",
"[.	c #8B8B8B",
"}.	c #8D8D8D",
"|.	c #8F8F8F",
"1.	c #868686",
"2.	c #848484",
"3.	c #828282",
"4.	c #818181",
"5.	c #808080",
"6.	c #838383",
"7.	c #858585",
"8.	c #7F7F7F",
"9.	c #7D7D7D",
"0.	c #7B7B7B",
"a.	c #797979",
"b.	c #787878",
"c.	c #7A7A7A",
"d.	c #7C7C7C",
"e.	c #7E7E7E",
"f.	c #878787",
"g.	c #757575",
"h.	c #737373",
"i.	c #727272",
"j.	c #717171",
"k.	c #707070",
"l.	c #747474",
"m.	c #767676",
"n.	c #777777",
"o.	c #6E6E6E",
"p.	c #6C6C6C",
"q.	c #6A6A6A",
"r.	c #696969",
"s.	c #686868",
"t.	c #6B6B6B",
"u.	c #6D6D6D",
"v.	c #6F6F6F",
"w.	c #666666",
"x.	c #646464",
"y.	c #626262",
"z.	c #616161",
"A.	c #636363",
"B.	c #656565",
"C.	c #5F5F5F",
"D.	c #5C5C5C",
"E.	c #5A5A5A",
"F.	c #595959",
"G.	c #5B5B5B",
"H.	c #5D5D5D",
"I.	c #606060",
"J.	c #676767",
"K.	c #575757",
"L.	c #555555",
"M.	c #535353",
"N.	c #515151",
"O.	c #525252",
"P.	c #545454",
"Q.	c #565656",
"R.	c #585858",
"S.	c #505050",
"T.	c #4D4D4D",
"U.	c #4B4B4B",
"V.	c #4A4A4A",
"W.	c #494949",
"X.	c #4C4C4C",
"Y.	c #4F4F4F",
"Z.	c #464646",
"`.	c #444444",
" +	c #424242",
".+	c #414141",
"++	c #434343",
"@+	c #454545",
"#+	c #484848",
"$+	c #474747",
"%+	c #3F3F3F",
"&+	c #3C3C3C",
"*+	c #3A3A3A",
"=+	c #393939",
"-+	c #3B3B3B",
";+	c #3D3D3D",
">+	c #4E4E4E",
",+	c #383838",
"'+	c #353535",
")+	c #323232",
"!+	c #313131",
"~+	c #333333",
"{+	c #363636",
"]+	c #3E3E3E",
"^+	c #2D2D2D",
"/+	c #2B2B2B",
"(+	c #2A2A2A",
"_+	c #2C2C2C",
":+	c #2F2F2F",
"<+	c #5E5E5E",
"[+	c #303030",
"}+	c #262626",
"|+	c #232323",
"1+	c #222222",
"2+	c #252525",
"3+	c #282828",
"4+	c #1F1F1F",
"5+	c #1C1C1C",
"6+	c #1A1A1A",
"7+	c #1B1B1B",
"8+	c #1D1D1D",
"9+	c #272727",
"0+	c #2E2E2E",
"a+	c #343434",
"b+	c #191919",
"c+	c #151515",
"d+	c #121212",
"e+	c #131313",
"f+	c #171717",
"g+	c #404040",
"h+	c #0E0E0E",
"i+	c #0A0A0A",
"j+	c #0C0C0C",
"k+	c #111111",
"l+	c #181818",
"m+	c #030303",
"n+	c #070707",
"o+	c #161616",
"p+	c #1E1E1E",
"q+	c #090909",
"r+	c #0F0F0F",
"s+	c #141414",
"t+	c #212121",
"u+	c #373737",
". . . . . . . . . . . . . . . . . . . . . . . . . . . . . . . + + + + . . . . . . . . . . . . . . . . . . . . . . . . . . . . . . ",
". . . . . . . . . . . . . . . . . . . . . . . . + @ # $ % & * * * * * & & % = # - . . . . . . . . . . . . . . . . . . . . . . . . ",
". . . . . . . . . . . . . . . . . . . . . + # $ * ; > , ' ) ! ! ! ! ! ) ' , ~ { ; % = - . . . . . . . . . . . . . . . . . . . . . ",
". . . . . . . . . . . . . . . . . . . - $ * { , ) ] ^ / ( _ _ : : : : _ ( < / [ ! ' ~ ; % # + . . . . . . . . . . . . . . . . . . ",
". . . . . . . . . . . . . . . . . - $ ; ~ ) [ / _ } | 1 2 3 4 5 5 5 5 4 3 2 | 6 : ( ^ ! , { & # + . . . . . . . . . . . . . . . . ",
". . . . . . . . . . . . . . . + $ ; ~ ! ^ ( } 1 3 5 7 8 9 0 a a b b a a 0 8 c d 4 2 | : < [ ' { & # . . . . . . . . . . . . . . . ",
". . . . . . . . . . . . . . # & > ) ^ _ 6 3 d c 0 b e f g h i i j i i h g k f l a 8 7 4 1 } < ] , ; $ + . . . . . . . . . . . . . ",
". . . . . . . . . . . . + = ; ' [ ( 6 3 d 9 b f g i m n o p q q q q q p o r s j h k l 0 c 5 1 : / ! > & @ . . . . . . . . . . . . ",
". . . . . . . . . . . + % > ) / } 2 d 9 b k i s o q t u v w x x x x x w y v z A p n j g e a c 4 | ( [ , * # . . . . . . . . . . . ",
". . . . . . . . . . - % ~ ] ( 6 4 c b k i n p t v x B C D E F G G G G F E C H I y u A o m g e 9 d 2 : ^ ' ; = . . . . . . . . . . ",
". . . . . . . . . - & ~ [ _ 1 d 9 e h s p z y B C F J K L M N O O O N N L P Q G E H x v A r j k b c 3 } / ) ; = . . . . . . . . . ",
". . . . . . . . - % ~ [ _ 2 7 a k j o t y B E J P M R S T U V W W W V U T X Y O L Q F C x u q n h l 8 4 6 < ) ; # . . . . . . . . ",
". . . . . . . + % ~ [ _ 2 7 b g s q u I D J P O S U W Z `  .....+.+... .@.#.$.V X R M K F H w t r i e 9 5 6 / ) ; # . . . . . . . ",
". . . . . . . = > ] _ 2 7 b g n A y H F K O S V Z @.+.%.&.*.=.=.-.=.=.;.*.>.,...` $.T Y M J D x z o j f 9 5 6 / ' * - . . . . . . ",
". . . . . . # ; ) ( 1 7 b g n t w C J M Y U Z  .,.*.=.'.).!.~.{.{.{.{.~.).].-.;.>.+.` W X O K F I u p j f 9 4 } ^ ~ % + . . . . . ",
". . . . . - & ' / 6 d a g n t w D Q N X $.@.,.*.^.).{./.(._.:.<.<.<.:._.[.}.|.!.'.=.>...#.U R P F B u p j e 8 3 _ ] { = . . . . . ",
". . . . . $ > [ } 4 9 k s A w D Q O T Z ..&.-.).|.(.:.1.2.3.4.5.5.5.4.3.6.7.<.[./.~.'.;.,.@.W Y L G B u o i b 7 1 < ) * @ . . . . ",
". . . . @ ; ) ( 2 c e j q y C Q O T #.+.*.'.~.(.:.7.3.8.9.0.a.b.b.b.a.c.d.e.5.6.f._.|.).-.>.@.W S L F I z r g a 5 } ^ ~ $ . . . . ",
". . . . $ ~ ^ 6 d b h o u H J N T #.+.;.].|._.1.3.e.0.b.g.h.i.j.k.k.j.i.l.m.a.d.5.2.<.}.~.^.>. .W Y P E x A s f 8 3 _ ! ; @ . . . ",
". . . @ ; ! _ 3 9 k s t I F M X Z +.;.)./.:.2.8.0.n.h.k.o.p.q.r.s.r.r.t.u.v.i.g.a.9.3.1.[.~.^.>.@.V R Q C v p i b d 6 ^ ~ $ . . . ",
". . . $ ~ ^ 6 d b i p y D K Y $...*.]./.<.6.e.a.l.k.p.r.w.x.y.z.z.z.y.A.B.s.t.o.i.n.0.5.1.[.~.-.%.` T N G B z n k 9 3 _ ! * @ . . ",
". . - * ) ( 3 9 k n z B J O U @.&.'.|.:.6.9.b.h.o.r.B.y.C.D.E.F.F.F.E.G.H.I.x.J.p.k.g.0.5.1.(.!.=.+.Z S P D y p i b d 6 ^ > = . . ",
". . # { [ } d b i p y E P S Z ,.-.~._.2.e.b.i.u.s.A.C.G.K.L.M.N.N.N.O.P.Q.F.H.z.B.q.v.g.0.4.f.}.].*. .V O J B z n f 8 2 < ' & + . ",
". . $ , / 1 c f s t B J O V  .*.).(.1.8.a.h.u.J.y.H.R.P.S.T.U.V.W.W.V.X.Y.O.Q.E.C.x.q.k.m.d.3.:.{.-.%.#.S P D y p h a 5 : ] ; @ . ",
". - * ) _ 3 0 g o v C P S Z ,.^.|.:.3.0.l.o.s.y.D.K.O.T.W.Z.`. +.+.+++@+#+U.Y.P.F.C.B.t.j.b.e.7.(.).*. .V N G I A m l 7 6 ^ > = . ",
". @ ; ] } 5 b i q x F M U @.*.).(.7.e.n.k.r.A.H.K.N.U.$+ +%+&+*+=+*+-+;+.+`.W.>+P.E.I.w.u.h.c.4.:.{.-.,.$.Y K H u n k 8 2 < , % . ",
". # > ^ | 7 e m t B J R W +.=.{.:.3.0.h.p.B.C.R.O.U.Z..+&+,+'+)+!+)+~+{+*+]+++W.Y.L.G.y.r.k.n.e.7.}.].&.` T L E y o h 0 3 _ ) & - ",
". $ , / 1 8 f n u C K S Z %.'./.1.8.b.k.r.y.G.P.T.$+.+-+'+!+^+/+(+(+_+:+~+,+]+`.V.S.K.<+B.u.l.0.6._.!.;. .V N F x q i b 5 : ] ; @ ",
". % ' ( 2 9 g o v D L T ` &.).(.2.9.g.o.w.C.K.S.W. +&+'+[+(+}+|+1+1+2+3+^+)+=+%+Z.T.P.G.y.q.j.a.5.<.{.-.+.W R J I t m l d 6 [ { @ ",
"+ & ) _ 3 0 h p w E M U  .*.!._.3.0.h.p.x.D.L.T.Z.%+,+!+(+2+4+5+6+7+8+1+9+0+a+-+ +V.N.F.I.s.v.n.8.1./.^.%.Z Y Q H z s e 7 | ^ > # ",
"- * ! _ 4 a i q x F N V ..=.~.:.4.a.i.q.y.E.M.U.`.&+'+^+}+4+b+c+d+e+f+5+|+(+!+,+g+$+Y.K.<+w.o.g.9.7.}.'.>.#.S K H u n f c | ^ ~ = ",
"- * ! : 5 a i q x G O W ..=.{.<.5.b.j.r.z.F.N.V. +*+)+/+|+5+c+h+i+j+k+l+4+9+:+{+]+Z.>+L.H.B.u.g.d.2.(.].>.#.X P C u n f 8 1 / ~ = ",
"- * ! : 5 b j q x G O W +.-.{.<.5.b.k.s.z.F.N.W..+=+!+(+1+6+d+i+m+n+h+o+p+}+0+'+;+@+T.L.H.B.p.l.d.2.(.].&.` X P C u r k 8 1 / ~ = ",
"- * ! : 5 b i q x G O W +.=.{.<.5.b.k.r.z.F.N.W..+*+)+(+1+7+e+j+n+q+r+f+p+}+0+{+]+@+T.L.H.B.u.l.d.2.(.].&.` X P C u n k 8 1 / ~ = ",
"- * ! : 5 a i q x G N V ..=.{.:.4.a.j.r.y.E.O.V.++-+~+_+2+8+f+k+h+r+s+6+t+3+[+u+%+$+>+Q.<+B.u.g.9.7.(.].>.#.S K C u n f c 1 / ~ = ",
"+ & ) _ 4 a h p w F N U  .;.~._.3.c.i.t.A.G.P.X.@+;+{+:+3+1+5+l+o+f+6+4+2+/+)+*+.+#+S.K.C.J.o.m.e.1.}.'.%.Z S K H z s f c | ^ > # ",
"+ & ' ( 3 0 g o y E L T @.*.).[.6.d.l.u.B.H.Q.Y.#+.+*+~+^+9+|+4+p+p+t+2+(+[+{+;+`.U.O.E.z.r.k.b.8.f.|.^.,.$.R Q B t m e 7 6 [ { # ",
". % , < 2 8 k r v C P X #.>.].}.7.e.m.v.s.I.F.O.U.`.]+,+)+0+(+9+}+}+3+/+[+'+-+.+#+Y.Q.H.x.t.h.c.3.:.~.=...W O G I A j b d } ] ; @ ",
". = ~ / | c f s z H Q Y $.,.-.|.<.5.a.i.t.x.H.Q.Y.W.++]+=+a+!+:+0+0+[+)+{+-+g+Z.X.M.F.I.J.o.g.9.2.[.).*.@.U M F w p i a 4 : ! * - ",
". # { [ 6 d l j A I G O V ..;.!.[.6.d.g.o.J.z.E.P.>+W.`.%+-+,+{+'+{+u+*+;+.+Z.U.N.K.H.x.t.i.a.5.f./.'.%.#.S P C v r g 9 3 ( ' & + ",
". @ ; ! : 4 a h p y E L X ` >.'./.f.5.a.i.p.B.C.F.P.Y.V.Z. +g+]+;+]+%+.+`.#+X.N.Q.D.y.s.v.g.d.6._.~.=...W R J B z s f c 1 / ~ $ . ",
". + % ' ( 2 8 k n u H Q R $.+.=.~._.2.9.n.k.q.x.C.E.L.S.T.V.$+Z.@+@+$+#+U.Y.M.K.D.y.J.u.h.c.5.f./.'.>.` T M F w q j b d } [ { # . ",
". . = ~ ^ | 7 l j A x F M T ` >.'.|.<.3.0.g.v.q.B.I.G.K.P.N.Y.>+T.T.>+S.O.Q.F.H.y.J.u.i.b.e.7.[.!.=.+.$.Y K C u r g 9 3 _ ) * - . ",
". . @ ; ! : 4 0 g o v C K Y W ..;.).}.1.5.0.g.k.t.w.y.<+G.F.K.L.L.L.Q.K.E.H.I.x.s.u.i.b.9.6.:.{.^.%.` T M F x A m e c | / , $ . . ",
". . + % , < 1 c e m A x F M X #.,.-.~.[.1.5.0.m.j.u.r.B.y.I.<+H.H.H.<+C.z.x.J.t.v.h.b.9.6.:./.].&. .W R Q C v o h a 5 : ] { # . . ",
". . . # { [ } 5 a g r u H J O U @.>.^.~.[.1.4.d.b.h.k.u.q.s.w.B.B.B.B.J.r.t.o.i.g.c.e.6.:./.].;.+.$.S L E x A m e c 1 < ' & + . . ",
". . . - & ' < 1 c e j q w D K R W @.>.^.~.(.f.3.e.c.n.l.j.v.o.u.p.u.u.o.k.h.g.a.d.5.7.:./.].;.+.#.T M G B z r g 0 4 } [ > # . . . ",
". . . . # { ] : 4 9 k n t x F P Y W  .>.-.!.}.:.7.4.e.0.a.n.g.g.l.l.g.m.b.c.9.5.6.f.[.{.].;.+.#.T N J H v p i l 7 1 < ' & - . . . ",
". . . . + & , / | d b h r z I F L S W @.%.=.].{.(.:.7.6.5.8.9.d.d.d.9.e.8.3.2.f._./.!.^.&.+.#.T O Q C y q m f 8 3 _ ] { # . . . . ",
". . . . . # ; ! ( 2 c l i o u B G L Y V ` +.*.-.).{.}._.<.1.7.2.2.2.7.1.f.:.[./.~.'.=.%. .$.T N Q D w A s k 0 5 6 ^ , % + . . . . ",
". . . . . . $ > [ : 3 8 e j p u B F P R T Z  .%.*.-.].!.{./.}.(.(.(.(.}.|.~.).'.=.>.+.` W S M J C w t n g a d | < ) * @ . . . . . ",
". . . . . . - & , ^ } 4 9 f j p u I E Q N S V #. .,.&.;.-.^.'.].].].].'.^.=.*.%...` $.T R L G H y A n g b 7 1 ( ! { = . . . . . . ",
". . . . . . . @ * ' / 6 5 9 f j o z x C G P O S V $.`  .+.%.>.>.&.&.>.%.,...@.#.W T Y M Q E B v q s g b 7 2 _ ] > $ + . . . . . . ",
". . . . . . . . # ; ) < 6 5 9 e i r A v B D J P N Y T V W Z #.#.` ` #.Z $.W U S R M K F C x z p m k a 7 2 _ [ ~ % + . . . . . . . ",
". . . . . . . . . = ; ) / 6 4 8 b g s p z y B D G K L N R Y S X X X S S R O M P J F C x v A r i f 0 d 1 _ [ ~ & - . . . . . . . . ",
". . . . . . . . . . = ; ) / } 3 7 a f i n p z y I H E F J Q K P P P K K Q G F C B w u A o m g l 8 5 | ( ] ~ & - . . . . . . . . . ",
". . . . . . . . . . . # ; ' ^ _ 1 5 8 b k i n p A u y x I H H C C C C H B I w v z q r m h e 0 7 3 6 < ! > % - . . . . . . . . . . ",
". . . . . . . . . . . . # * ~ ] < } 3 d 9 b f h m n o q t z u u u u u z t A p r s j g e a c 4 1 _ ^ ) { $ + . . . . . . . . . . . ",
". . . . . . . . . . . . . - % { ) ^ _ 6 3 d 8 a l k h i m s n n r n n s m j i g f b 9 c 5 1 } < ] , * = . . . . . . . . . . . . . ",
". . . . . . . . . . . . . . + = * ~ ! ^ _ 6 2 5 7 8 0 b l e f f k k f f e b a 9 c d 3 | : < [ ' { % @ . . . . . . . . . . . . . . ",
". . . . . . . . . . . . . . . . - $ ; ~ ! ^ < : 6 2 3 5 d 7 c 8 8 8 c c 7 d 4 3 1 } _ / ] ' > & # . . . . . . . . . . . . . . . . ",
". . . . . . . . . . . . . . . . . . @ $ * > ' ] ^ < _ : 6 | | 1 1 1 1 | 6 } : ( / [ ) , { & # + . . . . . . . . . . . . . . . . . ",
". . . . . . . . . . . . . . . . . . . . - = & ; > , ) ] [ ^ ^ / / / / ^ [ ] ! ' ~ { * $ # . . . . . . . . . . . . . . . . . . . . ",
". . . . . . . . . . . . . . . . . . . . . . . - = % & ; { > ~ ~ ~ ~ ~ > { ; * & $ # + . . . . . . . . . . . . . . . . . . . . . . ",
". . . . . . . . . . . . . . . . . . . . . . . . . . . - @ # = = = = = # # - + . . . . . . . . . . . . . . . . . . . . . . . . . . "};
