/* XPM */
static const char * brushsize17[] = {
"17 17 98 2",
"  	c None",
". 	c #FFFFFF",
"+ 	c #FCFCFC",
"@ 	c #FAFAFA",
"# 	c #FBFBFB",
"$ 	c #FEFEFE",
"% 	c #EFEFEF",
"& 	c #E4E4E4",
"* 	c #DDDDDD",
"= 	c #DADADA",
"- 	c #DBDBDB",
"; 	c #E0E0E0",
"> 	c #E9E9E9",
", 	c #F7F7F7",
"' 	c #F6F6F6",
") 	c #E3E3E3",
"! 	c #D4D4D4",
"~ 	c #C8C8C8",
"{ 	c #C0C0C0",
"] 	c #BCBCBC",
"^ 	c #BDBDBD",
"/ 	c #C3C3C3",
"( 	c #CDCDCD",
"_ 	c #ECECEC",
": 	c #FDFDFD",
"< 	c #F5F5F5",
"[ 	c #DFDFDF",
"} 	c #CBCBCB",
"| 	c #BABABA",
"1 	c #ACACAC",
"2 	c #A2A2A2",
"3 	c #9E9E9E",
"4 	c #A0A0A0",
"5 	c #A6A6A6",
"6 	c #B2B2B2",
"7 	c #C2C2C2",
"8 	c #D5D5D5",
"9 	c #EAEAEA",
"0 	c #B5B5B5",
"a 	c #A1A1A1",
"b 	c #919191",
"c 	c #858585",
"d 	c #808080",
"e 	c #828282",
"f 	c #8A8A8A",
"g 	c #989898",
"h 	c #AAAAAA",
"i 	c #D7D7D7",
"j 	c #F0F0F0",
"k 	c #777777",
"l 	c #696969",
"m 	c #626262",
"n 	c #656565",
"o 	c #6F6F6F",
"p 	c #959595",
"q 	c #ADADAD",
"r 	c #C7C7C7",
"s 	c #E1E1E1",
"t 	c #F9F9F9",
"u 	c #606060",
"v 	c #4E4E4E",
"w 	c #444444",
"x 	c #484848",
"y 	c #565656",
"z 	c #6B6B6B",
"A 	c #848484",
"B 	c #D6D6D6",
"C 	c #F2F2F2",
"D 	c #F8F8F8",
"E 	c #353535",
"F 	c #272727",
"G 	c #2C2C2C",
"H 	c #414141",
"I 	c #5B5B5B",
"J 	c #949494",
"K 	c #B1B1B1",
"L 	c #CECECE",
"M 	c #0B0B0B",
"N 	c #181818",
"O 	c #535353",
"P 	c #717171",
"Q 	c #8F8F8F",
"R 	c #202020",
"S 	c #3A3A3A",
"T 	c #737373",
"U 	c #AEAEAE",
"V 	c #CCCCCC",
"W 	c #4B4B4B",
"X 	c #7D7D7D",
"Y 	c #D2D2D2",
"Z 	c #757575",
"` 	c #8C8C8C",
" .	c #A5A5A5",
"..	c #F4F4F4",
"+.	c #B6B6B6",
"@.	c #E8E8E8",
"#.	c #CACACA",
"$.	c #F3F3F3",
". . . . . . . + @ # $ . . . . . . ",
". . . . + % & * = - ; > , . . . . ",
". . . ' ) ! ~ { ] ^ / ( - _ : . . ",
". . < [ } | 1 2 3 4 5 6 7 8 9 : . ",
". @ ) } 0 a b c d e f g h { i j . ",
". % ! | a f k l m n o d p q r s t ",
"$ & ~ 1 b k u v w x y z A 3 | B C ",
"D * { 2 c l v E F G H I k J K L _ ",
", = ] 3 d m w F M N E O P Q q } > ",
", - ^ 4 e n x G N R S y T b U V 9 ",
"# ; / 5 f o y H E S W m X g 0 Y % ",
". > ( 6 g d z I O y m Z `  .{ - ..",
". ..- 7 h p A k P T X ` 4 +.L @.$ ",
". . _ 8 { q 3 J Q b g  .+.#.; ' . ",
". . : 9 i r | K q U 0 { L ; ... . ",
". . . $ j s B L } V Y - @.t . . . ",
". . . . . : $._ > 9 % t . . . . . "};
