/* XPM */
static const char * brushsize11[] = {
"11 11 56 1",
" 	c None",
".	c #FFFFFF",
"+	c #FEFEFE",
"@	c #F7F7F7",
"#	c #F0F0F0",
"$	c #F4F4F4",
"%	c #FDFDFD",
"&	c #F2F2F2",
"*	c #D8D8D8",
"=	c #C7C7C7",
"-	c #C0C0C0",
";	c #C4C4C4",
">	c #D3D3D3",
",	c #EAEAEA",
"'	c #EFEFEF",
")	c #CDCDCD",
"!	c #B0B0B0",
"~	c #9A9A9A",
"{	c #919191",
"]	c #979797",
"^	c #A9A9A9",
"/	c #C5C5C5",
"(	c #E7E7E7",
"_	c #FCFCFC",
":	c #8C8C8C",
"<	c #707070",
"[	c #636363",
"}	c #6B6B6B",
"|	c #848484",
"1	c #A6A6A6",
"2	c #4A4A4A",
"3	c #353535",
"4	c #434343",
"5	c #666666",
"6	c #909090",
"7	c #BBBBBB",
"8	c #E8E8E8",
"9	c #EEEEEE",
"0	c #090909",
"a	c #292929",
"b	c #585858",
"c	c #868686",
"d	c #B4B4B4",
"e	c #E2E2E2",
"f	c #3A3A3A",
"g	c #606060",
"h	c #B9B9B9",
"i	c #E6E6E6",
"j	c #F9F9F9",
"k	c #7B7B7B",
"l	c #A0A0A0",
"m	c #C8C8C8",
"n	c #BDBDBD",
"o	c #E0E0E0",
"p	c #FBFBFB",
"q	c #F5F5F5",
"...+@#$%...",
"..&*=-;>,+.",
".')!~{]^/(.",
"_*!:<[}|1)&",
"#=~<2345678",
"9-{[30abcde",
"';]}4afg:hi",
"j>^|5bgklm9",
".,/16c:lno+",
".+()7dhmop.",
"...j8eiq..."};
