/* XPM */
static const char * clovericon[] = {
"32 32 240 2",
"  	c None",
". 	c #E35D22",
"+ 	c #B44818",
"@ 	c #87330D",
"# 	c #5C1F03",
"$ 	c #FFFA9C",
"% 	c #FBF597",
"& 	c #F6EF93",
"* 	c #F2EA8E",
"= 	c #EEE589",
"- 	c #E9DF85",
"; 	c #E4D981",
"> 	c #E1D57C",
", 	c #DCCF77",
"' 	c #D8C973",
") 	c #D3C46E",
"! 	c #CFBF69",
"~ 	c #CAB965",
"{ 	c #C6B460",
"] 	c #C2AE5C",
"^ 	c #BEA957",
"/ 	c #B9A453",
"( 	c #B49E4E",
"_ 	c #B09949",
": 	c #AB9445",
"< 	c #A78E40",
"[ 	c #A3893C",
"} 	c #9F8437",
"| 	c #9A7E32",
"1 	c #FAF598",
"2 	c #007400",
"3 	c #004A00",
"4 	c #6A8D00",
"5 	c #B59E4E",
"6 	c #457600",
"7 	c #AC9344",
"8 	c #A0873B",
"9 	c #266200",
"0 	c #005800",
"a 	c #0AAC16",
"b 	c #78D124",
"c 	c #A68E40",
"d 	c #9D8337",
"e 	c #9A7D31",
"f 	c #F1EA8E",
"g 	c #56F20A",
"h 	c #DACC75",
"i 	c #D6C771",
"j 	c #D1C26C",
"k 	c #AF9848",
"l 	c #AB9244",
"m 	c #A68D3F",
"n 	c #A2883B",
"o 	c #997D31",
"p 	c #742A08",
"q 	c #AC5832",
"r 	c #EEE58A",
"s 	c #003100",
"t 	c #D4C56F",
"u 	c #AF9747",
"v 	c #AA9242",
"w 	c #A58C3E",
"x 	c #9C8235",
"y 	c #987C31",
"z 	c #EADF85",
"A 	c #D2C36C",
"B 	c #AD9546",
"C 	c #A99042",
"D 	c #A48B3E",
"E 	c #A08639",
"F 	c #AE5933",
"G 	c #E5DA81",
"H 	c #D0C06A",
"I 	c #AC9444",
"J 	c #A4893C",
"K 	c #9F8537",
"L 	c #90370F",
"M 	c #B24D20",
"N 	c #E1D47C",
"O 	c #66B80E",
"P 	c #AE9748",
"Q 	c #AB9243",
"R 	c #A2873B",
"S 	c #7B2D0A",
"T 	c #CFC76B",
"U 	c #B49F4E",
"V 	c #B0994A",
"W 	c #AC9546",
"X 	c #A99041",
"Y 	c #A48B3D",
"Z 	c #A06625",
"` 	c #6E290A",
" .	c #D8CA72",
"..	c #D7CA72",
"+.	c #D6C770",
"@.	c #D3C56F",
"#.	c #D1C36D",
"$.	c #D0C06B",
"%.	c #E28800",
"&.	c #BDA957",
"*.	c #B9A454",
"=.	c #B6A14F",
"-.	c #B29C4B",
";.	c #AB9344",
">.	c #A68D40",
",.	c #A26827",
"'.	c #92752A",
").	c #D3C56E",
"!.	c #CEC169",
"~.	c #D2C26C",
"{.	c #AC9446",
"].	c #A98F41",
"^.	c #A36928",
"/.	c #917329",
"(.	c #A46B29",
"_.	c #93752B",
":.	c #8F7127",
"<.	c #A56C2A",
"[.	c #997C31",
"}.	c #95772D",
"|.	c #8E6E25",
"1.	c #B44A18",
"2.	c #BAA553",
"3.	c #A56D2B",
"4.	c #977A2E",
"5.	c #8F7027",
"6.	c #8B6C22",
"7.	c #B54F19",
"8.	c #C2AF5C",
"9.	c #B6A04F",
"0.	c #9B7F33",
"a.	c #977B2F",
"b.	c #94772C",
"c.	c #917228",
"d.	c #896920",
"e.	c #B29C4C",
"f.	c #B09849",
"g.	c #95782D",
"h.	c #927329",
"i.	c #8A6B22",
"j.	c #86661E",
"k.	c #B19949",
"l.	c #AE9747",
"m.	c #92742A",
"n.	c #8F7026",
"o.	c #84631C",
"p.	c #B6531A",
"q.	c #AA9244",
"r.	c #96782E",
"s.	c #8B6C23",
"t.	c #85641C",
"u.	c #826019",
"v.	c #B7551B",
"w.	c #D67404",
"x.	c #AF9849",
"y.	c #AE9647",
"z.	c #AC9445",
"A.	c #A66D2B",
"B.	c #9B7F34",
"C.	c #997C30",
"D.	c #95782E",
"E.	c #8D6D24",
"F.	c #86651D",
"G.	c #7F5C16",
"H.	c #DE5B21",
"I.	c #B64F1A",
"J.	c #FF9600",
"K.	c #E88302",
"L.	c #4F7C00",
"M.	c #AA9344",
"N.	c #AA9142",
"O.	c #A78E41",
"P.	c #A58B3D",
"Q.	c #9A7E33",
"R.	c #977B30",
"S.	c #8C6D24",
"T.	c #896A21",
"U.	c #7F5E16",
"V.	c #7C5A13",
"W.	c #B54D19",
"X.	c #772C09",
"Y.	c #AB6849",
"Z.	c #A58B3E",
"`.	c #AF724E",
" +	c #9A4A26",
".+	c #974520",
"++	c #6D2707",
"@+	c #94762C",
"#+	c #927429",
"$+	c #82621A",
"%+	c #805D17",
"&+	c #795610",
"*+	c #702908",
"=+	c #9E512E",
"-+	c #AB6646",
";+	c #FFF1DE",
">+	c #FFFFFF",
",+	c #E6CCB2",
"'+	c #965923",
")+	c #2F6800",
"!+	c #94782D",
"~+	c #155800",
"{+	c #907228",
"]+	c #8B6B23",
"^+	c #85651D",
"/+	c #805E17",
"(+	c #7A5610",
"_+	c #76520D",
":+	c #C6701A",
"<+	c #D98419",
"[+	c #E7641E",
"}+	c #F19454",
"|+	c #F9B063",
"1+	c #FCC883",
"2+	c #FCC172",
"3+	c #F6830B",
"4+	c #93762B",
"5+	c #8A6A22",
"6+	c #7F5D16",
"7+	c #0F4B02",
"8+	c #744E0A",
"9+	c #E18F0F",
"0+	c #D88218",
"a+	c #EA6A1A",
"b+	c #ED7017",
"c+	c #9F6423",
"d+	c #917229",
"e+	c #8D6E25",
"f+	c #886921",
"g+	c #7C5913",
"h+	c #734E0A",
"i+	c #714B06",
"j+	c #A15C1A",
"k+	c #7C2E0A",
"l+	c #8E4302",
"m+	c #773302",
"n+	c #682907",
"o+	c #BA6720",
"p+	c #E07C03",
"q+	c #9B4B15",
". . . . . . . . . . . . . . . . . . . . . . . . . . . . . . . . ",
". + + + + + + + + + + + + + + + + + + + + + + + + + + + + + + . ",
". + @ @ @ @ @ @ @ @ @ @ @ @ @ @ @ @ @ @ @ @ @ @ @ @ @ @ @ @ + . ",
". + @ # # # # # # # # # # # # # # # # # # # # # # # # # # @ + . ",
". + @ # $ % & * = - ; > , ' ) ! ~ { ] ^ / ( _ : < [ } | # @ + . ",
". + @ # 1 > 2 3 3 3 2 > 4 ' 4 > 2 3 3 3 2 5 6 7 6 8 9 | # @ + . ",
". + @ # & 2 0 a a a a b ' 4 ' b a a a a 0 2 _ 6 c 9 d e # @ + . ",
". + @ # f 3 a g g g g 3 h i j 3 g g g g a 3 k l m n 9 o p @ q . ",
". + @ # r 3 a g s s s 3 3 t 3 3 s s s g a 3 u v w 9 x y # # q . ",
". + @ # z 3 a g s s s s 3 A 3 s s s s g a 3 B C D E 9 # + # F . ",
". + @ # G 2 a g s s s s 3 H 3 s s s s g a 3 I < J K # + # L M . ",
". + @ # N ! b 3 3 s s s s 3 s s s s 3 3 O P Q m R # + # S @ + . ",
". + @ # , 4 T h 3 3 3 s s 3 s s 3 3 3 U V W X Y # + # Z ` @ + . ",
". + @ #  ...4 +.@.#.$.3 3 %.3 3 &.*.=.-.P ;.>.# + # ,.'.# @ + . ",
". + @ # ).4 !.~.3 3 3 s s 3 s s 3 3 3 _ {.].# + # ^.9 /.# @ + . ",
". + @ # ! ! b 3 3 s s s s 3 s s s s 3 O 2 # + # (.9 _.:.# @ + . ",
". + @ # ~ 2 a g s s s s 3 &.3 s s s s g # + # <.[.}.9 |.# @ + . ",
". 1.@ # { 3 a g s s s s 3 2.3 s s s s # + # 3.| 4.9 5.6.# @ + . ",
". 7.@ # 8.3 a g s s s 3 3 9.3 3 s s # + # 3.0.a.b.c.3 d.# @ + . ",
". 7.@ # ^ 3 a g g g g 3 5 e.f.3 g # + # 3.3 y g.h.3 i.j.# @ + . ",
". 7.@ # / 4 0 a a a a b k.l.W b # + # 3.0 2 g.m.n.6.3 o.# @ + . ",
". p.@ # 5 ( 4 3 3 3 2 P B q.X # + # 3.3 2 r.'.:.s.3 t.u.# @ + . ",
". v.w.# _ 4 x.k y.B z.q.X c # + # A.B.C.D.m.5.E.d.F.3 G.# @ + . ",
"H.I.J.K.z.z.L.M.N.X O.m P.# + # 3.Q.R.g.m.:.S.T.F.3 U.V.# @ + . ",
"H.W.J.X.Y.L.>.m Z.`. +.+L ++# 3.[.4.@+#+5.S.d.F.$+%+3 &+# @ + . ",
". + w.J.*+=+=+=+-+;+>+>+,+++'+)+!+~+{+3 ]+3 ^+3 /+3 (+_+# @ + . ",
". + @ :+<+L ++[+}+|+1+2+3+++3.4+~+:.3 5+3 t.3 6+3 (+7+8+# @ + . ",
". + @ # 9+9+0+L ++a+b+a+++c+d+:.e+]+f+j.o.u.G.g+(+_+h+i+# @ + . ",
". + @ # # j+J.J.J.++++k+J.l+m+n+# # # # # # # # # # # # # @ + . ",
". + @ @ @ @ @ o+J.J.J.p+q+@ @ @ @ @ @ @ @ @ @ @ @ @ @ @ @ @ + . ",
". + + + + + + + + + + + + + + + + + + + + + + + + + + + + + + . ",
". . . . . . . . . . . . . . . . . . . . . . . . . . . . . . . . "};
