/* XPM */
static const char * cloverimage[] = {
"29 40 540 2",
"  	c None",
". 	c #080808",
"+ 	c #000000",
"@ 	c #081200",
"# 	c #082900",
"$ 	c #102C00",
"% 	c #081A00",
"& 	c #080900",
"* 	c #001100",
"= 	c #103208",
"- 	c #195E00",
"; 	c #237F00",
"> 	c #2B8908",
", 	c #238F00",
"' 	c #2A7B08",
") 	c #295D10",
"! 	c #183308",
"~ 	c #081208",
"{ 	c #030800",
"] 	c #0B4600",
"^ 	c #348300",
"/ 	c #308C00",
"( 	c #157F00",
"_ 	c #254B18",
": 	c #001700",
"< 	c #110000",
"[ 	c #001000",
"} 	c #1C5C00",
"| 	c #3CAA00",
"1 	c #46BF00",
"2 	c #29CE00",
"3 	c #42C700",
"4 	c #28A300",
"5 	c #30AB06",
"6 	c #2B5D1B",
"7 	c #000003",
"8 	c #0C000F",
"9 	c #0A0000",
"0 	c #0D4B00",
"a 	c #2B9C00",
"b 	c #35AB00",
"c 	c #30B418",
"d 	c #35A913",
"e 	c #299000",
"f 	c #043800",
"g 	c #0B1C00",
"h 	c #297918",
"i 	c #2CA700",
"j 	c #20C100",
"k 	c #3AA200",
"l 	c #20B600",
"m 	c #20B400",
"n 	c #45AF0A",
"o 	c #20751B",
"p 	c #191316",
"q 	c #000006",
"r 	c #000400",
"s 	c #080208",
"t 	c #176800",
"u 	c #37A918",
"v 	c #43AD00",
"w 	c #23B600",
"x 	c #25C000",
"y 	c #4CB618",
"z 	c #297C00",
"A 	c #040800",
"B 	c #090000",
"C 	c #173613",
"D 	c #1B9800",
"E 	c #41CA00",
"F 	c #38B500",
"G 	c #1CAD00",
"H 	c #38B000",
"I 	c #38AA00",
"J 	c #23A800",
"K 	c #2E8C1B",
"L 	c #295F16",
"M 	c #211E1D",
"N 	c #00000C",
"O 	c #0F0015",
"P 	c #001800",
"Q 	c #208213",
"R 	c #2AB200",
"S 	c #1EC000",
"T 	c #3AA800",
"U 	c #3AAC00",
"V 	c #23BC00",
"W 	c #2E9F00",
"X 	c #205011",
"Y 	c #051808",
"Z 	c #1B670A",
"` 	c #278A00",
" .	c #38B600",
"..	c #33B000",
"+.	c #369B1A",
"@.	c #36AE00",
"#.	c #38B400",
"$.	c #3AB311",
"%.	c #27AF06",
"&.	c #33941B",
"*.	c #0A7200",
"=.	c #203D06",
"-.	c #000200",
";.	c #0D2100",
">.	c #265000",
",.	c #2B8A00",
"'.	c #51B72F",
").	c #27BB00",
"!.	c #3FB500",
"~.	c #38A600",
"{.	c #38A300",
"].	c #1AB400",
"^.	c #38AD00",
"/.	c #3FC900",
"(.	c #25960C",
"_.	c #437122",
":.	c #3F9124",
"<.	c #3AC013",
"[.	c #36AA00",
"}.	c #33A100",
"|.	c #36AD00",
"1.	c #1AAE00",
"2.	c #36A300",
"3.	c #1AA300",
"4.	c #3CB50F",
"5.	c #2AAF0C",
"6.	c #37A506",
"7.	c #325E22",
"8.	c #121108",
"9.	c #0F0013",
"0.	c #1C5A00",
"a.	c #2BC700",
"b.	c #42C70E",
"c.	c #3AC200",
"d.	c #38B300",
"e.	c #1AAF00",
"f.	c #389E1A",
"g.	c #4F9928",
"h.	c #31B900",
"i.	c #17B700",
"j.	c #33AE00",
"k.	c #33AD00",
"l.	c #1AAC00",
"m.	c #38A200",
"n.	c #36A600",
"o.	c #23B700",
"p.	c #2EBA00",
"q.	c #29961B",
"r.	c #0B0A1B",
"s.	c #277E07",
"t.	c #40C716",
"u.	c #38BA00",
"v.	c #17B600",
"w.	c #36A200",
"x.	c #36AC00",
"y.	c #17AF00",
"z.	c #36A100",
"A.	c #1CB100",
"B.	c #36A500",
"C.	c #33B400",
"D.	c #31A300",
"E.	c #33A200",
"F.	c #1AB300",
"G.	c #3AA900",
"H.	c #25BA00",
"I.	c #2EC206",
"J.	c #498535",
"K.	c #110011",
"L.	c #2E8706",
"M.	c #3FCF07",
"N.	c #36B500",
"O.	c #38A500",
"P.	c #38AF00",
"Q.	c #38AC00",
"R.	c #339A1A",
"S.	c #31AD00",
"T.	c #31A000",
"U.	c #36B100",
"V.	c #38A800",
"W.	c #23B100",
"X.	c #4AC600",
"Y.	c #229F08",
"Z.	c #3F3C3C",
"`.	c #2A760A",
" +	c #42B618",
".+	c #38BD00",
"++	c #1CB400",
"@+	c #1A9D00",
"#+	c #1AAD00",
"$+	c #1CAA00",
"%+	c #36AF00",
"&+	c #20AC00",
"*+	c #46B900",
"=+	c #228F00",
"-+	c #002A00",
";+	c #1F4F08",
">+	c #339619",
",+	c #20D600",
"'+	c #3AB100",
")+	c #38B200",
"!+	c #38A000",
"~+	c #38AE00",
"{+	c #17AD00",
"]+	c #389F00",
"^+	c #17AE00",
"/+	c #36A400",
"(+	c #20A300",
"_+	c #27BC00",
":+	c #398B00",
"<+	c #123800",
"[+	c #080018",
"}+	c #101C08",
"|+	c #275E14",
"1+	c #46A812",
"2+	c #3CBA01",
"3+	c #1ECD00",
"4+	c #3AAE00",
"5+	c #369A1A",
"6+	c #3AAD00",
"7+	c #369F00",
"8+	c #38A100",
"9+	c #3AA400",
"0+	c #3FAF00",
"a+	c #0DA400",
"b+	c #207700",
"c+	c #002200",
"d+	c #0B1900",
"e+	c #001A00",
"f+	c #080000",
"g+	c #130500",
"h+	c #221435",
"i+	c #457149",
"j+	c #35A32A",
"k+	c #2AA415",
"l+	c #23AE04",
"m+	c #1EC900",
"n+	c #38A700",
"o+	c #1CAF00",
"p+	c #1CB200",
"q+	c #3CAE00",
"r+	c #278800",
"s+	c #358100",
"t+	c #246000",
"u+	c #133800",
"v+	c #205400",
"w+	c #000D00",
"x+	c #081400",
"y+	c #190A2A",
"z+	c #245425",
"A+	c #4C762C",
"B+	c #3FA31D",
"C+	c #1EAE00",
"D+	c #3A9F1A",
"E+	c #1EA300",
"F+	c #3CB700",
"G+	c #23A900",
"H+	c #2AA700",
"I+	c #339F00",
"J+	c #25A900",
"K+	c #175C00",
"L+	c #101D00",
"M+	c #000004",
"N+	c #000010",
"O+	c #1B1427",
"P+	c #278517",
"Q+	c #3CA00C",
"R+	c #1CB500",
"S+	c #339D00",
"T+	c #1AB200",
"U+	c #3AA700",
"V+	c #3CB300",
"W+	c #3FBC00",
"X+	c #2CCB00",
"Y+	c #138600",
"Z+	c #2A2C00",
"`+	c #020800",
" @	c #061400",
".@	c #040F00",
"+@	c #170C08",
"@@	c #20281D",
"#@	c #296C22",
"$@	c #20BA00",
"%@	c #389B1A",
"&@	c #17B000",
"*@	c #369E1A",
"=@	c #3AAB00",
"-@	c #27D800",
";@	c #3ACE00",
">@	c #1A8C00",
",@	c #0E2B00",
"'@	c #1C3900",
")@	c #114900",
"!@	c #1F6400",
"~@	c #208B00",
"{@	c #2C8F00",
"]@	c #25B100",
"^@	c #3AB300",
"/@	c #3AAF00",
"(@	c #36B000",
"_@	c #389F1A",
":@	c #177E00",
"<@	c #102400",
"[@	c #154500",
"}@	c #174F00",
"|@	c #23AD00",
"1@	c #37AF00",
"2@	c #43DA00",
"3@	c #3CBE00",
"4@	c #3AAC1A",
"5@	c #33A000",
"6@	c #3A9B1A",
"7@	c #1AB100",
"8@	c #36A000",
"9@	c #3AAA00",
"0@	c #27C500",
"a@	c #209400",
"b@	c #1C4600",
"c@	c #155400",
"d@	c #2C7300",
"e@	c #3EC200",
"f@	c #41C517",
"g@	c #38BB00",
"h@	c #31AE00",
"i@	c #38A01A",
"j@	c #1EB100",
"k@	c #30B100",
"l@	c #299700",
"m@	c #0B4D00",
"n@	c #194D00",
"o@	c #2CA400",
"p@	c #3AD900",
"q@	c #2ABE00",
"r@	c #3AA815",
"s@	c #369D1A",
"t@	c #3CA800",
"u@	c #1EB900",
"v@	c #3CAB00",
"w@	c #1EB200",
"x@	c #3CA100",
"y@	c #3A9E1A",
"z@	c #1CB300",
"A@	c #3FBA00",
"B@	c #2EAC00",
"C@	c #458D1A",
"D@	c #205B00",
"E@	c #1D0700",
"F@	c #000900",
"G@	c #092600",
"H@	c #225700",
"I@	c #32AA00",
"J@	c #37BD00",
"K@	c #2ACC00",
"L@	c #3CB800",
"M@	c #38AB00",
"N@	c #41BB00",
"O@	c #256700",
"P@	c #1EB600",
"Q@	c #3AB000",
"R@	c #2AB800",
"S@	c #227E00",
"T@	c #043000",
"U@	c #071600",
"V@	c #134100",
"W@	c #1F6900",
"X@	c #36920D",
"Y@	c #27B300",
"Z@	c #48CF19",
"`@	c #1FBF00",
" #	c #36A01A",
".#	c #23B300",
"+#	c #297500",
"@#	c #128000",
"##	c #30711A",
"$#	c #2E9700",
"%#	c #43C800",
"&#	c #38A51A",
"*#	c #43C300",
"=#	c #379700",
"-#	c #1C5100",
";#	c #010000",
">#	c #081800",
",#	c #144400",
"'#	c #155700",
")#	c #216700",
"!#	c #238E00",
"~#	c #2BB300",
"{#	c #3ABC00",
"]#	c #23B000",
"^#	c #2C9700",
"/#	c #189100",
"(#	c #358900",
"_#	c #1DAF00",
":#	c #1CAC00",
"<#	c #46AA00",
"[#	c #3FC600",
"}#	c #23CE00",
"|#	c #31A900",
"1#	c #0C9000",
"2#	c #101D1A",
"3#	c #010400",
"4#	c #120E00",
"5#	c #1F4717",
"6#	c #3AA100",
"7#	c #27D400",
"8#	c #38B100",
"9#	c #45AE1A",
"0#	c #198000",
"a#	c #1F7800",
"b#	c #419300",
"c#	c #0E2400",
"d#	c #130000",
"e#	c #078800",
"f#	c #29CD00",
"g#	c #206000",
"h#	c #040000",
"i#	c #153E00",
"j#	c #177D00",
"k#	c #33A500",
"l#	c #40C400",
"m#	c #3CAD00",
"n#	c #20BF00",
"o#	c #2E8200",
"p#	c #206100",
"q#	c #091400",
"r#	c #228B00",
"s#	c #24C800",
"t#	c #114000",
"u#	c #070000",
"v#	c #052500",
"w#	c #1C7200",
"x#	c #1A8000",
"y#	c #255300",
"z#	c #1B251A",
"A#	c #0C0D00",
"B#	c #134C00",
"C#	c #309014",
"D#	c #35AC00",
"E#	c #2ED600",
"F#	c #2EB600",
"G#	c #33B800",
"H#	c #41921A",
"I#	c #114100",
"J#	c #133A00",
"K#	c #299800",
"L#	c #40AA00",
"M#	c #157100",
"N#	c #100600",
"O#	c #1B0D00",
"P#	c #001F00",
"Q#	c #000B00",
"R#	c #1A0200",
"S#	c #081C00",
"T#	c #125000",
"U#	c #1C7700",
"V#	c #2E9916",
"W#	c #2EA300",
"X#	c #158E00",
"Y#	c #1F6D00",
"Z#	c #091900",
"`#	c #022900",
" $	c #2B9200",
".$	c #1FBB00",
"+$	c #308100",
"@$	c #001E00",
"#$	c #0C0800",
"$$	c #0D1300",
"%$	c #1E2D00",
"&$	c #195A00",
"*$	c #195100",
"=$	c #031F00",
"-$	c #050400",
";$	c #030000",
">$	c #000700",
",$	c #326F00",
"'$	c #2DA700",
")$	c #0D2D00",
"!$	c #001200",
"~$	c #020700",
"{$	c #030900",
"]$	c #154200",
"^$	c #39BB00",
"/$	c #063100",
"($	c #060400",
"_$	c #0C1500",
":$	c #130200",
"<$	c #002000",
"[$	c #376600",
"}$	c #20CF00",
"|$	c #43B800",
"1$	c #045100",
"2$	c #000F00",
"3$	c #131D00",
"4$	c #000C00",
"5$	c #001C00",
"6$	c #177400",
"7$	c #24C700",
"8$	c #1E1100",
"9$	c #060000",
"0$	c #152200",
"a$	c #000E00",
"b$	c #176900",
"c$	c #37BF00",
"d$	c #3EB400",
"e$	c #043900",
"f$	c #180C00",
"g$	c #30A600",
"h$	c #30E900",
"i$	c #40B900",
"j$	c #0B1A00",
"k$	c #001900",
"l$	c #4AE300",
"m$	c #2BAB00",
"n$	c #1A0100",
"o$	c #1C4C00",
"p$	c #37F700",
"q$	c #30EE00",
"r$	c #368000",
"s$	c #001B00",
"t$	c #000A00",
"u$	c #109400",
"v$	c #54D300",
"w$	c #3EA400",
"x$	c #0B3500",
"y$	c #102D00",
"z$	c #29C500",
"A$	c #3ABD00",
"B$	c #0E9700",
"C$	c #1B5D00",
"D$	c #22C300",
"E$	c #40AC00",
"F$	c #1E6900",
"G$	c #0F3C00",
"H$	c #32B100",
"I$	c #3ED000",
"J$	c #2DD500",
"K$	c #0D3700",
"L$	c #104100",
"M$	c #217400",
"N$	c #217B00",
"O$	c #185C00",
". + + + + @ # $ # % & + + * = - ; > , ' ) ! ~ + + + + + + ",
". + + + { ] ^ / ( _ : + < [ } | 1 2 3 4 5 6 7 8 + + + + + ",
"+ + + 9 0 a b c d e f + + g h i j k l m n o p q r + + + + ",
"s + + r t u v w x y z A B C D E F G H I J K L M N O P + + ",
"+ + [ + Q R S T U V W X Y Z `  ...+.@.#.$.%.&.*.=.-.+ + + ",
";.>.,.'.).!.~.{.].^./.(._.:.<.[.}.|.1.2.3.4.5.6.7.8.9.+ + ",
"0.a.b.c.^.d.e.f.2.{.^.].g.h.i.j.k.l.@.m.n.| o.p.q.r.-.+ + ",
"s.t.u.v.w.1.x.|.y.z.A.B.C.D.|.x.x.k.j.E.F.G.H.I.J.r K.+ + ",
"L.M.N.O.k P.Q.I |.|.@.l.|.x.Q.l.R.S.T.U.V.W.X.Y.Z.q + + + ",
"`. +.+++@+w.1.#+|.R.Q.x.Q.l.$+x.x.j.%+~.&+*+=+-+N + + + + ",
";+>+,+'+~.)+m.!+~+{+@.{+]+^.U x.x.^+/+(+_+:+<++ [++ + + + ",
"}+|+1+2+3+4+~.e.~+5+6+7+~+^+7+{+^.8+9+0+a+b+c+d+e+f+g++ + ",
". h+i+j+k+l+m+n+H {+@.#+~+7+|.|.]+o+p+q+r+s+t+u+v+w+x++ + ",
"+ + + y+z+A+B+C+O.^.^.]+1.j.S.k.#+P.D+E+F+G+H+I+J+K+L++ & ",
"+ + + M+N+O+P+Q+R+z.^+@.I+k.S+|.^.z.{.T+U+Q.V+W+X+k Y+Z+@ ",
"`+ @ @.@+@@@#@$@n+P.%@@.|.j.Q.#+!+&@H *@P.&@w.T+=@-@;@>@# ",
",@'@)@!@~@{@]@^@f.^+|.^+7+{+^.e./@w.m.&@P.z.4+(@k W+_@:@<@",
"[@}@|@1@2@3@4@F.^.x.Q.5@~+@.6@z.m.7@k 8+!+^+8@7@9@0@a@b@% ",
"c@d@e@f@g@T+m.~+Q.l.k.h@7+1.4+7@k i@j@7@(@%+P.G.o.k@l@m@@ ",
"n@o@p@q@r@8+e.s@l.Q.5+k.|.e.t@u@v@w@x@y@8+z.z@A@B@C@D@E@F@",
"G@H@I@J@K@L@2.P.@.~+#+j.@.M@N@O@).V+P@7@/+7@Q@R@S@T@+ + + ",
"U@V@W@X@Y@Z@`@ #5@1.%@P.T .#+#@###$#%#/@F &#*#=#-#;#+ + + ",
"+ >#,#'#)#!#~#{#P.z.~+].]#^#/#(#_#-+:#<#[#}#|#1#2#+ + + + ",
"+ + 3#4# @5#6#7#M@&@8#Q@9#0#!@a#b#c#d#e#6+m.f#g#h#+ + + + ",
"+ + + * 3#i#j#k#l#4@m#n#o#p#q#r#s#t#u#v#w#x#y#z#F@+ + + + ",
"+ + + + + A#B#C#D#E#F#G#H#I#J#K#L#M#N#+ O#P#Q#+ + R#+ + + ",
"+ + + + + 3#S#T#U#V#W#X#Y#Z#`# $.$+$@$+ #$w++ + + + + + + ",
"+ + + + + + `+$$%$&$*$=$-$;$>$,$3@'$)$f+!$g++ + + + + + + ",
"+ + + + + + + + + ~${${$3#+ + ]$^$K#/$($_$:$* + + + + + + ",
"+ + + + + + + + + + + + + + <$[$}$|$1$;$2$3$4$+ + + + + + ",
"+ + + + + + + + + + + + + + 5$6$6+7$8$9$: 0$a$+ + + + + + ",
"+ + + + + + + + + + + + + + ;#b$c$d$e$f+r f$+ + + + + + + ",
"+ + + + + + + + + + + + + + + g$h$i$j$+ + P + + + + + + + ",
"+ + + + + + + + + + + + + + k$|$l$m$+ + n$+ + + + + + + + ",
"+ + + + + + + + + + + + + f+o$p$q$r$+ + + + + + + + + + + ",
"+ + + + + + + + s$+ + + + t$u$v$w$x$+ + + + + + + + + + + ",
"+ + + + + + + s$+ + + + + y$z$A$B$4$+ + + + + + + + + + + ",
"+ + + + + + + + + + + d#5$C$D$E$F$9$+ + + + + + + + + + + ",
"+ + + + + + + + + + * + G$H$I$J$K$+ + + + + + + + + + + + ",
"+ + + + + + + + + + + @ L$M$N$O$# F@+ + + + + + + + + + + "};
