/* XPM */
static const char * eraser2_reverse[] = {
"37 37 7 1",
" 	c None",
".	c #606060",
"+	c #A5A5A5",
"@	c #000000",
"#	c #CECECE",
"$	c #7C7C7C",
"%	c #FFFFFF",
"....................................+",
".@@@@@@@@@@@@@@@@@@@@@@@@@@@@@@@@@@@#",
".@$$$$$$$$$$$$$$$$$$$$$$$$$$$$$$$$$@#",
".@$$$$$$$$$$$$$$$$$$$$$$$$$$$$$$$$$@#",
".@$$$$$$$$$$$$$$$$$$$$$$$$$$$$$$$$$@#",
".@$$$$$$$$$$$$$$$$$$$$$$$$$$$$$$$$$@#",
".@$$$$$$$$$$$$$$$$$$$$$$$$$$$$$$$$$@#",
".@$$$$$$$$$$$$$$$$$$$$$$$$$$$$$$$$$@#",
".@$$$$$$$$$$$$$$$$$$$$$$$$$$$$$$$$$@#",
".@$$$$$$$$$$$$$########$$$$$$$$$$$$@#",
".@$$$$$$$$$$$##%%%%%%%%##$$$$$$$$$$@#",
".@$$$$$$$$$$#%%%%%%%%%%%%#$$$$$$$$$@#",
".@$$$$$$$$$#%%%%%%%%%%%%%%#$$$$$$$$@#",
".@$$$$$$$$#%%%%%%%%%%%%%%%%#$$$$$$$@#",
".@$$$$$$$$#%%%%%%%%%%%%%%%%%#$$$$$$@#",
".@$$$$$$$#%%%%%%%%%%%%%%%%%%%#$$$$$@#",
".@$$$$$$$#%%%%%%%%%%%%%##%%%%%#$$$$@#",
".@$$$$$$$#%%%%%%%%%%%%%%%#%%%%%#$$$@#",
".@$$$$$$$#%%%%%%%%%%%%%%%%#%%%%%#$$@#",
".@$$$$$$#%%%%%%%%%%%%%%%%%%#%%%%#$$@#",
".@$$$$$#%%%%%%%%%%%%%%%%%%%#%%%%#$$@#",
".@$$$$#%%%%%%%%%%%%%%%%%%%%%%%%%#$$@#",
".@$$$$#%%%%%%%%%%%%%%%%%%%%%%%%%#$$@#",
".@$$$$#%%%%%%%%%%%%%%%%%%%%%%%%%#$$@#",
".@$$$$#%%%%%%%%%%%%%%%%%%%%%%%%#$$$@#",
".@$$$$#%%%%%%%%%%%%%%%%%%%%%%%#$$$$@#",
".@$$$$#%%%%%%%%%%%%%%%%%######$$$$$@#",
".@$$$$$##%%%%%%%%%%%%###$$$$$$$$$$$@#",
".@$$$$$$$##%%%%%%####$$$$$$$$$$$$$$@#",
".@$$$$$$$$$#######$$$$$$$$$$$$$$$$$@#",
".@$##$$$$$$$$$$$$$$$$$$$$$$$$$$$$$$@#",
".@$###########$$$$$$$$$$$$$$$$$$$$$@#",
".@$$#########$$$$$$$$$$$$$$$$$$$$$$@#",
".@$$#######$$$$$$$$$$$$$$$$$$$$$$$$@#",
".@$$$$$$$$$$$$$$$$$$$$$$$$$$$$$$$$$@#",
".@@@@@@@@@@@@@@@@@@@@@@@@@@@@@@@@@@@#",
"+####################################"};
