/* XPM */
static char * eraserimage_xpm[] = {
"56 56 5 1",
" 	c None",
".	c #000000",
"+	c #FFFFFF",
"@	c #8B8D8B",
"#	c #333333",
"........................................................",
"........................................................",
"..++++++++++++++++++++++++++++++++++++++++++++++++++++..",
"..++++++++++++++++++++++++++++++++++++++++++++++++++++..",
"..++++++++++++++++++..............................++++..",
"..+++++++++++++++++................................+++..",
"..+++++++++++++++++..+++++++++++++++++++++@@+++++...++..",
"..++++++++++++++++..+++++++++++++++++++++@@+++++....++..",
"..++++++++++++++++..+++++++++++++++++++++@@+++++....++..",
"..+++++++++++++++..+++++++++++++++++++++@@+++++..+..++..",
"..+++++++++++++++..+++++++++++++++++++++@@+++++..+..++..",
"..++++++++++++++..+++++++++++++++++++++@@+++++..++..++..",
"..++++++++++++++..+++++++++++++++++++++@@+++++..++..++..",
"..+++++++++++++..+++++++++++++++++++++@@+++++..+++..++..",
"..+++++++++++++..+++++++++++++++++++++@@+++++..+++..++..",
"..++++++++++++..+++++++++++++++++++++@@+++++..++++..++..",
"..++++++++++++..+++++++++++++++++++++@@+++++..++++..++..",
"..+++++++++++..+++++++++++++++++++++@@+++++..+++++..++..",
"..+++++++++++..+++++++++++++++++++++@@+++++..++++@..++..",
"..++++++++++..+++++++++++++++++++++@@+++++..+++++@..++..",
"..++++++++++..+++++++++++++++++++++@@+++++..++++@..+++..",
"..+++++++++..+++++++++++++++++++++@@+++++..+++++@..+++..",
"..+++++++++..+++++++++++++++++++++@@+++++..++++@..++++..",
"..++++++++..+++++++++++++++++++++@@+++++..+++++@..++++..",
"..++++++++..+++++++++++++++++++++@@+++++..++++@..+++++..",
"..+++++++..+++++++++++++++++++++@@+++++..+++++@..+++++..",
"..+++++++..+++++++++++++++++++++@@+++++..++++@..++++++..",
"..++++++.#+++++++++++++++++++++@@+++++..+++++@..++++++..",
"..++++++................................++++@..+++++++..",
"..++++++................................++++@..+++++++..",
"..++++++.@@@@@@@@@@@@@@@@@@@@@@@@@@@@@..+++@..++++++++..",
"..++++++@@++++++++++++++++++++++++++@@..+++@..++++++++..",
"..++++++@@++++++++++++++++++++++++++@@..++@..+++++++++..",
"..+++++@@++++++++++++++++++++++++++@@@..++@..+++++++++..",
"..+++++@@++++++++++++++++++++++++++@@@..+@..++++++++++..",
"..++++@@++++++++++++++++++++++++++@@+@..+@..++++++++++..",
"..++++@@++++++++++++++++++++++++++@@+@..@..+++++++++++..",
"..+++@@++++++++++++++++++++++++++@@++@..@..+++++++++++..",
"..+++@@++++++++++++++++++++++++++@@++@....++++++++++++..",
"..++@@++++++++++++++++++++++++++@@+++@....++++++++++++..",
"..++@@@@@@@@@@@@@@@@@@@@@@@@@@@@@@+++@...+++++++++++++..",
"..++@@@@@@@@@@@@@@@@@@@@@@@@@@@@@@+++@...+++++++++++++..",
"..++@@++++++++++++++++++++++++++@@+++@..++++++++++++++..",
"..++@@++++++++++++++++++++++++++@@+++@..++++++++++++++..",
"..++@@++++++++++++++++++++++++++@@++@@.+++++++++++++++..",
"..++@@++++++++++++++++++++++++++@@++@@.+++++++++++++++..",
"..++@@++++++++++++++++++++++++++@@+@@+++++++++++++++++..",
"..++@@++++++++++++++++++++++++++@@+@@+++++++++++++++++..",
"..++@@++++++++++++++++++++++++++@@@@++++++++++++++++++..",
"..++@@++++++++++++++++++++++++++@@@@++++++++++++++++++..",
"..+++@@@@@@@@@@@@@@@@@@@@@@@@@@@@@++++++++++++++++++++..",
"..++++@@@@@@@@@@@@@@@@@@@@@@@@@@++++++++++++++++++++++..",
"..++++++++++++++++++++++++++++++++++++++++++++++++++++..",
"..++++++++++++++++++++++++++++++++++++++++++++++++++++..",
"........................................................",
"........................................................"};
