/* XPM */
static char *eraser[] = {
/* columns rows colors chars-per-pixel */
"64 64 3 1",
"  c black",
"X c #8b8d8b",
"o c white",
/* pixels */
"XXXXXXXXXXXXXXXXXXXXXXXXXXXXXXXXXXXXXXXXXXXXXXXXXXXXXXXXXXXXXXXX",
"XXXXXXXXXXXXXXXXXXXXXXXXXXXXXXXXXXXXXXXXXXXXXXXXXXXXXXXXXXXXXXXX",
"XXXXXXXXXXXXXXXXXXXXXXXXXXXXXXXXXXXXXXXXXXXXXXXXXXXXXXXXXXXXXXXX",
"XXXXXXXXXXXXXXXXXXXXXXXXXXXXXXXXXXXXXXXXXXXXXXXXXXXXXXXXXXXXXXXX",
"XXXX                                                        XXXX",
"XXXX                                                        XXXX",
"XXXX  oooooooooooooooooooooooooooooooooooooooooooooooooooo  XXXX",
"XXXX  oooooooooooooooooooooooooooooooooooooooooooooooooooo  XXXX",
"XXXX  oooooooooooooooooo                              oooo  XXXX",
"XXXX  ooooooooooooooooo                                ooo  XXXX",
"XXXX  ooooooooooooooooo  oooooooooooooooooooooXXooooo   oo  XXXX",
"XXXX  oooooooooooooooo  oooooooooooooooooooooXXooooo    oo  XXXX",
"XXXX  oooooooooooooooo  oooooooooooooooooooooXXooooo    oo  XXXX",
"XXXX  ooooooooooooooo  oooooooooooooooooooooXXooooo  o  oo  XXXX",
"XXXX  ooooooooooooooo  oooooooooooooooooooooXXooooo  o  oo  XXXX",
"XXXX  oooooooooooooo  oooooooooooooooooooooXXooooo  oo  oo  XXXX",
"XXXX  oooooooooooooo  oooooooooooooooooooooXXooooo  oo  oo  XXXX",
"XXXX  ooooooooooooo  oooooooooooooooooooooXXooooo  ooo  oo  XXXX",
"XXXX  ooooooooooooo  oooooooooooooooooooooXXooooo  ooo  oo  XXXX",
"XXXX  oooooooooooo  oooooooooooooooooooooXXooooo  oooo  oo  XXXX",
"XXXX  oooooooooooo  oooooooooooooooooooooXXooooo  oooo  oo  XXXX",
"XXXX  ooooooooooo  oooooooooooooooooooooXXooooo  ooooo  oo  XXXX",
"XXXX  ooooooooooo  oooooooooooooooooooooXXooooo  ooooX  oo  XXXX",
"XXXX  oooooooooo  oooooooooooooooooooooXXooooo  oooooX  oo  XXXX",
"XXXX  oooooooooo  oooooooooooooooooooooXXooooo  ooooX  ooo  XXXX",
"XXXX  ooooooooo  oooooooooooooooooooooXXooooo  oooooX  ooo  XXXX",
"XXXX  ooooooooo  oooooooooooooooooooooXXooooo  ooooX  oooo  XXXX",
"XXXX  oooooooo  oooooooooooooooooooooXXooooo  oooooX  oooo  XXXX",
"XXXX  oooooooo  oooooooooooooooooooooXXooooo  ooooX  ooooo  XXXX",
"XXXX  ooooooo  oooooooooooooooooooooXXooooo  oooooX  ooooo  XXXX",
"XXXX  ooooooo  oooooooooooooooooooooXXooooo  ooooX  oooooo  XXXX",
"XXXX  oooooo  oooooooooooooooooooooXXooooo  oooooX  oooooo  XXXX",
"XXXX  oooooo                                ooooX  ooooooo  XXXX",
"XXXX  oooooo                                ooooX  ooooooo  XXXX",
"XXXX  oooooo XXXXXXXXXXXXXXXXXXXXXXXXXXXXX  oooX  oooooooo  XXXX",
"XXXX  ooooooXXooooooooooooooooooooooooooXX  oooX  oooooooo  XXXX",
"XXXX  ooooooXXooooooooooooooooooooooooooXX  ooX  ooooooooo  XXXX",
"XXXX  oooooXXooooooooooooooooooooooooooXXX  ooX  ooooooooo  XXXX",
"XXXX  oooooXXooooooooooooooooooooooooooXXX  oX  oooooooooo  XXXX",
"XXXX  ooooXXooooooooooooooooooooooooooXXoX  oX  oooooooooo  XXXX",
"XXXX  ooooXXooooooooooooooooooooooooooXXoX  X  ooooooooooo  XXXX",
"XXXX  oooXXooooooooooooooooooooooooooXXooX  X  ooooooooooo  XXXX",
"XXXX  oooXXooooooooooooooooooooooooooXXooX    oooooooooooo  XXXX",
"XXXX  ooXXooooooooooooooooooooooooooXXoooX    oooooooooooo  XXXX",
"XXXX  ooXXXXXXXXXXXXXXXXXXXXXXXXXXXXXXoooX   ooooooooooooo  XXXX",
"XXXX  ooXXXXXXXXXXXXXXXXXXXXXXXXXXXXXXoooX   ooooooooooooo  XXXX",
"XXXX  ooXXooooooooooooooooooooooooooXXoooX  oooooooooooooo  XXXX",
"XXXX  ooXXooooooooooooooooooooooooooXXoooX  oooooooooooooo  XXXX",
"XXXX  ooXXooooooooooooooooooooooooooXXooXX ooooooooooooooo  XXXX",
"XXXX  ooXXooooooooooooooooooooooooooXXooXX ooooooooooooooo  XXXX",
"XXXX  ooXXooooooooooooooooooooooooooXXoXXooooooooooooooooo  XXXX",
"XXXX  ooXXooooooooooooooooooooooooooXXoXXooooooooooooooooo  XXXX",
"XXXX  ooXXooooooooooooooooooooooooooXXXXoooooooooooooooooo  XXXX",
"XXXX  ooXXooooooooooooooooooooooooooXXXXoooooooooooooooooo  XXXX",
"XXXX  oooXXXXXXXXXXXXXXXXXXXXXXXXXXXXXoooooooooooooooooooo  XXXX",
"XXXX  ooooXXXXXXXXXXXXXXXXXXXXXXXXXXoooooooooooooooooooooo  XXXX",
"XXXX  oooooooooooooooooooooooooooooooooooooooooooooooooooo  XXXX",
"XXXX  oooooooooooooooooooooooooooooooooooooooooooooooooooo  XXXX",
"XXXX                                                        XXXX",
"XXXX                                                        XXXX",
"XXXXXXXXXXXXXXXXXXXXXXXXXXXXXXXXXXXXXXXXXXXXXXXXXXXXXXXXXXXXXXXX",
"XXXXXXXXXXXXXXXXXXXXXXXXXXXXXXXXXXXXXXXXXXXXXXXXXXXXXXXXXXXXXXXX",
"XXXXXXXXXXXXXXXXXXXXXXXXXXXXXXXXXXXXXXXXXXXXXXXXXXXXXXXXXXXXXXXX",
"XXXXXXXXXXXXXXXXXXXXXXXXXXXXXXXXXXXXXXXXXXXXXXXXXXXXXXXXXXXXXXXX"
};
