/* XPM */
static const char * fill_normal[] = {
"37 37 8 1",
" 	c None",
".	c #CECECE",
"+	c #A5A5A5",
"@	c #000000",
"#	c #606060",
"$	c #9B9B9B",
"%	c #FFFFFF",
"&	c #D6D6D6",
"....................................+",
".@@@@@@@@@@@@@@@@@@@@@@@@@@@@@@@@@@@#",
".@$$$$$$$$$$$$$$$$$$$$$$$$$$$$$$$$$@#",
".@$$$$$$$$$$$$$$$$%%%$$$$$$$$$$$$$$@#",
".@$$$$$$$$$$$$$$$%$$$%$$$$$$$$$$$$$@#",
".@$$$$$$$$$$$$$$%$$$$%$$$$$$$$$$$$$@#",
".@$$$$$$$$$$$$$%$$$$$%$$$$$$$$$$$$$@#",
".@$$$$$$$$$$$$%$$$$$$%$$$$$$$$$$$$$@#",
".@$$$$$$$$$$$%$$$$$$$%$$$$$$$$$$$$$@#",
".@$$$$$$$$$$%$$$@@$$$%$$$$$$$$$$$$$@#",
".@$$$$$$$$$$%$$@&&@$$%$$$$$$$$$$$$$@#",
".@$$$$$$$$$$%$@&&&&@$%$$$$$$$$$$$$$@#",
".@$$$$$$$$$$%@&&&&&&@%$$$$$$$$$$$$$@#",
".@$$$$$$$$$$@&&&&&&&&%$$$$$$$$$$$$$@#",
".@$$$$$$$$$@&&&&&&&&&%@$$$$$$$$$$$$@#",
".@$$$$$$$$@&&&&&&&&&&%&@$$$$$$$$$$$@#",
".@$$$$$$$@&&&&&&&&&&&%&&@$$$$$$$$$$@#",
".@$$$$$$@&&&&&&&&&&&$&&&&@@@@@$$$$$@#",
".@$$$$$@&&&&&&&&&&&&&&&&&&@@@@@$$$$@#",
".@$$$$@&&&&&&&&&&&&&&&&&&&&@@@@@$$$@#",
".@$$$@&&&&&&&&&&&&&&&&&&&&&&@@@@$$$@#",
".@$$@&&&&&&&&&&&&&&&&&&&&&&&@@@@$$$@#",
".@$$@&&&&&&&&&&&&&&&&&&&&&&@@@@@$$$@#",
".@$$$@&&&&&&&&&&&&&&&&&&&&@$@@@$$$$@#",
".@$$$$@&&&&&&&&&&&&&&&&&&@$$@@@$$$$@#",
".@$$$$$@&&&&&&&&&&&&&&&&@$$$@@@$$$$@#",
".@$$$$$$@&&&&&&&&&&&&&&@$$$$@@@$$$$@#",
".@$$$$$$$@&&&&&&&&&&&&@$$$$$@@$$$$$@#",
".@$$$$$$$$@&&&&&&&&&&@$$$$$$@@$$$$$@#",
".@$$$$$$$$$@&&&&&&&&@$$$$$$$@$$$$$$@#",
".@$$$$$$$$$$@&&&&&&@$$$$$$$$@$$$$$$@#",
".@$$$$$$$$$$$@&&&&@$$$$$$$$$@$$$$$$@#",
".@$$$$$$$$$$$$@&&@$$$$$$$$$$$$$$$$$@#",
".@$$$$$$$$$$$$$@@$$$$$$$$$$$$$$$$$$@#",
".@$$$$$$$$$$$$$$$$$$$$$$$$$$$$$$$$$@#",
".@@@@@@@@@@@@@@@@@@@@@@@@@@@@@@@@@@@#",
"+####################################"};
