/* XPM */
static char * layer_free_xpm[] = {
"15 29 6 1",
" 	c None",
".	c #CECECE",
"+	c #9B9B9B",
"@	c #000000",
"#	c #FFFFFF",
"$	c #606060",
"...............",
"+++++++++++++++",
"+++++++++++++++",
"+++++++++++++++",
"+++++++++++++++",
"+++++++++++++++",
"+++++++++++++++",
"+++++++++++++++",
"@@@@@@@@@@@@@@@",
"@+++++++######@",
"@+++++++######@",
"@+++++++######@",
"@+++++++######@",
"@+++++++######@",
"@+++++++######@",
"@++++++.++++++@",
"@######+++++++@",
"@######+++++++@",
"@######+++++++@",
"@######+++++++@",
"@######+++++++@",
"@######+++++++@",
"@@@@@@@@@@@@@@@",
"+++++++++++++++",
"+++++++++++++++",
"+++++++++++++++",
"+++++++++++++++",
"+++++++++++++++",
"$$$$$$$$$$$$$$$"};
