/* XPM */
static const char * layer_bottom_normal[] = {
"148 45 8 1",
" 	c None",
".	c #000000",
"+	c #9B9B9B",
"@	c #CECECE",
"#	c #A5A5A5",
"$	c #606060",
"%	c #FFFFFF",
"&	c #1B1B1B",
".+++++++++++++++++++++++++++++++++++++++++++++++++++++++++++++++++++++++++++++++++++++++++++++++++++++++++++++++++++++++++++++++++++++++++++++++++..",
".++++++++++++++++++++++++++++++++++++++++++++++++++++++++++++++++++++++++++++++++++++++++++++++++++++++++++++++++++++++@++++++++++++++++++++++++++..",
".++@@@@@@@@@@@@@@@@@@#+++@@@@@@@@@@@@@@@@@@#+++@@@@@@@@@@@@@@@@@@#+++@@@@@@@@@@@@@@@@@@#++@@@@@@@@@@@@@@@@@@#+++++++++@.@+++++++++++++++++++++++++..",
".++@.................$+++@.................$+++@.................$+++@.................$++@.................$++++++++@.+.@++++++++++@@@@@@@@@@#+++..",
".++@.+++++++++++++++.$+++@.+++++++++++++++.$+++@.+++++++++++++++.$+++@.+++++++++++++++.$++@.+++++++++++++++.$+++++++@.+++.@+++++++++@.........$+++..",
".++@.++++.........++.$+++@.+++.......+++++.$+++@.+++++++......++.$+++@.++++++...++++++.$++@.++++++...++++++.$++++++@.+++++.@++++++++@.+++++++.$+++..",
".++@.+++.%.%%%%%%.++.$+++@.++.%.%%%%.+++++.$+++@.+++++++.%%%%.++.$+++@.++++++.+.++++++.$++@.+++...%%%...+++.$+++++@.+++++++.@+++++++@.+++++++.$+++..",
".++@.++.%%.%%%%%%.++.$+++@.+.%%.%%%%.....+.$+++@.+++++++.%%%%.++.$+++@.++++++...++++++.$++@.++.%%%%%%%%%.++.$++++@.+++++++++.@++++++@.+++++++.$+++..",
".++@.++....%%%%%%.++.$+++@.+....%%%%.%%%.+.$+++@.++++..+.%%%%.++.$+++@.+++++++.+++++++.$++@.++...........++.$+++@.+++++++++++.$+++++@.+++++++.$+++..",
".++@.++.%%%%%%%%%.++.$+++@.+.%%%%%%%.%%%.+.$+++@.+++.%.%......++.$+++@.+++++++.+++++++.$++@.+++.%.%.%.%.+++.$+++@.+++++++++++.$+++@...+++++++...$+..",
".++@.++.%%%%%%%%%.++.$+++@.+.%%%%%%%.%%%.+.$+++@.++.%%.%@%%%%@++.$+++@.+++++++.+++++++.$++@.+++.%.%.%.%.+++.$+++@.+++++++++++.$+++@.+++++++++++.$+..",
".++@.++.%%%%%%%%%.++.$+++@.+.%%%%%%%.%%%.+.$+++@.++....%@@@@@@++.$+++@.++.++++.++++.++.$++@.+++.%.%.%.%.+++.$+++@...+++++++...$+++@.+++++++++++.$+..",
".++@.++.%%%%%%%%%.++.$+++@.+.%%%%%%%.%%%.+.$+++@.++.%%%%%%++++++.$+++@.++.++++.++++.++.$++@.+++.%.%.%.%.+++.$+++++@.+++++++.$+++++@.+++++++++++.$+..",
".++@.++.%%%%%%%%%.++.$+++@.+.%%%%%%%.%%%.+.$+++@.++.%%%%%%.+++++.$+++@.++..+++.+++..++.$++@.+++.%.%.%.%.+++.$+++++@.+++++++.$++++++$.+++++++++.$++..",
".++@.++.%%%%%%%%%.++.$+++@.+.........%%%.+.$+++@.++.%%%%%%.+++++.$+++@.++..+++.+++..++.$++@.+++.%.%.%.%.+++.$+++++@.+++++++.$+++++++$.+++++++.$+++..",
".++@.++.%%%%%%%%%.++.$+++@.++++.%%%%%%%%.+.$+++@.++.%%%%%%.+++++.$+++@.+++..++.++..+++.$++@.+++.%.%.%.%.+++.$+++++@.+++++++.$++++++++$.+++++.$++++..",
".++@.++.%%%%%%%%%.++.$+++@.++++.%%%%%%%%.+.$+++@.++.%%%%%%.+++++.$+++@.+++.........+++.$++@.+++.%.%.%.%.+++.$+++++@.........$+++++++++$.+++.$+++++..",
".++@.++...........++.$+++@.++++..........+.$+++@.++........+++++.$+++@.+++++.....+++++.$++@.++++.......++++.$++++++$$$$$$$$$$++++++++++$.+.$++++++..",
".++@.+++++++++++++++.$+++@.+++++++++++++++.$+++@.+++++++++++++++.$+++@.+++++++++++++++.$++@.+++++++++++++++.$+++++++++++++++++++++++++++$.$+++++++..",
".++@.................$+++@.................$+++@.................$+++@.................$++@.................$++++++++++++++++++++++++++++$++++++++..",
".++#$$$$$$$$$$$$$$$$$$+++#$$$$$$$$$$$$$$$$$$+++#$$$$$$$$$$$$$$$$$$+++#$$$$$$$$$$$$$$$$$$++#$$$$$$$$$$$$$$$$$$+++++++++++++++++++++++++++++++++++++..",
".+++++++++++++++++++++++++++++++++++++++++++++++++++++++++++++++++++++++++++++++++++++++++++++++++++++++++++++++++++++++++++++++++++++++++++++++++..",
".+++++++++++++++++++++++++++++++++++++++++++++++++++++++++++++++++++++++++++++++++++++++++++++++++++++++++++++++++++++++++++++++++++++++++++++++++..",
".++++++++++++++++++++++++..+++++++++++++++++++++++++++++++++++++++++++++++++++++++++++++++++++++++++++++++++++++++++++++++++++++++++++++++++++++++..",
".+++++++++++++++++++++++.++.+++++++++++++++++++.+++++++++++++++++++++++++++++++++++++++++++++++++++++++++++++++++++++.+++.++++++++++++++++++++++++..",
".+++++++@@@@@@@@@#+++++.++++.++++++++++++++++++.++++++++++++++++++++++++++++++++++++++++++++++++++++++++++++++++++++.+.+.++++++++@@@@@@@@@@+++++++..",
".++++++@.........$+++++.++++.+.+.++...+++..++....+.+++.+++++++++++++++++++++++++++++++++++++++++++++++++++++++++++++.+.+.++++++++@.........@++++++..",
".+++++@.++++++++.$+++++.++++.+..+.++++.+.++.+.+.+++.+.+++++++++++++++++++++++++++++++++++++++++++++++++++++++++++++++.+.+++++++++@.++++++++.@+++++..",
".++++@.+++++++++.$+++++.++++.+.++.++...+.++++.+.+++.+.+++++++++++++++++++++++++++++++++++++++++++++++++++++++++++++++++.+.+++++++@.+++++++++.@++++..",
".+++@.++++++++++.$+++++.++++.+.++.+.++.+.++++.+.+++.+.++++++++++++++++++++++++++++++++++++++++++++++++++++++++++++++++.+.+.++++++@.++++++++++.@+++..",
".++@.+++++++++++.$++++++.++.++..+.+.++.+.++.+.+.++++.+++++++++++++++++++++++++++++++++++++++++++++++++++++++++++++++++.+.+.++++++@.+++++++++++.@++..",
".+@.++++++++++++.$+++++++..+++.+.+++...++..++.+..+++.++++++++++++++++++++++++++++++++++++++++++++++++++++++++++++++++.+++.+++++++@.++++++++++++.@+..",
".+.+++++++++++++.$++++++++++++.++++++++++++++++++++.+++++++++++++++++++++++++++++++++++++++++++++++++++++++++++++++++++++++++++++@.+++++++++++++.+..",
".+.+++++++++++++.$+++++...................................................................................................&++++++@.+++++++++++++.+..",
".+$.++++++++++++.$+++++++++++++++++++++++++++++++++++++++++++++++++++++++++++++++++++++++++++++++++++++++++++++++++++++++++++++++@.++++++++++++.$+..",
".++$.+++++++++++.$+++++++++++++++++++++++++++++++++++++++++++++++++++++++++++++++++++++++++++++++++++++++++++++++++++++++++++++++@.+++++++++++.$++..",
".+++$.++++++++++.$+++++++++++++++++++++++++++++++++++++++++++++++++++++++++++++++++++++++++++++++++++++++++++++++++++++++++++++++@.++++++++++.$+++..",
".++++$.+++++++++.$+++++++++++++++++++++++++++++++++++++++++++++++++++++++++++++++++++++++++++++++++++++++++++++++++++++++++++++++@.+++++++++.$++++..",
".+++++$.++++++++.$+++++++++++++++++++++++++++++++++++++++++++++++++++++++++++++++++++++++++++++++++++++++++++++++++++++++++++++++@.++++++++.$+++++..",
".++++++$.........$+++++++++++++++++++++++++++++++++++++++++++++++++++++++++++++++++++++++++++++++++++++++++++++++++++++++++++++++@.........$++++++..",
".+++++++$$$$$$$$$$+++++++++++++++++++++++++++++++++++++++++++++++++++++++++++++++++++++++++++++++++++++++++++++++++++++++++++++++#$$$$$$$$$+++++++..",
".+++++++++++++++++++++++++++++++++++++++++++++++++++++++++++++++++++++++++++++++++++++++++++++++++++++++++++++++++++++++++++++++++++++++++++++++++..",
".+++++++++++++++++++++++++++++++++++++++++++++++++++++++++++++++++++++++++++++++++++++++++++++++++++++++++++++++++++++++++++++++++++++++++++++++++..",
"%...................................................................................................................................................",
"%%.................................................................................................................................................%"};
