/* XPM */
static const char * layer_bottom_reverse[] = {
"148 45 9 1",
" 	c None",
".	c #000000",
"+	c #9B9B9B",
"@	c #606060",
"#	c #A5A5A5",
"$	c #CECECE",
"%	c #7C7C7C",
"&	c #FFFFFF",
"*	c #1B1B1B",
".+++++++++++++++++++++++++++++++++++++++++++++++++++++++++++++++++++++++++++++++++++++++++++++++++++++++++++++++++++++++++++++++++++++++++++++++++..",
".++++++++++++++++++++++++++++++++++++++++++++++++++++++++++++++++++++++++++++++++++++++++++++++++++++++++++++++++++++++@++++++++++++++++++++++++++..",
".++@@@@@@@@@@@@@@@@@@#+++@@@@@@@@@@@@@@@@@@#+++@@@@@@@@@@@@@@@@@@#+++@@@@@@@@@@@@@@@@@@#++@@@@@@@@@@@@@@@@@@#+++++++++@.@+++++++++++++++++++++++++..",
".++@.................$+++@.................$+++@.................$+++@.................$++@.................$++++++++@.%.@++++++++++@@@@@@@@@@#+++..",
".++@.%%%%%%%%%%%%%%%.$+++@.%%%%%%%%%%%%%%%.$+++@.%%%%%%%%%%%%%%%.$+++@.%%%%%%%%%%%%%%%.$++@.%%%%%%%%%%%%%%%.$+++++++@.%%%.@+++++++++@.........@+++..",
".++@.%%%%.........%%.$+++@.%%%.......%%%%%.$+++@.%%%%%%%......%%.$+++@.%%%%%%...%%%%%%.$++@.%%%%%%...%%%%%%.$++++++@.%%%%%.@++++++++@.%%%%%%%.@+++..",
".++@.%%%.&.&&&&&&.%%.$+++@.%%.&.&&&&.%%%%%.$+++@.%%%%%%%.&&&&.%%.$+++@.%%%%%%.+.%%%%%%.$++@.%%%...&&&...%%%.$+++++@.%%%%%%%.@+++++++@.%%%%%%%.@+++..",
".++@.%%.&&.&&&&&&.%%.$+++@.%.&&.&&&&.....%.$+++@.%%%%%%%.&&&&.%%.$+++@.%%%%%%...%%%%%%.$++@.%%.&&&&&&&&&.%%.$++++@.%%%%%%%%%.@++++++@.%%%%%%%.@+++..",
".++@.%%....&&&&&&.%%.$+++@.%....&&&&.&&&.%.$+++@.%%%%..%.&&&&.%%.$+++@.%%%%%%%.%%%%%%%.$++@.%%...........%%.$+++@.%%%%%%%%%%%.$+++++@.%%%%%%%.@+++..",
".++@.%%.&&&&&&&&&.%%.$+++@.%.&&&&&&&.&&&.%.$+++@.%%%.&.&......%%.$+++@.%%%%%%%.%%%%%%%.$++@.%%%.&.&.&.&.%%%.$+++@.%%%%%%%%%%%.$+++@...%%%%%%%...$+..",
".++@.%%.&&&&&&&&&.%%.$+++@.%.&&&&&&&.&&&.%.$+++@.%%.&&.&$&&&&$%%.$+++@.%%%%%%%.%%%%%%%.$++@.%%%.&.&.&.&.%%%.$+++@.%%%%%%%%%%%.$+++@.%%%%%%%%%%%.$+..",
".++@.%%.&&&&&&&&&.%%.$+++@.%.&&&&&&&.&&&.%.$+++@.%%....&$$$$$$%%.$+++@.%%.%%%%.%%%%.%%.$++@.%%%.&.&.&.&.%%%.$+++@...%%%%%%%...$+++@.%%%%%%%%%%%.$+..",
".++@.%%.&&&&&&&&&.%%.$+++@.%.&&&&&&&.&&&.%.$+++@.%%.&&&&&&%%%%%%.$+++@.%%.%%%%.%%%%.%%.$++@.%%%.&.&.&.&.%%%.$+++++@.%%%%%%%.$+++++@.%%%%%%%%%%%.$+..",
".++@.%%.&&&&&&&&&.%%.$+++@.%.&&&&&&&.&&&.%.$+++@.%%.&&&&&&.%%%%%.$+++@.%%..%%%.%%%..%%.$++@.%%%.&.&.&.&.%%%.$+++++@.%%%%%%%.$++++++$.%%%%%%%%%.$++..",
".++@.%%.&&&&&&&&&.%%.$+++@.%.........&&&.%.$+++@.%%.&&&&&&.%%%%%.$+++@.%%..%%%.%%%..%%.$++@.%%%.&.&.&.&.%%%.$+++++@.%%%%%%%.$+++++++$.%%%%%%%.$+++..",
".++@.%%.&&&&&&&&&.%%.$+++@.%%%%.&&&&&&&&.%.$+++@.%%.&&&&&&.%%%%%.$+++@.%%%..%%.%%..%%%.$++@.%%%.&.&.&.&.%%%.$+++++@.%%%%%%%.$++++++++$.%%%%%.$++++..",
".++@.%%.&&&&&&&&&.%%.$+++@.%%%%.&&&&&&&&.%.$+++@.%%.&&&&&&.%%%%%.$+++@.%%%.........%%%.$++@.%%%.&.&.&.&.%%%.$+++++@.........$+++++++++$.%%%.$+++++..",
".++@.%%...........%%.$+++@.%%%%..........%.$+++@.%%........%%%%%.$+++@.%%%%%.....%%%%%.$++@.%%%%.......%%%%.$++++++$$$$$$$$$$++++++++++$.%.$++++++..",
".++@.%%%%%%%%%%%%%%%.$+++@.%%%%%%%%%%%%%%%.$+++@.%%%%%%%%%%%%%%%.$+++@.%%%%%%%%%%%%%%%.$++@.%%%%%%%%%%%%%%%.$+++++++++++++++++++++++++++$.$+++++++..",
".++@.................$+++@.................$+++@.................$+++@.................$++@.................$++++++++++++++++++++++++++++$++++++++..",
".++#$$$$$$$$$$$$$$$$$$+++#$$$$$$$$$$$$$$$$$$+++#$$$$$$$$$$$$$$$$$$+++#$$$$$$$$$$$$$$$$$$++#$$$$$$$$$$$$$$$$$$+++++++++++++++++++++++++++++++++++++..",
".+++++++++++++++++++++++++++++++++++++++++++++++++++++++++++++++++++++++++++++++++++++++++++++++++++++++++++++++++++++++++++++++++++++++++++++++++..",
".+++++++++++++++++++++++++++++++++++++++++++++++++++++++++++++++++++++++++++++++++++++++++++++++++++++++++++++++++++++++++++++++++++++++++++++++++..",
".++++++++++++++++++++++++..+++++++++++++++++++++++++++++++++++++++++++++++++++++++++++++++++++++++++++++++++++++++++++++++++++++++++++++++++++++++..",
".+++++++++++++++++++++++.++.+++++++++++++++++++.+++++++++++++++++++++++++++++++++++++++++++++++++++++++++++++++++++++.+++.++++++++++++++++++++++++..",
".+++++++@@@@@@@@@#+++++.++++.++++++++++++++++++.++++++++++++++++++++++++++++++++++++++++++++++++++++++++++++++++++++.+.+.++++++++@@@@@@@@@@+++++++..",
".++++++@.........$+++++.++++.+.+.++...+++..++....+.+++.+++++++++++++++++++++++++++++++++++++++++++++++++++++++++++++.+.+.++++++++@.........$++++++..",
".+++++@.%%%%%%%%.$+++++.++++.+..+.++++.+.++.+.+.+++.+.+++++++++++++++++++++++++++++++++++++++++++++++++++++++++++++++.+.+++++++++@.%%%%%%%%.$+++++..",
".++++@.%%%%%%%%%.$+++++.++++.+.++.++...+.++++.+.+++.+.+++++++++++++++++++++++++++++++++++++++++++++++++++++++++++++++++.+.+++++++@.%%%%%%%%%.$++++..",
".+++@.%%%%%%%%%%.$+++++.++++.+.++.+.++.+.++++.+.+++.+.++++++++++++++++++++++++++++++++++++++++++++++++++++++++++++++++.+.+.++++++@.%%%%%%%%%%.$+++..",
".++@.%%%%%%%%%%%.$++++++.++.++..+.+.++.+.++.+.+.++++.+++++++++++++++++++++++++++++++++++++++++++++++++++++++++++++++++.+.+.++++++@.%%%%%%%%%%%.$++..",
".+@.%%%%%%%%%%%%.$+++++++..+++.+.+++...++..++.+..+++.++++++++++++++++++++++++++++++++++++++++++++++++++++++++++++++++.+++.+++++++@.%%%%%%%%%%%%.$+..",
".+.%%%%%%%%%%%%%.$++++++++++++.++++++++++++++++++++.+++++++++++++++++++++++++++++++++++++++++++++++++++++++++++++++++++++++++++++@.%%%%%%%%%%%%%.+..",
".+.%%%%%%%%%%%%%.$+++++...................................................................................................*++++++@.%%%%%%%%%%%%%.+..",
".+@.%%%%%%%%%%%%.$+++++++++++++++++++++++++++++++++++++++++++++++++++++++++++++++++++++++++++++++++++++++++++++++++++++++++++++++@.%%%%%%%%%%%%.$+..",
".++@.%%%%%%%%%%%.$+++++++++++++++++++++++++++++++++++++++++++++++++++++++++++++++++++++++++++++++++++++++++++++++++++++++++++++++@.%%%%%%%%%%%.$++..",
".+++@.%%%%%%%%%%.$+++++++++++++++++++++++++++++++++++++++++++++++++++++++++++++++++++++++++++++++++++++++++++++++++++++++++++++++@.%%%%%%%%%%.$+++..",
".++++@.%%%%%%%%%.$+++++++++++++++++++++++++++++++++++++++++++++++++++++++++++++++++++++++++++++++++++++++++++++++++++++++++++++++@.%%%%%%%%%.$++++..",
".+++++@.%%%%%%%%.$+++++++++++++++++++++++++++++++++++++++++++++++++++++++++++++++++++++++++++++++++++++++++++++++++++++++++++++++@.%%%%%%%%.$+++++..",
".++++++@.........$+++++++++++++++++++++++++++++++++++++++++++++++++++++++++++++++++++++++++++++++++++++++++++++++++++++++++++++++@.........$++++++..",
".+++++++$$$$$$$$$$+++++++++++++++++++++++++++++++++++++++++++++++++++++++++++++++++++++++++++++++++++++++++++++++++++++++++++++++#$$$$$$$$$+++++++..",
".+++++++++++++++++++++++++++++++++++++++++++++++++++++++++++++++++++++++++++++++++++++++++++++++++++++++++++++++++++++++++++++++++++++++++++++++++..",
".+++++++++++++++++++++++++++++++++++++++++++++++++++++++++++++++++++++++++++++++++++++++++++++++++++++++++++++++++++++++++++++++++++++++++++++++++..",
"&...................................................................................................................................................",
"&&.................................................................................................................................................&"};
