/* XPM */
static const char * layer_reverse[] = {
"148 29 7 1",
" 	c None",
".	c #000000",
"+	c #CECECE",
"@	c #A5A5A5",
"#	c #9B9B9B",
"$	c #606060",
"%	c #FFFFFF",
".++++++++++++++++++++++++++++++++++++++++++++++++++++++++++++++++++++++++++++++++++++++++++++++++++++++++++++++++++++++++++++++++++++++++++++++++@..",
".+###############################################################################################################################################$..",
".+###############################################################################################################################################$..",
".+###############################################################################################################################################$..",
".+###############################################################################################################################################$..",
".+###############################################################################################################################################$..",
".+###############################################################################################################################################$..",
".+###############################################################################################################################################$..",
".+#...............###############################################################################################################################$..",
".+#.%%%%%%%%%%%%%.###############################################################################################################################$..",
".+#.%%%%%%%%%%%%%.###############################################################################################################################$..",
".+#.%%%%%%%%%%%%%.###############################################################################################################################$..",
".+#.%%%%%%%%%%%%%.###############################################################################################################################$..",
".+#.%%%%%%%%%%%%%.###############################################################################################################################$..",
".+#.%%%%%%%%%%%%%.###############################################################################################################################$..",
".+#.%%%%%%%%%%%%%.###############################################################################################################################$..",
".+#.%%%%%%%%%%%%%.###############################################################################################################################$..",
".+#.%%%%%%%%%%%%%.###############################################################################################################################$..",
".+#.%%%%%%%%%%%%%.###############################################################################################################################$..",
".+#.%%%%%%%%%%%%%.###############################################################################################################################$..",
".+#.%%%%%%%%%%%%%.###############################################################################################################################$..",
".+#.%%%%%%%%%%%%%.###############################################################################################################################$..",
".+#...............###############################################################################################################################$..",
".+###############################################################################################################################################$..",
".+###############################################################################################################################################$..",
".+###############################################################################################################################################$..",
".+###############################################################################################################################################$..",
".+###############################################################################################################################################$..",
".@$$$$$$$$$$$$$$$$$$$$$$$$$$$$$$$$$$$$$$$$$$$$$$$$$$$$$$$$$$$$$$$$$$$$$$$$$$$$$$$$$$$$$$$$$$$$$$$$$$$$$$$$$$$$$$$$$$$$$$$$$$$$$$$$$$$$$$$$$$$$$$$$.."};
