/* XPM */
static const char * mesh_reverse[] = {
"65 201 8 1",
" 	c None",
".	c #FFFFFF",
"+	c #000000",
"@	c #9B9B9B",
"#	c #606060",
"$	c #A5A5A5",
"%	c #CECECE",
"&	c #7C7C7C",
".++++++++++++++++++++++++++++++++++++++++++++++++++++++++++++++..",
"+@@@@@@@@@@@@@@@@@@@@@@@@@@@@@@@@@@@@@@@@@@@@@@@@@@@@@@@@@@@@@@+.",
"+@@@@@@@@@@@@@@@@@@@@@@@@@@@@@@@@@@@@@@@@@@@@@@@@@@@@@@@@@@@@@@++",
"+@@@@@@@@@@@@@@@@@@@@@@@@@@@@@@@##############@##############@@++",
"+@@@@@@@@@@@@@@@@@@@@@@@@@@@@@@@#............#@#............#@@++",
"+@@@@@@@@@@@@@@@@@@@@@@@@@@@@@@@#............#@#.+........+.#@@++",
"+@@@@@@@@@@@@@@@@@@@@@@@@@@@@@@@#............#@#..+......+..#@@++",
"+@@@@@@@@@@@@@@@@@@@@@@@@@@@@@@@#............#@#...+....+...#@@++",
"+@@@@@@@@@@@@@@@@@@@@@@@@@@@@@@@#............#@#....+..+....#@@++",
"+@@@@@@@@@@@@@@@@@@@@@@@@@@@@@@@#............#@#.....++.....#@@++",
"+@@@@@@@@@@@@@@@@@@@@@@@@@@@@@@@#............#@#.....++.....#@@++",
"+@@@@@@@@@@@@@@@@@@@@@@@@@@@@@@@#............#@#....+..+....#@@++",
"+@@@@@@@@@@@@@@@@@@@@@@@@@@@@@@@#............#@#...+....+...#@@++",
"+@@@@@@@@@@@@@@@@@@@@@@@@@@@@@@@#............#@#..+......+..#@@++",
"+@@@@@@@@@@@@@@@@@@@@@@@@@@@@@@@#.++++++++++.#@#.+........+.#@@++",
"+@@@@@@@@@@@@@@@@@@@@@@@@@@@@@@@#............#@#............#@@++",
"+@@@@@@@@@@@@@@@@@@@@@@@@@@@@@@@##############@##############@@++",
"+@@@@@@@@@@@@@@@@@@@@@@@@@@@@@@@@@@@@@@@@@@@@@@@@@@@@@@@@@@@@@@++",
"+@@@@@@@@@@@@@@@@@@@@@@@@@@@@@@@@@@@@@@@@@@@@@@@@@@@@@@@@@@@@@@++",
"+@@@@@@@@@@@@@@@@@@@@@@@@@@@@@@@@@@@@@@@@@@@@@@@@@@@@@@@@@@@@@@++",
"+@@############################$############################$@@++",
"+@@#+++++++++++++++++++++++++++%#+++++++++++++++++++++++++++%@@++",
"+@@#+&&&&&&&&&&&&&&&&&&&&&&&&&+%#+&&&&&&&&&&&&&&&&&&&&&&&&&+%@@++",
"+@@#+&&&&&&&&&&&&&&&&&&&&&&&&&+%#+&&&&&&&&&&&&&&&&&&&&&&&&&+%@@++",
"+@@#+&&.....................&&+%#+&&+++++++++++++++++++++&&+%@@++",
"+@@#+&&...+...+...+...+...+.&&+%#+&&+++++++++++++++++++++&&+%@@++",
"+@@#+&&.....................&&+%#+&&+++++++++++++++++++++&&+%@@++",
"+@@#+&&.+...+...+...+...+...&&+%#+&&+++++++++++++++++++++&&+%@@++",
"+@@#+&&.....................&&+%#+&&+++++++++++++++++++++&&+%@@++",
"+@@#+&&...+...+...+...+...+.&&+%#+&&+++++++++++++++++++++&&+%@@++",
"+@@#+&&.....................&&+%#+&&+++++++++++++++++++++&&+%@@++",
"+@@#+&&.+...+...+...+...+...&&+%#+&&+++++++++++++++++++++&&+%@@++",
"+@@#+&&.....................&&+%#+&&+++++++++++++++++++++&&+%@@++",
"+@@#+&&...+...+...+...+...+.&&+%#+&&+++++++++++++++++++++&&+%@@++",
"+@@#+&&.....................&&+%#+&&+++++++++++++++++++++&&+%@@++",
"+@@#+&&.+...+...+...+...+...&&+%#+&&+++++++++++++++++++++&&+%@@++",
"+@@#+&&.....................&&+%#+&&+++++++++++++++++++++&&+%@@++",
"+@@#+&&...+...+...+...+...+.&&+%#+&&+++++++++++++++++++++&&+%@@++",
"+@@#+&&.....................&&+%#+&&+++++++++++++++++++++&&+%@@++",
"+@@#+&&.+...+...+...+...+...&&+%#+&&+++++++++++++++++++++&&+%@@++",
"+@@#+&&.....................&&+%#+&&+++++++++++++++++++++&&+%@@++",
"+@@#+&&...+...+...+...+...+.&&+%#+&&+++++++++++++++++++++&&+%@@++",
"+@@#+&&.....................&&+%#+&&+++++++++++++++++++++&&+%@@++",
"+@@#+&&.+...+...+...+...+...&&+%#+&&+++++++++++++++++++++&&+%@@++",
"+@@#+&&.....................&&+%#+&&+++++++++++++++++++++&&+%@@++",
"+@@#+&&&&&&&&&&&&&&&&&&&&&&&&&+%#+&&&&&&&&&&&&&&&&&&&&&&&&&+%@@++",
"+@@#+&&&&&&&&&&&&&&&&&&&&&&&&&+%#+&&&&&&&&&&&&&&&&&&&&&&&&&+%@@++",
"+@@#+++++++++++++++++++++++++++%#+++++++++++++++++++++++++++%@@++",
"+@@$%%%%%%%%%%%%%%%%%%%%%%%%%%%%$%%%%%%%%%%%%%%%%%%%%%%%%%%%%@@++",
"+@@############################$############################$@@++",
"+@@#+++++++++++++++++++++++++++%#+++++++++++++++++++++++++++%@@++",
"+@@#+&&&&&&&&&&&&&&&&&&&&&&&&&+%#+&&&&&&&&&&&&&&&&&&&&&&&&&+%@@++",
"+@@#+&&&&&&&&&&&&&&&&&&&&&&&&&+%#+&&&&&&&&&&&&&&&&&&&&&&&&&+%@@++",
"+@@#+&&..+...+...+...+...+..&&+%#+&&+++++++++++++++++++++&&+%@@++",
"+@@#+&&...+...+...+...+...+.&&+%#+&&+.+.+.+.+.+.+.+.+.+.+&&+%@@++",
"+@@#+&&+...+...+...+...+...+&&+%#+&&+++++++++++++++++++++&&+%@@++",
"+@@#+&&.+...+...+...+...+...&&+%#+&&+.+.+.+.+.+.+.+.+.+.+&&+%@@++",
"+@@#+&&..+...+...+...+...+..&&+%#+&&+++++++++++++++++++++&&+%@@++",
"+@@#+&&...+...+...+...+...+.&&+%#+&&+.+.+.+.+.+.+.+.+.+.+&&+%@@++",
"+@@#+&&+...+...+...+...+...+&&+%#+&&+++++++++++++++++++++&&+%@@++",
"+@@#+&&.+...+...+...+...+...&&+%#+&&+.+.+.+.+.+.+.+.+.+.+&&+%@@++",
"+@@#+&&..+...+...+...+...+..&&+%#+&&+++++++++++++++++++++&&+%@@++",
"+@@#+&&...+...+...+...+...+.&&+%#+&&+.+.+.+.+.+.+.+.+.+.+&&+%@@++",
"+@@#+&&+...+...+...+...+...+&&+%#+&&+++++++++++++++++++++&&+%@@++",
"+@@#+&&.+...+...+...+...+...&&+%#+&&+.+.+.+.+.+.+.+.+.+.+&&+%@@++",
"+@@#+&&..+...+...+...+...+..&&+%#+&&+++++++++++++++++++++&&+%@@++",
"+@@#+&&...+...+...+...+...+.&&+%#+&&+.+.+.+.+.+.+.+.+.+.+&&+%@@++",
"+@@#+&&+...+...+...+...+...+&&+%#+&&+++++++++++++++++++++&&+%@@++",
"+@@#+&&.+...+...+...+...+...&&+%#+&&+.+.+.+.+.+.+.+.+.+.+&&+%@@++",
"+@@#+&&..+...+...+...+...+..&&+%#+&&+++++++++++++++++++++&&+%@@++",
"+@@#+&&...+...+...+...+...+.&&+%#+&&+.+.+.+.+.+.+.+.+.+.+&&+%@@++",
"+@@#+&&+...+...+...+...+...+&&+%#+&&+++++++++++++++++++++&&+%@@++",
"+@@#+&&.+...+...+...+...+...&&+%#+&&+.+.+.+.+.+.+.+.+.+.+&&+%@@++",
"+@@#+&&..+...+...+...+...+..&&+%#+&&+++++++++++++++++++++&&+%@@++",
"+@@#+&&&&&&&&&&&&&&&&&&&&&&&&&+%#+&&&&&&&&&&&&&&&&&&&&&&&&&+%@@++",
"+@@#+&&&&&&&&&&&&&&&&&&&&&&&&&+%#+&&&&&&&&&&&&&&&&&&&&&&&&&+%@@++",
"+@@#+++++++++++++++++++++++++++%#+++++++++++++++++++++++++++%@@++",
"+@@$%%%%%%%%%%%%%%%%%%%%%%%%%%%%$%%%%%%%%%%%%%%%%%%%%%%%%%%%%@@++",
"+@@############################$############################$@@++",
"+@@#+++++++++++++++++++++++++++%#+++++++++++++++++++++++++++%@@++",
"+@@#+&&&&&&&&&&&&&&&&&&&&&&&&&+%#+&&&&&&&&&&&&&&&&&&&&&&&&&+%@@++",
"+@@#+&&&&&&&&&&&&&&&&&&&&&&&&&+%#+&&&&&&&&&&&&&&&&&&&&&&&&&+%@@++",
"+@@#+&&..+...+...+...+...+..&&+%#+&&.+.+.+.+.+.+.+.+.+.+.&&+%@@++",
"+@@#+&&.+...+...+...+...+...&&+%#+&&+.+.+.+.+.+.+.+.+.+.+&&+%@@++",
"+@@#+&&+...+...+...+...+...+&&+%#+&&.+.+.+.+.+.+.+.+.+.+.&&+%@@++",
"+@@#+&&...+...+...+...+...+.&&+%#+&&+.+.+.+.+.+.+.+.+.+.+&&+%@@++",
"+@@#+&&..+...+...+...+...+..&&+%#+&&.+.+.+.+.+.+.+.+.+.+.&&+%@@++",
"+@@#+&&.+...+...+...+...+...&&+%#+&&+.+.+.+.+.+.+.+.+.+.+&&+%@@++",
"+@@#+&&+...+...+...+...+...+&&+%#+&&.+.+.+.+.+.+.+.+.+.+.&&+%@@++",
"+@@#+&&...+...+...+...+...+.&&+%#+&&+.+.+.+.+.+.+.+.+.+.+&&+%@@++",
"+@@#+&&..+...+...+...+...+..&&+%#+&&.+.+.+.+.+.+.+.+.+.+.&&+%@@++",
"+@@#+&&.+...+...+...+...+...&&+%#+&&+.+.+.+.+.+.+.+.+.+.+&&+%@@++",
"+@@#+&&+...+...+...+...+...+&&+%#+&&.+.+.+.+.+.+.+.+.+.+.&&+%@@++",
"+@@#+&&...+...+...+...+...+.&&+%#+&&+.+.+.+.+.+.+.+.+.+.+&&+%@@++",
"+@@#+&&..+...+...+...+...+..&&+%#+&&.+.+.+.+.+.+.+.+.+.+.&&+%@@++",
"+@@#+&&.+...+...+...+...+...&&+%#+&&+.+.+.+.+.+.+.+.+.+.+&&+%@@++",
"+@@#+&&+...+...+...+...+...+&&+%#+&&.+.+.+.+.+.+.+.+.+.+.&&+%@@++",
"+@@#+&&...+...+...+...+...+.&&+%#+&&+.+.+.+.+.+.+.+.+.+.+&&+%@@++",
"+@@#+&&..+...+...+...+...+..&&+%#+&&.+.+.+.+.+.+.+.+.+.+.&&+%@@++",
"+@@#+&&.+...+...+...+...+...&&+%#+&&+.+.+.+.+.+.+.+.+.+.+&&+%@@++",
"+@@#+&&+...+...+...+...+...+&&+%#+&&.+.+.+.+.+.+.+.+.+.+.&&+%@@++",
"+@@#+&&...+...+...+...+...+.&&+%#+&&+.+.+.+.+.+.+.+.+.+.+&&+%@@++",
"+@@#+&&..+...+...+...+...+..&&+%#+&&.+.+.+.+.+.+.+.+.+.+.&&+%@@++",
"+@@#+&&&&&&&&&&&&&&&&&&&&&&&&&+%#+&&&&&&&&&&&&&&&&&&&&&&&&&+%@@++",
"+@@#+&&&&&&&&&&&&&&&&&&&&&&&&&+%#+&&&&&&&&&&&&&&&&&&&&&&&&&+%@@++",
"+@@#+++++++++++++++++++++++++++%#+++++++++++++++++++++++++++%@@++",
"+@@$%%%%%%%%%%%%%%%%%%%%%%%%%%%%$%%%%%%%%%%%%%%%%%%%%%%%%%%%%@@++",
"+@@############################$############################$@@++",
"+@@#+++++++++++++++++++++++++++%#+++++++++++++++++++++++++++%@@++",
"+@@#+&&&&&&&&&&&&&&&&&&&&&&&&&+%#+&&&&&&&&&&&&&&&&&&&&&&&&&+%@@++",
"+@@#+&&&&&&&&&&&&&&&&&&&&&&&&&+%#+&&&&&&&&&&&&&&&&&&&&&&&&&+%@@++",
"+@@#+&&+++++++++++++++++++++&&+%#+&&..+...+...+...+...+..&&+%@@++",
"+@@#+&&.....................&&+%#+&&.+.+.+.+.+.+.+.+.+.+.&&+%@@++",
"+@@#+&&+++++++++++++++++++++&&+%#+&&+...+...+...+...+...+&&+%@@++",
"+@@#+&&.....................&&+%#+&&.+.+.+.+.+.+.+.+.+.+.&&+%@@++",
"+@@#+&&+++++++++++++++++++++&&+%#+&&..+...+...+...+...+..&&+%@@++",
"+@@#+&&.....................&&+%#+&&.+.+.+.+.+.+.+.+.+.+.&&+%@@++",
"+@@#+&&+++++++++++++++++++++&&+%#+&&+...+...+...+...+...+&&+%@@++",
"+@@#+&&.....................&&+%#+&&.+.+.+.+.+.+.+.+.+.+.&&+%@@++",
"+@@#+&&+++++++++++++++++++++&&+%#+&&..+...+...+...+...+..&&+%@@++",
"+@@#+&&.....................&&+%#+&&.+.+.+.+.+.+.+.+.+.+.&&+%@@++",
"+@@#+&&+++++++++++++++++++++&&+%#+&&+...+...+...+...+...+&&+%@@++",
"+@@#+&&.....................&&+%#+&&.+.+.+.+.+.+.+.+.+.+.&&+%@@++",
"+@@#+&&+++++++++++++++++++++&&+%#+&&..+...+...+...+...+..&&+%@@++",
"+@@#+&&.....................&&+%#+&&.+.+.+.+.+.+.+.+.+.+.&&+%@@++",
"+@@#+&&+++++++++++++++++++++&&+%#+&&+...+...+...+...+...+&&+%@@++",
"+@@#+&&.....................&&+%#+&&.+.+.+.+.+.+.+.+.+.+.&&+%@@++",
"+@@#+&&+++++++++++++++++++++&&+%#+&&..+...+...+...+...+..&&+%@@++",
"+@@#+&&.....................&&+%#+&&.+.+.+.+.+.+.+.+.+.+.&&+%@@++",
"+@@#+&&+++++++++++++++++++++&&+%#+&&+...+...+...+...+...+&&+%@@++",
"+@@#+&&.....................&&+%#+&&.+.+.+.+.+.+.+.+.+.+.&&+%@@++",
"+@@#+&&+++++++++++++++++++++&&+%#+&&..+...+...+...+...+..&&+%@@++",
"+@@#+&&&&&&&&&&&&&&&&&&&&&&&&&+%#+&&&&&&&&&&&&&&&&&&&&&&&&&+%@@++",
"+@@#+&&&&&&&&&&&&&&&&&&&&&&&&&+%#+&&&&&&&&&&&&&&&&&&&&&&&&&+%@@++",
"+@@#+++++++++++++++++++++++++++%#+++++++++++++++++++++++++++%@@++",
"+@@$%%%%%%%%%%%%%%%%%%%%%%%%%%%%$%%%%%%%%%%%%%%%%%%%%%%%%%%%%@@++",
"+@@############################$############################$@@++",
"+@@#+++++++++++++++++++++++++++%#+++++++++++++++++++++++++++%@@++",
"+@@#+&&&&&&&&&&&&&&&&&&&&&&&&&+%#+&&&&&&&&&&&&&&&&&&&&&&&&&+%@@++",
"+@@#+&&&&&&&&&&&&&&&&&&&&&&&&&+%#+&&&&&&&&&&&&&&&&&&&&&&&&&+%@@++",
"+@@#+&&+.+.+.+.+.+.+.+.+.+.+&&+%#+&&+.+.+.+.+.+.+.+.+.+.+&&+%@@++",
"+@@#+&&+.+.+.+.+.+.+.+.+.+.+&&+%#+&&.....................&&+%@@++",
"+@@#+&&+.+.+.+.+.+.+.+.+.+.+&&+%#+&&+.+.+.+.+.+.+.+.+.+.+&&+%@@++",
"+@@#+&&+.+.+.+.+.+.+.+.+.+.+&&+%#+&&.....................&&+%@@++",
"+@@#+&&+.+.+.+.+.+.+.+.+.+.+&&+%#+&&+.+.+.+.+.+.+.+.+.+.+&&+%@@++",
"+@@#+&&+.+.+.+.+.+.+.+.+.+.+&&+%#+&&.....................&&+%@@++",
"+@@#+&&+.+.+.+.+.+.+.+.+.+.+&&+%#+&&+.+.+.+.+.+.+.+.+.+.+&&+%@@++",
"+@@#+&&+.+.+.+.+.+.+.+.+.+.+&&+%#+&&.....................&&+%@@++",
"+@@#+&&+.+.+.+.+.+.+.+.+.+.+&&+%#+&&+.+.+.+.+.+.+.+.+.+.+&&+%@@++",
"+@@#+&&+.+.+.+.+.+.+.+.+.+.+&&+%#+&&.....................&&+%@@++",
"+@@#+&&+.+.+.+.+.+.+.+.+.+.+&&+%#+&&+.+.+.+.+.+.+.+.+.+.+&&+%@@++",
"+@@#+&&+.+.+.+.+.+.+.+.+.+.+&&+%#+&&.....................&&+%@@++",
"+@@#+&&+.+.+.+.+.+.+.+.+.+.+&&+%#+&&+.+.+.+.+.+.+.+.+.+.+&&+%@@++",
"+@@#+&&+.+.+.+.+.+.+.+.+.+.+&&+%#+&&.....................&&+%@@++",
"+@@#+&&+.+.+.+.+.+.+.+.+.+.+&&+%#+&&+.+.+.+.+.+.+.+.+.+.+&&+%@@++",
"+@@#+&&+.+.+.+.+.+.+.+.+.+.+&&+%#+&&.....................&&+%@@++",
"+@@#+&&+.+.+.+.+.+.+.+.+.+.+&&+%#+&&+.+.+.+.+.+.+.+.+.+.+&&+%@@++",
"+@@#+&&+.+.+.+.+.+.+.+.+.+.+&&+%#+&&.....................&&+%@@++",
"+@@#+&&+.+.+.+.+.+.+.+.+.+.+&&+%#+&&+.+.+.+.+.+.+.+.+.+.+&&+%@@++",
"+@@#+&&+.+.+.+.+.+.+.+.+.+.+&&+%#+&&.....................&&+%@@++",
"+@@#+&&+.+.+.+.+.+.+.+.+.+.+&&+%#+&&+.+.+.+.+.+.+.+.+.+.+&&+%@@++",
"+@@#+&&&&&&&&&&&&&&&&&&&&&&&&&+%#+&&&&&&&&&&&&&&&&&&&&&&&&&+%@@++",
"+@@#+&&&&&&&&&&&&&&&&&&&&&&&&&+%#+&&&&&&&&&&&&&&&&&&&&&&&&&+%@@++",
"+@@#+++++++++++++++++++++++++++%#+++++++++++++++++++++++++++%@@++",
"+@@$%%%%%%%%%%%%%%%%%%%%%%%%%%%%$%%%%%%%%%%%%%%%%%%%%%%%%%%%%@@++",
"+@@@@@@@@@@@@@@@@@@@@@@@@@@@@@@@@@@@@@@@@@@@@@@@@@@@@@@@@@@@@@@++",
"+@@@@@@@@@@@@@@@@@@@@@@@@@@@@@@@@@@@@@@@@@@@@@@@@@@@@@@@@@@@@@@++",
"+@@@@@@@@@@@@@@@@@@@@@@@@@@@@@@@@@@@@@@@@@@@@@@@@@@@@@@@@@@@@@@++",
"+@@############################$############################$@@++",
"+@@#+++++++++++++++++++++++++++%#+++++++++++++++++++++++++++%@@++",
"+@@#+&&&&&&&&&&&&&&&&&&&&&&&&&+%#+&&&&&&&&&&&&&&&&&&&&&&&&&+%@@++",
"+@@#+&&&&&&&&&&&&&&&&&&&&&&&&&+%#+&&&&&&&&&&&&&&&&&&&&&&&&&+%@@++",
"+@@#+&&.....................&&+%#+&&.....................&&+%@@++",
"+@@#+&&........+++++........&&+%#+&&........+++++........&&+%@@++",
"+@@#+&&........+++++........&&+%#+&&........+++++........&&+%@@++",
"+@@#+&&........+++++........&&+%#+&&........+++++........&&+%@@++",
"+@@#+&&........+++++........&&+%#+&&........+++++........&&+%@@++",
"+@@#+&&........+++++........&&+%#+&&........+++++........&&+%@@++",
"+@@#+&&........+++++........&&+%#+&&........+++++........&&+%@@++",
"+@@#+&&........+++++........&&+%#+&&........+++++........&&+%@@++",
"+@@#+&&.+.+.+.+.+.+.+.+.+.+.&&+%#+&&.+.+.+.+++++++.+.+.+.&&+%@@++",
"+@@#+&&.....................&&+%#+&&........+++++........&&+%@@++",
"+@@#+&&.+.+.+.+.+.+.+.+.+.+.&&+%#+&&.+.+.+.+++++++.+.+.+.&&+%@@++",
"+@@#+&&.....................&&+%#+&&........+++++........&&+%@@++",
"+@@#+&&.+.+.+.+.+.+.+.+.+.+.&&+%#+&&.+.+.+.+++++++.+.+.+.&&+%@@++",
"+@@#+&&........+++++........&&+%#+&&........+++++........&&+%@@++",
"+@@#+&&........+++++........&&+%#+&&........+++++........&&+%@@++",
"+@@#+&&........+++++........&&+%#+&&........+++++........&&+%@@++",
"+@@#+&&........+++++........&&+%#+&&........+++++........&&+%@@++",
"+@@#+&&........+++++........&&+%#+&&........+++++........&&+%@@++",
"+@@#+&&........+++++........&&+%#+&&........+++++........&&+%@@++",
"+@@#+&&........+++++........&&+%#+&&........+++++........&&+%@@++",
"+@@#+&&.....................&&+%#+&&.....................&&+%@@++",
"+@@#+&&&&&&&&&&&&&&&&&&&&&&&&&+%#+&&&&&&&&&&&&&&&&&&&&&&&&&+%@@++",
"+@@#+&&&&&&&&&&&&&&&&&&&&&&&&&+%#+&&&&&&&&&&&&&&&&&&&&&&&&&+%@@++",
"+@@#+++++++++++++++++++++++++++%#+++++++++++++++++++++++++++%@@++",
"+@@$%%%%%%%%%%%%%%%%%%%%%%%%%%%%$%%%%%%%%%%%%%%%%%%%%%%%%%%%%@@++",
"+@@@@@@@@@@@@@@@@@@@@@@@@@@@@@@@@@@@@@@@@@@@@@@@@@@@@@@@@@@@@@@++",
"+@@@@@@@@@@@@@@@@@@@@@@@@@@@@@@@@@@@@@@@@@@@@@@@@@@@@@@@@@@@@@@++",
".++++++++++++++++++++++++++++++++++++++++++++++++++++++++++++++++",
"..++++++++++++++++++++++++++++++++++++++++++++++++++++++++++++++."};
