/* XPM */
static const char * mesh_normal[] = {
"65 201 7 1",
" 	c None",
".	c #FFFFFF",
"+	c #000000",
"@	c #9B9B9B",
"#	c #CECECE",
"$	c #A5A5A5",
"%	c #606060",
".++++++++++++++++++++++++++++++++++++++++++++++++++++++++++++++..",
"+@@@@@@@@@@@@@@@@@@@@@@@@@@@@@@@@@@@@@@@@@@@@@@@@@@@@@@@@@@@@@@+.",
"+@@@@@@@@@@@@@@@@@@@@@@@@@@@@@@@@@@@@@@@@@@@@@@@@@@@@@@@@@@@@@@++",
"+@@@@@@@@@@@@@@@@@@@@@@@@@@@@@@@@@@@@@@@@@@@@@@@@@@@@@@@@@@@@@@++",
"+@@@@@@@@@@@@@@@@@@@@@@@@@@@@@@@@............@@@............@@@++",
"+@@@@@@@@@@@@@@@@@@@@@@@@@@@@@@@@............@@@.@........@.@@@++",
"+@@@@@@@@@@@@@@@@@@@@@@@@@@@@@@@@............@@@..@......@..@@@++",
"+@@@@@@@@@@@@@@@@@@@@@@@@@@@@@@@@............@@@...@....@...@@@++",
"+@@@@@@@@@@@@@@@@@@@@@@@@@@@@@@@@............@@@....@..@....@@@++",
"+@@@@@@@@@@@@@@@@@@@@@@@@@@@@@@@@............@@@.....@@.....@@@++",
"+@@@@@@@@@@@@@@@@@@@@@@@@@@@@@@@@............@@@.....@@.....@@@++",
"+@@@@@@@@@@@@@@@@@@@@@@@@@@@@@@@@............@@@....@..@....@@@++",
"+@@@@@@@@@@@@@@@@@@@@@@@@@@@@@@@@............@@@...@....@...@@@++",
"+@@@@@@@@@@@@@@@@@@@@@@@@@@@@@@@@............@@@..@......@..@@@++",
"+@@@@@@@@@@@@@@@@@@@@@@@@@@@@@@@@.@@@@@@@@@@.@@@.@........@.@@@++",
"+@@@@@@@@@@@@@@@@@@@@@@@@@@@@@@@@............@@@............@@@++",
"+@@@@@@@@@@@@@@@@@@@@@@@@@@@@@@@@@@@@@@@@@@@@@@@@@@@@@@@@@@@@@@++",
"+@@@@@@@@@@@@@@@@@@@@@@@@@@@@@@@@@@@@@@@@@@@@@@@@@@@@@@@@@@@@@@++",
"+@@@@@@@@@@@@@@@@@@@@@@@@@@@@@@@@@@@@@@@@@@@@@@@@@@@@@@@@@@@@@@++",
"+@@@@@@@@@@@@@@@@@@@@@@@@@@@@@@@@@@@@@@@@@@@@@@@@@@@@@@@@@@@@@@++",
"+@@############################$############################$@@++",
"+@@#+++++++++++++++++++++++++++%#+++++++++++++++++++++++++++%@@++",
"+@@#+@@@@@@@@@@@@@@@@@@@@@@@@@+%#+@@@@@@@@@@@@@@@@@@@@@@@@@+%@@++",
"+@@#+@@@@@@@@@@@@@@@@@@@@@@@@@+%#+@+++++++++++++++++++++++@+%@@++",
"+@@#+@@.....................@@+%#+@+++++++++++++++++++++++@+%@@++",
"+@@#+@@...+...+...+...+...+.@@+%#+@+++++++++++++++++++++++@+%@@++",
"+@@#+@@.....................@@+%#+@+++++++++++++++++++++++@+%@@++",
"+@@#+@@.+...+...+...+...+...@@+%#+@+++++++++++++++++++++++@+%@@++",
"+@@#+@@.....................@@+%#+@+++++++++++++++++++++++@+%@@++",
"+@@#+@@...+...+...+...+...+.@@+%#+@+++++++++++++++++++++++@+%@@++",
"+@@#+@@.....................@@+%#+@+++++++++++++++++++++++@+%@@++",
"+@@#+@@.+...+...+...+...+...@@+%#+@+++++++++++++++++++++++@+%@@++",
"+@@#+@@.....................@@+%#+@+++++++++++++++++++++++@+%@@++",
"+@@#+@@...+...+...+...+...+.@@+%#+@+++++++++++++++++++++++@+%@@++",
"+@@#+@@.....................@@+%#+@+++++++++++++++++++++++@+%@@++",
"+@@#+@@.+...+...+...+...+...@@+%#+@+++++++++++++++++++++++@+%@@++",
"+@@#+@@.....................@@+%#+@+++++++++++++++++++++++@+%@@++",
"+@@#+@@...+...+...+...+...+.@@+%#+@+++++++++++++++++++++++@+%@@++",
"+@@#+@@.....................@@+%#+@+++++++++++++++++++++++@+%@@++",
"+@@#+@@.+...+...+...+...+...@@+%#+@+++++++++++++++++++++++@+%@@++",
"+@@#+@@.....................@@+%#+@+++++++++++++++++++++++@+%@@++",
"+@@#+@@...+...+...+...+...+.@@+%#+@+++++++++++++++++++++++@+%@@++",
"+@@#+@@.....................@@+%#+@+++++++++++++++++++++++@+%@@++",
"+@@#+@@.+...+...+...+...+...@@+%#+@+++++++++++++++++++++++@+%@@++",
"+@@#+@@.....................@@+%#+@+++++++++++++++++++++++@+%@@++",
"+@@#+@@@@@@@@@@@@@@@@@@@@@@@@@+%#+@+++++++++++++++++++++++@+%@@++",
"+@@#+@@@@@@@@@@@@@@@@@@@@@@@@@+%#+@@@@@@@@@@@@@@@@@@@@@@@@@+%@@++",
"+@@#+++++++++++++++++++++++++++%#+++++++++++++++++++++++++++%@@++",
"+@@$%%%%%%%%%%%%%%%%%%%%%%%%%%%%$%%%%%%%%%%%%%%%%%%%%%%%%%%%%@@++",
"+@@############################$############################$@@++",
"+@@#+++++++++++++++++++++++++++%#+++++++++++++++++++++++++++%@@++",
"+@@#+@@@@@@@@@@@@@@@@@@@@@@@@@+%#+@@@@@@@@@@@@@@@@@@@@@@@@@+%@@++",
"+@@#+@@@@@@@@@@@@@@@@@@@@@@@@@+%#+@@@@@@@@@@@@@@@@@@@@@@@@@+%@@++",
"+@@#+@@..+...+...+...+...+..@@+%#+@@+++++++++++++++++++++@@+%@@++",
"+@@#+@@...+...+...+...+...+.@@+%#+@@+.+.+.+.+.+.+.+.+.+.+@@+%@@++",
"+@@#+@@+...+...+...+...+...+@@+%#+@@+++++++++++++++++++++@@+%@@++",
"+@@#+@@.+...+...+...+...+...@@+%#+@@+.+.+.+.+.+.+.+.+.+.+@@+%@@++",
"+@@#+@@..+...+...+...+...+..@@+%#+@@+++++++++++++++++++++@@+%@@++",
"+@@#+@@...+...+...+...+...+.@@+%#+@@+.+.+.+.+.+.+.+.+.+.+@@+%@@++",
"+@@#+@@+...+...+...+...+...+@@+%#+@@+++++++++++++++++++++@@+%@@++",
"+@@#+@@.+...+...+...+...+...@@+%#+@@+.+.+.+.+.+.+.+.+.+.+@@+%@@++",
"+@@#+@@..+...+...+...+...+..@@+%#+@@+++++++++++++++++++++@@+%@@++",
"+@@#+@@...+...+...+...+...+.@@+%#+@@+.+.+.+.+.+.+.+.+.+.+@@+%@@++",
"+@@#+@@+...+...+...+...+...+@@+%#+@@+++++++++++++++++++++@@+%@@++",
"+@@#+@@.+...+...+...+...+...@@+%#+@@+.+.+.+.+.+.+.+.+.+.+@@+%@@++",
"+@@#+@@..+...+...+...+...+..@@+%#+@@+++++++++++++++++++++@@+%@@++",
"+@@#+@@...+...+...+...+...+.@@+%#+@@+.+.+.+.+.+.+.+.+.+.+@@+%@@++",
"+@@#+@@+...+...+...+...+...+@@+%#+@@+++++++++++++++++++++@@+%@@++",
"+@@#+@@.+...+...+...+...+...@@+%#+@@+.+.+.+.+.+.+.+.+.+.+@@+%@@++",
"+@@#+@@..+...+...+...+...+..@@+%#+@@+++++++++++++++++++++@@+%@@++",
"+@@#+@@...+...+...+...+...+.@@+%#+@@+.+.+.+.+.+.+.+.+.+.+@@+%@@++",
"+@@#+@@+...+...+...+...+...+@@+%#+@@+++++++++++++++++++++@@+%@@++",
"+@@#+@@.+...+...+...+...+...@@+%#+@@+.+.+.+.+.+.+.+.+.+.+@@+%@@++",
"+@@#+@@..+...+...+...+...+..@@+%#+@@+++++++++++++++++++++@@+%@@++",
"+@@#+@@@@@@@@@@@@@@@@@@@@@@@@@+%#+@@@@@@@@@@@@@@@@@@@@@@@@@+%@@++",
"+@@#+@@@@@@@@@@@@@@@@@@@@@@@@@+%#+@@@@@@@@@@@@@@@@@@@@@@@@@+%@@++",
"+@@#+++++++++++++++++++++++++++%#+++++++++++++++++++++++++++%@@++",
"+@@$%%%%%%%%%%%%%%%%%%%%%%%%%%%%$%%%%%%%%%%%%%%%%%%%%%%%%%%%%@@++",
"+@@############################$############################$@@++",
"+@@#+++++++++++++++++++++++++++%#+++++++++++++++++++++++++++%@@++",
"+@@#+@@@@@@@@@@@@@@@@@@@@@@@@@+%#+@@@@@@@@@@@@@@@@@@@@@@@@@+%@@++",
"+@@#+@@@@@@@@@@@@@@@@@@@@@@@@@+%#+@@@@@@@@@@@@@@@@@@@@@@@@@+%@@++",
"+@@#+@@..+...+...+...+...+..@@+%#+@@.+.+.+.+.+.+.+.+.+.+.@@+%@@++",
"+@@#+@@.+...+...+...+...+...@@+%#+@@+.+.+.+.+.+.+.+.+.+.+@@+%@@++",
"+@@#+@@+...+...+...+...+...+@@+%#+@@.+.+.+.+.+.+.+.+.+.+.@@+%@@++",
"+@@#+@@...+...+...+...+...+.@@+%#+@@+.+.+.+.+.+.+.+.+.+.+@@+%@@++",
"+@@#+@@..+...+...+...+...+..@@+%#+@@.+.+.+.+.+.+.+.+.+.+.@@+%@@++",
"+@@#+@@.+...+...+...+...+...@@+%#+@@+.+.+.+.+.+.+.+.+.+.+@@+%@@++",
"+@@#+@@+...+...+...+...+...+@@+%#+@@.+.+.+.+.+.+.+.+.+.+.@@+%@@++",
"+@@#+@@...+...+...+...+...+.@@+%#+@@+.+.+.+.+.+.+.+.+.+.+@@+%@@++",
"+@@#+@@..+...+...+...+...+..@@+%#+@@.+.+.+.+.+.+.+.+.+.+.@@+%@@++",
"+@@#+@@.+...+...+...+...+...@@+%#+@@+.+.+.+.+.+.+.+.+.+.+@@+%@@++",
"+@@#+@@+...+...+...+...+...+@@+%#+@@.+.+.+.+.+.+.+.+.+.+.@@+%@@++",
"+@@#+@@...+...+...+...+...+.@@+%#+@@+.+.+.+.+.+.+.+.+.+.+@@+%@@++",
"+@@#+@@..+...+...+...+...+..@@+%#+@@.+.+.+.+.+.+.+.+.+.+.@@+%@@++",
"+@@#+@@.+...+...+...+...+...@@+%#+@@+.+.+.+.+.+.+.+.+.+.+@@+%@@++",
"+@@#+@@+...+...+...+...+...+@@+%#+@@.+.+.+.+.+.+.+.+.+.+.@@+%@@++",
"+@@#+@@...+...+...+...+...+.@@+%#+@@+.+.+.+.+.+.+.+.+.+.+@@+%@@++",
"+@@#+@@..+...+...+...+...+..@@+%#+@@.+.+.+.+.+.+.+.+.+.+.@@+%@@++",
"+@@#+@@.+...+...+...+...+...@@+%#+@@+.+.+.+.+.+.+.+.+.+.+@@+%@@++",
"+@@#+@@+...+...+...+...+...+@@+%#+@@.+.+.+.+.+.+.+.+.+.+.@@+%@@++",
"+@@#+@@...+...+...+...+...+.@@+%#+@@+.+.+.+.+.+.+.+.+.+.+@@+%@@++",
"+@@#+@@..+...+...+...+...+..@@+%#+@@.+.+.+.+.+.+.+.+.+.+.@@+%@@++",
"+@@#+@@@@@@@@@@@@@@@@@@@@@@@@@+%#+@@@@@@@@@@@@@@@@@@@@@@@@@+%@@++",
"+@@#+@@@@@@@@@@@@@@@@@@@@@@@@@+%#+@@@@@@@@@@@@@@@@@@@@@@@@@+%@@++",
"+@@#+++++++++++++++++++++++++++%#+++++++++++++++++++++++++++%@@++",
"+@@$%%%%%%%%%%%%%%%%%%%%%%%%%%%%$%%%%%%%%%%%%%%%%%%%%%%%%%%%%@@++",
"+@@############################$############################$@@++",
"+@@#+++++++++++++++++++++++++++%#+++++++++++++++++++++++++++%@@++",
"+@@#+@@@@@@@@@@@@@@@@@@@@@@@@@+%#+@@@@@@@@@@@@@@@@@@@@@@@@@+%@@++",
"+@@#+@@@@@@@@@@@@@@@@@@@@@@@@@+%#+@@@@@@@@@@@@@@@@@@@@@@@@@+%@@++",
"+@@#+@@+++++++++++++++++++++@@+%#+@@..+...+...+...+...+..@@+%@@++",
"+@@#+@@.....................@@+%#+@@.+.+.+.+.+.+.+.+.+.+.@@+%@@++",
"+@@#+@@+++++++++++++++++++++@@+%#+@@+...+...+...+...+...+@@+%@@++",
"+@@#+@@.....................@@+%#+@@.+.+.+.+.+.+.+.+.+.+.@@+%@@++",
"+@@#+@@+++++++++++++++++++++@@+%#+@@..+...+...+...+...+..@@+%@@++",
"+@@#+@@.....................@@+%#+@@.+.+.+.+.+.+.+.+.+.+.@@+%@@++",
"+@@#+@@+++++++++++++++++++++@@+%#+@@+...+...+...+...+...+@@+%@@++",
"+@@#+@@.....................@@+%#+@@.+.+.+.+.+.+.+.+.+.+.@@+%@@++",
"+@@#+@@+++++++++++++++++++++@@+%#+@@..+...+...+...+...+..@@+%@@++",
"+@@#+@@.....................@@+%#+@@.+.+.+.+.+.+.+.+.+.+.@@+%@@++",
"+@@#+@@+++++++++++++++++++++@@+%#+@@+...+...+...+...+...+@@+%@@++",
"+@@#+@@.....................@@+%#+@@.+.+.+.+.+.+.+.+.+.+.@@+%@@++",
"+@@#+@@+++++++++++++++++++++@@+%#+@@..+...+...+...+...+..@@+%@@++",
"+@@#+@@.....................@@+%#+@@.+.+.+.+.+.+.+.+.+.+.@@+%@@++",
"+@@#+@@+++++++++++++++++++++@@+%#+@@+...+...+...+...+...+@@+%@@++",
"+@@#+@@.....................@@+%#+@@.+.+.+.+.+.+.+.+.+.+.@@+%@@++",
"+@@#+@@+++++++++++++++++++++@@+%#+@@..+...+...+...+...+..@@+%@@++",
"+@@#+@@.....................@@+%#+@@.+.+.+.+.+.+.+.+.+.+.@@+%@@++",
"+@@#+@@+++++++++++++++++++++@@+%#+@@+...+...+...+...+...+@@+%@@++",
"+@@#+@@.....................@@+%#+@@.+.+.+.+.+.+.+.+.+.+.@@+%@@++",
"+@@#+@@+++++++++++++++++++++@@+%#+@@..+...+...+...+...+..@@+%@@++",
"+@@#+@@@@@@@@@@@@@@@@@@@@@@@@@+%#+@@@@@@@@@@@@@@@@@@@@@@@@@+%@@++",
"+@@#+@@@@@@@@@@@@@@@@@@@@@@@@@+%#+@@@@@@@@@@@@@@@@@@@@@@@@@+%@@++",
"+@@#+++++++++++++++++++++++++++%#+++++++++++++++++++++++++++%@@++",
"+@@$%%%%%%%%%%%%%%%%%%%%%%%%%%%%$%%%%%%%%%%%%%%%%%%%%%%%%%%%%@@++",
"+@@############################$############################$@@++",
"+@@#+++++++++++++++++++++++++++%#+++++++++++++++++++++++++++%@@++",
"+@@#+@@@@@@@@@@@@@@@@@@@@@@@@@+%#+@@@@@@@@@@@@@@@@@@@@@@@@@+%@@++",
"+@@#+@@@@@@@@@@@@@@@@@@@@@@@@@+%#+@@@@@@@@@@@@@@@@@@@@@@@@@+%@@++",
"+@@#+@@+.+.+.+.+.+.+.+.+.+.+@@+%#+@@+.+.+.+.+.+.+.+.+.+.+@@+%@@++",
"+@@#+@@+.+.+.+.+.+.+.+.+.+.+@@+%#+@@.....................@@+%@@++",
"+@@#+@@+.+.+.+.+.+.+.+.+.+.+@@+%#+@@+.+.+.+.+.+.+.+.+.+.+@@+%@@++",
"+@@#+@@+.+.+.+.+.+.+.+.+.+.+@@+%#+@@.....................@@+%@@++",
"+@@#+@@+.+.+.+.+.+.+.+.+.+.+@@+%#+@@+.+.+.+.+.+.+.+.+.+.+@@+%@@++",
"+@@#+@@+.+.+.+.+.+.+.+.+.+.+@@+%#+@@.....................@@+%@@++",
"+@@#+@@+.+.+.+.+.+.+.+.+.+.+@@+%#+@@+.+.+.+.+.+.+.+.+.+.+@@+%@@++",
"+@@#+@@+.+.+.+.+.+.+.+.+.+.+@@+%#+@@.....................@@+%@@++",
"+@@#+@@+.+.+.+.+.+.+.+.+.+.+@@+%#+@@+.+.+.+.+.+.+.+.+.+.+@@+%@@++",
"+@@#+@@+.+.+.+.+.+.+.+.+.+.+@@+%#+@@.....................@@+%@@++",
"+@@#+@@+.+.+.+.+.+.+.+.+.+.+@@+%#+@@+.+.+.+.+.+.+.+.+.+.+@@+%@@++",
"+@@#+@@+.+.+.+.+.+.+.+.+.+.+@@+%#+@@.....................@@+%@@++",
"+@@#+@@+.+.+.+.+.+.+.+.+.+.+@@+%#+@@+.+.+.+.+.+.+.+.+.+.+@@+%@@++",
"+@@#+@@+.+.+.+.+.+.+.+.+.+.+@@+%#+@@.....................@@+%@@++",
"+@@#+@@+.+.+.+.+.+.+.+.+.+.+@@+%#+@@+.+.+.+.+.+.+.+.+.+.+@@+%@@++",
"+@@#+@@+.+.+.+.+.+.+.+.+.+.+@@+%#+@@.....................@@+%@@++",
"+@@#+@@+.+.+.+.+.+.+.+.+.+.+@@+%#+@@+.+.+.+.+.+.+.+.+.+.+@@+%@@++",
"+@@#+@@+.+.+.+.+.+.+.+.+.+.+@@+%#+@@.....................@@+%@@++",
"+@@#+@@+.+.+.+.+.+.+.+.+.+.+@@+%#+@@+.+.+.+.+.+.+.+.+.+.+@@+%@@++",
"+@@#+@@+.+.+.+.+.+.+.+.+.+.+@@+%#+@@.....................@@+%@@++",
"+@@#+@@+.+.+.+.+.+.+.+.+.+.+@@+%#+@@+.+.+.+.+.+.+.+.+.+.+@@+%@@++",
"+@@#+@@@@@@@@@@@@@@@@@@@@@@@@@+%#+@@@@@@@@@@@@@@@@@@@@@@@@@+%@@++",
"+@@#+@@@@@@@@@@@@@@@@@@@@@@@@@+%#+@@@@@@@@@@@@@@@@@@@@@@@@@+%@@++",
"+@@#+++++++++++++++++++++++++++%#+++++++++++++++++++++++++++%@@++",
"+@@$%%%%%%%%%%%%%%%%%%%%%%%%%%%%$%%%%%%%%%%%%%%%%%%%%%%%%%%%%@@++",
"+@@@@@@@@@@@@@@@@@@@@@@@@@@@@@@@@@@@@@@@@@@@@@@@@@@@@@@@@@@@@@@++",
"+@@@@@@@@@@@@@@@@@@@@@@@@@@@@@@@@@@@@@@@@@@@@@@@@@@@@@@@@@@@@@@++",
"+@@@@@@@@@@@@@@@@@@@@@@@@@@@@@@@@@@@@@@@@@@@@@@@@@@@@@@@@@@@@@@++",
"+@@############################$############################$@@++",
"+@@#+++++++++++++++++++++++++++%#+++++++++++++++++++++++++++%@@++",
"+@@#+@@@@@@@@@@@@@@@@@@@@@@@@@+%#+@@@@@@@@@@@@@@@@@@@@@@@@@+%@@++",
"+@@#+@@@@@@@@@@@@@@@@@@@@@@@@@+%#+@@@@@@@@@@@@@@@@@@@@@@@@@+%@@++",
"+@@#+@@.....................@@+%#+@@.....................@@+%@@++",
"+@@#+@@........+++++........@@+%#+@@........+++++........@@+%@@++",
"+@@#+@@........+++++........@@+%#+@@........+++++........@@+%@@++",
"+@@#+@@........+++++........@@+%#+@@........+++++........@@+%@@++",
"+@@#+@@........+++++........@@+%#+@@........+++++........@@+%@@++",
"+@@#+@@........+++++........@@+%#+@@........+++++........@@+%@@++",
"+@@#+@@........+++++........@@+%#+@@........+++++........@@+%@@++",
"+@@#+@@........+++++........@@+%#+@@........+++++........@@+%@@++",
"+@@#+@@.+.+.+.+.+.+.+.+.+.+.@@+%#+@@.+.+.+.+++++++.+.+.+.@@+%@@++",
"+@@#+@@.....................@@+%#+@@........+++++........@@+%@@++",
"+@@#+@@.+.+.+.+.+.+.+.+.+.+.@@+%#+@@.+.+.+.+++++++.+.+.+.@@+%@@++",
"+@@#+@@.....................@@+%#+@@........+++++........@@+%@@++",
"+@@#+@@.+.+.+.+.+.+.+.+.+.+.@@+%#+@@.+.+.+.+++++++.+.+.+.@@+%@@++",
"+@@#+@@........+++++........@@+%#+@@........+++++........@@+%@@++",
"+@@#+@@........+++++........@@+%#+@@........+++++........@@+%@@++",
"+@@#+@@........+++++........@@+%#+@@........+++++........@@+%@@++",
"+@@#+@@........+++++........@@+%#+@@........+++++........@@+%@@++",
"+@@#+@@........+++++........@@+%#+@@........+++++........@@+%@@++",
"+@@#+@@........+++++........@@+%#+@@........+++++........@@+%@@++",
"+@@#+@@........+++++........@@+%#+@@........+++++........@@+%@@++",
"+@@#+@@.....................@@+%#+@@.....................@@+%@@++",
"+@@#+@@@@@@@@@@@@@@@@@@@@@@@@@+%#+@@@@@@@@@@@@@@@@@@@@@@@@@+%@@++",
"+@@#+@@@@@@@@@@@@@@@@@@@@@@@@@+%#+@@@@@@@@@@@@@@@@@@@@@@@@@+%@@++",
"+@@#+++++++++++++++++++++++++++%#+++++++++++++++++++++++++++%@@++",
"+@@$%%%%%%%%%%%%%%%%%%%%%%%%%%%%$%%%%%%%%%%%%%%%%%%%%%%%%%%%%@@++",
"+@@@@@@@@@@@@@@@@@@@@@@@@@@@@@@@@@@@@@@@@@@@@@@@@@@@@@@@@@@@@@@++",
"+@@@@@@@@@@@@@@@@@@@@@@@@@@@@@@@@@@@@@@@@@@@@@@@@@@@@@@@@@@@@@@++",
".++++++++++++++++++++++++++++++++++++++++++++++++++++++++++++++++",
"..++++++++++++++++++++++++++++++++++++++++++++++++++++++++++++++."};
