/* XPM */
static char * mode_xpm[] = {
"40 198 3 1",
" 	c None",
".	c #000000",
"+	c #FFFFFF",
"........................................",
"........................................",
"..++++++++++++++++++++++++++++++++++++..",
"..++++++++++++++++++++++++++++++++++++..",
"..++++++++++++++++++++++++++++++++++++..",
"..++++++++++++++++++++++++++++++++++++..",
"..+++..++.++++++++++++++++++++++++.+++..",
"..+++..++.++++++++++++++++++++++++.+++..",
"..+++.+.+.++...++...+......++...++.+++..",
"..+++.+.+.+.+++.+.+++.++.++.++++.+.+++..",
"..+++.+.+.+.+++.+.+++.++.++.+....+.+++..",
"..+++.++..+.+++.+.+++.++.++.+.++.+.+++..",
"..+++.++..++...++.+++.++.++.++..++.+++..",
"..++++++++++++++++++++++++++++++++++++..",
"..++++++++++++++++++++++++++++++++++++..",
"..++++++++++++++++++++++++++++++++++++..",
"........................................",
"........................................",
"..++++++++++++++++++++++++++++++++++++..",
"..++++++++++++++++++++++++++++++++++++..",
"..++++++++++++++++++++++++++++++++++++..",
"..++++++++++++++++++++++++++++++++++++..",
"..++..+++..++++++.++.++.++++++.+++++++..",
"..++..+++..++++++.++.+++++++++.+++++++..",
"..++.+.+.+.+.++.+.+...+.+...++.++..+++..",
"..++.+.+.+.+.++.+.++.++.+.++.+.+.++.++..",
"..++.+.+.+.+.++.+.++.++.+.++.+.+....++..",
"..++.++.++.+.++.+.++.++.+.++.+.+.+++++..",
"..++.+++++.++..++.++..+.+...++.++..+++..",
"..+++++++++++++++++++++++.++++++++++++..",
"..+++++++++++++++++++++++.++++++++++++..",
"..++++++++++++++++++++++++++++++++++++..",
"........................................",
"........................................",
"..++++++++++++++++++++++++++++++++++++..",
"..++++++++++++++++++++++++++++++++++++..",
"..++++++++++++++++++++++++++++++++++++..",
"..++++++++++++++++++++++++++++++++++++..",
"..++++...+++++++++++++++++++++++++++++..",
"..+++.+++.++++++++++++++++++++++++++++..",
"..+++.++++++...+...++..+++..++...+++++..",
"..++++...++.++++.+++.++.+.++.+.++.++++..",
"..+++++++.+.++++.+++....+....+.++.++++..",
"..+++.+++.+.++++.+++.++++.++++.++.++++..",
"..++++...+++...+.++++..+++..++.++.++++..",
"..++++++++++++++++++++++++++++++++++++..",
"..++++++++++++++++++++++++++++++++++++..",
"..++++++++++++++++++++++++++++++++++++..",
"........................................",
"........................................",
"..++++++++++++++++++++++++++++++++++++..",
"..++++++++++++++++++++++++++++++++++++..",
"..++++++++++++++++++++++++++++++++++++..",
"..++++++++++++++++++++++++++++++++++++..",
"..+++.++++.++++++.+++++.++++++++++++++..",
"..+++.+++++++++++.+++++.++++++++++++++..",
"..+++.++++.++..++....+...++..++...++++..",
"..+++.++++.+.++.+.++.++.++.++.+.++.+++..",
"..+++.++++.+.++.+.++.++.++....+.++.+++..",
"..+++.++++.+.++.+.++.++.++.++++.++.+++..",
"..+++....+.++...+.++.++..++..++.++.+++..",
"..++++++++++.++.++++++++++++++++++++++..",
"..+++++++++++..+++++++++++++++++++++++..",
"..++++++++++++++++++++++++++++++++++++..",
"........................................",
"........................................",
"..++++++++++++++++++++++++++++++++++++..",
"..++++++++++++++++++++++++++++++++++++..",
"..++++++++++++++++++++++++++++++++++++..",
"..++++++++++++++++++++++++++++++++++++..",
"..+++....+++++++++++.+++++++++++++++++..",
"..+++.+++.++++++++++.++.++++++++++++++..",
"..+++.+++.+...++...+.+.+++..++...+++++..",
"..+++.+++.++++.+.+++..+++.++.+.++.++++..",
"..+++.+++.+....+.+++...++....+.++.++++..",
"..+++.+++.+.++.+.+++.+.++.++++.++.++++..",
"..+++....+++..++.+++.++.++..++.++.++++..",
"..++++++++++++++++++++++++++++++++++++..",
"..++++++++++++++++++++++++++++++++++++..",
"..++++++++++++++++++++++++++++++++++++..",
"........................................",
"........................................",
"..++++++++++++++++++++++++++++++++++++..",
"..++++++++++++++++++++++++++++++++++++..",
"..++++++++++++++++++++++++++++++++++++..",
"..++++++++++++++++++++++++++++++++++++..",
"..+....++.+..+..++++++++++++++++++++++..",
"..+.+++.+++.++.+++++++++++++++++++++++..",
"..+.+++.+.......++..++...++..++...++++..",
"..+.+++.+.+.++.++.++.+.+++.++.+.++.+++..",
"..+.+++.+.+.++.++....+.+++....+.++.+++..",
"..+.+++.+.+.++.++.++++.+++.++++.++.+++..",
"..+....++.+.++.+++..++.++++..++.++.+.+..",
"..++++++++++++++++++++++++++++++++++++..",
"..++++++++++++++++++++++++++++++++++++..",
"..++++++++++++++++++++++++++++++++++++..",
"........................................",
"........................................",
"..++++++++++++++++++++++++++++++++++++..",
"..++++++++++++++++++++++++++++++++++++..",
"..++++++++++++++++++++++++++++++++++++..",
"..++++++++++++++++++++++++++++++++++++..",
"..+++++++++.+++.++++++++++++++++++++++..",
"..+++++++++.+++.++++++++++++++++++++++..",
"..+++++++++.+++.+.++.++..+++++++++++++..",
"..+++++++++.....+.++.+.++.++++++++++++..",
"..+++++++++.+++.+.++.+....++++++++++++..",
"..+++++++++.+++.+.++.+.+++++++++++++++..",
"..+++++++++.+++.++..+++..+++++++++++++..",
"..++++++++++++++++++++++++++++++++++++..",
"..++++++++++++++++++++++++++++++++++++..",
"..++++++++++++++++++++++++++++++++++++..",
"........................................",
"........................................",
"..++++++++++++++++++++++++++++++++++++..",
"..++++++++++++++++++++++++++++++++++++..",
"..++++++++++++++++++++++++++++++++++++..",
"..++++++++++++++++++++++++++++++++++++..",
"..++...++++++++.+++++++++++++++++.++++..",
"..+.+++.+++++++.+++++++++++++++++.++++..",
"..+.+++++...++...+.++.+...+...++...+++..",
"..++...+++++.++.++.++.+.++++++.++.++++..",
"..+++++.+....++.++.++.+.+++....++.++++..",
"..+.+++.+.++.++.++.++.+.+++.++.++.++++..",
"..++...+++..+++..++..++.++++..+++..+.+..",
"..++++++++++++++++++++++++++++++++++++..",
"..++++++++++++++++++++++++++++++++++++..",
"..++++++++++++++++++++++++++++++++++++..",
"........................................",
"........................................",
"..++++++++++++++++++++++++++++++++++++..",
"..++++++++++++++++++++++++++++++++++++..",
"..++++++++++++++++++++++++++++++++++++..",
"..++++++++++++++++++++++++++++++++++++..",
"..+++++++....+++++++.+++++++++++++++++..",
"..++++++.+++++++++++.+++++++++++++++++..",
"..++++++.++++++...++.++...++...+++++++..",
"..++++++.+++++.+++.+.+.+++.+.+++++++++..",
"..++++++.+++++.+++.+.+.+++.+.+++++++++..",
"..++++++.+++++.+++.+.+.+++.+.+++++++++..",
"..+++++++....++...++.++...++.+++++++++..",
"..++++++++++++++++++++++++++++++++++++..",
"..++++++++++++++++++++++++++++++++++++..",
"..++++++++++++++++++++++++++++++++++++..",
"........................................",
"........................................",
"..++++++++++++++++++++++++++++++++++++..",
"..++++++++++++++++++++++++++++++++++++..",
"..++++++++++++++++++++++++++++++++++++..",
"..++++++++++++++++++++++++++++++++++++..",
"..++++++....++++++++++++++++++++++++++..",
"..++++++.+++.+++++++++++++++++++++++++..",
"..++++++.+++.+.++.+...+...++++++++++++..",
"..++++++....++.++.+.+++.++.+++++++++++..",
"..++++++.+++.+.++.+.+++.++.+++++++++++..",
"..++++++.+++.+.++.+.+++.++.+++++++++++..",
"..++++++....+++..++.+++.++.+++++++++++..",
"..++++++++++++++++++++++++++++++++++++..",
"..++++++++++++++++++++++++++++++++++++..",
"..++++++++++++++++++++++++++++++++++++..",
"........................................",
"........................................",
"..++++++++++++++++++++++++++++++++++++..",
"..++++++++++++++++++++++++++++++++++++..",
"..++++++++++++++++++++++++++++++++++++..",
"..++++++++++++++++++++++++++++++++++++..",
"..+++++....++++++++++++.++++++++++++++..",
"..+++++.+++.+++++++++++.++++++++++++++..",
"..+++++.+++.++...+++....++..+++..+++++..",
"..+++++.+++.+.+++.+.+++.+.++.+.++.++++..",
"..+++++.+++.+.+++.+.+++.+.++.+....++++..",
"..+++++.+++.+.+++.+.+++.+.++.+.+++++++..",
"..+++++....+++...+++....++...++..+++++..",
"..+++++++++++++++++++++++.++.+++++++++..",
"..++++++++++++++++++++++++..++++++++++..",
"..++++++++++++++++++++++++++++++++++++..",
"........................................",
"........................................",
"........................................",
"........................................",
"........................................",
"........................................",
"........................................",
"........................................",
"........................................",
"........................................",
"........................................",
"........................................",
"........................................",
"........................................",
"........................................",
"........................................",
"........................................",
"........................................",
"........................................",
"........................................",
"........................................",
"........................................"};
