/* XPM */
static char * pensize_normal_xpm[] = {
"65 198 7 1",
" 	c None",
".	c #FFFFFF",
"+	c #000000",
"@	c #9B9B9B",
"#	c #CECECE",
"$	c #A5A5A5",
"%	c #606060",
".++++++++++++++++++++++++++++++++++++++++++++++++++++++++++++++..",
"+@@@@@@@@@@@@@@@@@@@@@@@@@@@@@@@@@@@@@@@@@@@@@@@@@@@@@@@@@@@@@@+.",
"+@@@@@@@@@@@@@@@@@@@@@@@@@@@@@@@@@@@@@@@@@@@@@@@@@@@@@@@@@@@@@@++",
"+@@@@@@@@@@@@@@@@@@@@@@@@@@@@@@@@@@@@@@@@@@@@@@@@@@@@@@@@@@@@@@++",
"+@@@@@@@@@@@@@@@@@@@@@@@@@@@@@@@@............@@@............@@@++",
"+@@@@@@@@@@@@@@@@@@@@@@@@@@@@@@@@............@@@.@........@.@@@++",
"+@@@@@@@@@@@@@@@@@@@@@@@@@@@@@@@@............@@@..@......@..@@@++",
"+@@@@@@@@@@@@@@@@@@@@@@@@@@@@@@@@............@@@...@....@...@@@++",
"+@@@@@@@@@@@@@@@@@@@@@@@@@@@@@@@@............@@@....@..@....@@@++",
"+@@@@@@@@@@@@@@@@@@@@@@@@@@@@@@@@............@@@.....@@.....@@@++",
"+@@@@@@@@@@@@@@@@@@@@@@@@@@@@@@@@............@@@.....@@.....@@@++",
"+@@@@@@@@@@@@@@@@@@@@@@@@@@@@@@@@............@@@....@..@....@@@++",
"+@@@@@@@@@@@@@@@@@@@@@@@@@@@@@@@@............@@@...@....@...@@@++",
"+@@@@@@@@@@@@@@@@@@@@@@@@@@@@@@@@............@@@..@......@..@@@++",
"+@@@@@@@@@@@@@@@@@@@@@@@@@@@@@@@@.@@@@@@@@@@.@@@.@........@.@@@++",
"+@@@@@@@@@@@@@@@@@@@@@@@@@@@@@@@@............@@@............@@@++",
"+@@@@@@@@@@@@@@@@@@@@@@@@@@@@@@@@@@@@@@@@@@@@@@@@@@@@@@@@@@@@@@++",
"+@@@@@@@@@@@@@@@@@@@@@@@@@@@@@@@@@@@@@@@@@@@@@@@@@@@@@@@@@@@@@@++",
"+@@@@@@@@@@@@@@@@@@@@@@@@@@@@@@@@@@@@@@@@@@@@@@@@@@@@@@@@@@@@@@++",
"+@@@@@@@@@@@@@@@@@@@@@@@@@@@@@@@@@@@@@@@@@@@@@@@@@@@@@@@@@@@@@@++",
"+@@############################$############################$@@++",
"+@@#+++++++++++++++++++++++++++%#+++++++++++++++++++++++++++%@@++",
"+@@#+@@@@@@@@@@@@@@@@@@@@@@@@@+%#+@@@@@@@@@@@@@@@@@@@@@@@@@+%@@++",
"+@@#+@@@@@@@@@@@@@@@@@@@@@@@@@+%#+@@@@@@@@@@@@@@@@@@@@@@@@@+%@@++",
"+@@#+@@@@@@@@@@@@@@@@@@@@@@@@@+%#+@@@@@@@@@@@@@@@@@@@@@@@@@+%@@++",
"+@@#+@@@@@@@@@@@@@@@@@@@@@@@@@+%#+@@@@@@@@@@@@@@@@@@@@@@@@@+%@@++",
"+@@#+@@@@@@@@@@@@@@@@@@@@@@@@@+%#+@@@@@@@@@@@@@@@@@@@@@@@@@+%@@++",
"+@@#+@@@@@@@@@@@@@@@@@@@@@@@@@+%#+@@@@@@@@@@@@@@@@@@@@@@@@@+%@@++",
"+@@#+@@@@@@@@@@@@@@@@@@@@@@@@@+%#+@@@@@@@@@@@@@@@@@@@@@@@@@+%@@++",
"+@@#+@@@@@@@@@@@+++@@@@@@@@@@@+%#+@@@@@@@@@@@@@@@@@@@@@@@@@+%@@++",
"+@@#+@@@@@@@@@+++++++@@@@@@@@@+%#+@@@@@@@@@@@@@@@@@@@@@@@@@+%@@++",
"+@@#+@@@@@@@@+++++++++@@@@@@@@+%#+@@@@@@@@@@@@@@@@@@@@@@@@@+%@@++",
"+@@#+@@@@@@@@+++++++++@@@@@@@@+%#+@@@@@@@@@@@@@@@@@@@@@@@@@+%@@++",
"+@@#+@@@@@@@+++++++++++@@@@@@@+%#+@@@@@@@@@@@@@@@@@@@@@@@@@+%@@++",
"+@@#+@@@@@@@+++++++++++@@@@@@@+%#+@@@@@@@@@@@@@@@@@@@@@@@@@+%@@++",
"+@@#+@@@@@@@+++++++++++@@@@@@@+%#+@@@@@@@@@@@@+@@@@@@@@@@@@+%@@++",
"+@@#+@@@@@@@@+++++++++@@@@@@@@+%#+@@@@@@@@@@@@@@@@@@@@@@@@@+%@@++",
"+@@#+@@@@@@@@+++++++++@@@@@@@@+%#+@@@@@@@@@@@@@@@@@@@@@@@@@+%@@++",
"+@@#+@@@@@@@@@+++++++@@@@@@@@@+%#+@@@@@@@@@@@@@@@@@@@@@@@@@+%@@++",
"+@@#+@@@@@@@@@@@+++@@@@@@@@@@@+%#+@@@@@@@@@@@@@@@@@@@@@@@@@+%@@++",
"+@@#+@@@@@@@@@@@@@@@@@@@@@@@@@+%#+@@@@@@@@@@@@@@@@@@@@@@@@@+%@@++",
"+@@#+@@@@@@@@@@@@@@@@@@@@@@@@@+%#+@@@@@@@@@@@@@@@@@@@@@@@@@+%@@++",
"+@@#+@@@@@@@@@@@@@@@@@@@@@@@@@+%#+@@@@@@@@@@@@@@@@@@@@@@@@@+%@@++",
"+@@#+@@@@@@@@@@@@@@@@@@@@@@@@@+%#+@@@@@@@@@@@@@@@@@@@@@@@@@+%@@++",
"+@@#+@@@@@@@@@@@@@@@@@@@@@@@@@+%#+@@@@@@@@@@@@@@@@@@@@@@@@@+%@@++",
"+@@#+@@@@@@@@@@@@@@@@@@@@@@@@@+%#+@@@@@@@@@@@@@@@@@@@@@@@@@+%@@++",
"+@@#+@@@@@@@@@@@@@@@@@@@@@@@@@+%#+@@@@@@@@@@@@@@@@@@@@@@@@@+%@@++",
"+@@#+++++++++++++++++++++++++++%#+++++++++++++++++++++++++++%@@++",
"+@@$%%%%%%%%%%%%%%%%%%%%%%%%%%%%$%%%%%%%%%%%%%%%%%%%%%%%%%%%%@@++",
"+@@############################$############################$@@++",
"+@@#+++++++++++++++++++++++++++%#+++++++++++++++++++++++++++%@@++",
"+@@#+@@@@@@@@@@@@@@@@@@@@@@@@@+%#+@@@@@@@@@@@@@@@@@@@@@@@@@+%@@++",
"+@@#+@@@@@@@@@@@@@@@@@@@@@@@@@+%#+@@@@@@@@@@@@@@@@@@@@@@@@@+%@@++",
"+@@#+@@@@@@@@@@@@@@@@@@@@@@@@@+%#+@@@@@@@@@@@@@@@@@@@@@@@@@+%@@++",
"+@@#+@@@@@@@@@@@@@@@@@@@@@@@@@+%#+@@@@@@@@@@@@@@@@@@@@@@@@@+%@@++",
"+@@#+@@@@@@@@@@@+++@@@@@@@@@@@+%#+@@@@@@@@@@@@@@@@@@@@@@@@@+%@@++",
"+@@#+@@@@@@@@@+++++++@@@@@@@@@+%#+@@@@@@@@@@@@@@@@@@@@@@@@@+%@@++",
"+@@#+@@@@@@@+++++++++++@@@@@@@+%#+@@@@@@@@@@@@@@@@@@@@@@@@@+%@@++",
"+@@#+@@@@@@+++++++++++++@@@@@@+%#+@@@@@@@@@@@@@@@@@@@@@@@@@+%@@++",
"+@@#+@@@@@@+++++++++++++@@@@@@+%#+@@@@@@@@@@@@@@@@@@@@@@@@@+%@@++",
"+@@#+@@@@@+++++++++++++++@@@@@+%#+@@@@@@@@@@@@@@@@@@@@@@@@@+%@@++",
"+@@#+@@@@@+++++++++++++++@@@@@+%#+@@@@@@@@@@@@@@@@@@@@@@@@@+%@@++",
"+@@#+@@@@+++++++++++++++++@@@@+%#+@@@@@@@@@@@@@@@@@@@@@@@@@+%@@++",
"+@@#+@@@@+++++++++++++++++@@@@+%#+@@@@@@@@@@@@++@@@@@@@@@@@+%@@++",
"+@@#+@@@@+++++++++++++++++@@@@+%#+@@@@@@@@@@@@++@@@@@@@@@@@+%@@++",
"+@@#+@@@@@+++++++++++++++@@@@@+%#+@@@@@@@@@@@@@@@@@@@@@@@@@+%@@++",
"+@@#+@@@@@+++++++++++++++@@@@@+%#+@@@@@@@@@@@@@@@@@@@@@@@@@+%@@++",
"+@@#+@@@@@@+++++++++++++@@@@@@+%#+@@@@@@@@@@@@@@@@@@@@@@@@@+%@@++",
"+@@#+@@@@@@+++++++++++++@@@@@@+%#+@@@@@@@@@@@@@@@@@@@@@@@@@+%@@++",
"+@@#+@@@@@@@+++++++++++@@@@@@@+%#+@@@@@@@@@@@@@@@@@@@@@@@@@+%@@++",
"+@@#+@@@@@@@@@+++++++@@@@@@@@@+%#+@@@@@@@@@@@@@@@@@@@@@@@@@+%@@++",
"+@@#+@@@@@@@@@@@+++@@@@@@@@@@@+%#+@@@@@@@@@@@@@@@@@@@@@@@@@+%@@++",
"+@@#+@@@@@@@@@@@@@@@@@@@@@@@@@+%#+@@@@@@@@@@@@@@@@@@@@@@@@@+%@@++",
"+@@#+@@@@@@@@@@@@@@@@@@@@@@@@@+%#+@@@@@@@@@@@@@@@@@@@@@@@@@+%@@++",
"+@@#+@@@@@@@@@@@@@@@@@@@@@@@@@+%#+@@@@@@@@@@@@@@@@@@@@@@@@@+%@@++",
"+@@#+@@@@@@@@@@@@@@@@@@@@@@@@@+%#+@@@@@@@@@@@@@@@@@@@@@@@@@+%@@++",
"+@@#+++++++++++++++++++++++++++%#+++++++++++++++++++++++++++%@@++",
"+@@$%%%%%%%%%%%%%%%%%%%%%%%%%%%%$%%%%%%%%%%%%%%%%%%%%%%%%%%%%@@++",
"+@@############################$############################$@@++",
"+@@#+++++++++++++++++++++++++++%#+++++++++++++++++++++++++++%@@++",
"+@@#+@@@@@@@@@@@@@@@@@@@@@@@@@+%#+@@@@@@@@@@@@@@@@@@@@@@@@@+%@@++",
"+@@#+@@@@@@@@@@@@@@@@@@@@@@@@@+%#+@@@@@@@@@@@@@@@@@@@@@@@@@+%@@++",
"+@@#+@@@@@@@@@@@@@@@@@@@@@@@@@+%#+@@@@@@@@@@@@@@@@@@@@@@@@@+%@@++",
"+@@#+@@@@@@@@@@@@@@@@@@@@@@@@@+%#+@@@@@@@@@@@@@@@@@@@@@@@@@+%@@++",
"+@@#+@@@@@@@@@@@+++@@@@@@@@@@@+%#+@@@@@@@@@@@@@@@@@@@@@@@@@+%@@++",
"+@@#+@@@@@@@@@+++++++@@@@@@@@@+%#+@@@@@@@@@@@@@@@@@@@@@@@@@+%@@++",
"+@@#+@@@@@@@+++++++++++@@@@@@@+%#+@@@@@@@@@@@@@@@@@@@@@@@@@+%@@++",
"+@@#+@@@@@@+++++++++++++@@@@@@+%#+@@@@@@@@@@@@@@@@@@@@@@@@@+%@@++",
"+@@#+@@@@@@+++++++++++++@@@@@@+%#+@@@@@@@@@@@@@@@@@@@@@@@@@+%@@++",
"+@@#+@@@@@+++@@@@+@@@@+++@@@@@+%#+@@@@@@@@@@@@@@@@@@@@@@@@@+%@@++",
"+@@#+@@@@@+++@++@+@++++++@@@@@+%#+@@@@@@@@@@@@@@@@@@@@@@@@@+%@@++",
"+@@#+@@@@+++++++@+@+++++++@@@@+%#+@@@@@@@@@@@@+@@@@@@@@@@@@+%@@++",
"+@@#+@@@@++++++@++@@@@++++@@@@+%#+@@@@@@@@@@@+++@@@@@@@@@@@+%@@++",
"+@@#+@@@@+++++@++++++@++++@@@@+%#+@@@@@@@@@@@@+@@@@@@@@@@@@+%@@++",
"+@@#+@@@@@+++@+++++++@+++@@@@@+%#+@@@@@@@@@@@@@@@@@@@@@@@@@+%@@++",
"+@@#+@@@@@+++@@@@+@@@@+++@@@@@+%#+@@@@@@@@@@@@@@@@@@@@@@@@@+%@@++",
"+@@#+@@@@@@+++++++++++++@@@@@@+%#+@@@@@@@@@@@@@@@@@@@@@@@@@+%@@++",
"+@@#+@@@@@@+++++++++++++@@@@@@+%#+@@@@@@@@@@@@@@@@@@@@@@@@@+%@@++",
"+@@#+@@@@@@@+++++++++++@@@@@@@+%#+@@@@@@@@@@@@@@@@@@@@@@@@@+%@@++",
"+@@#+@@@@@@@@@+++++++@@@@@@@@@+%#+@@@@@@@@@@@@@@@@@@@@@@@@@+%@@++",
"+@@#+@@@@@@@@@@@+++@@@@@@@@@@@+%#+@@@@@@@@@@@@@@@@@@@@@@@@@+%@@++",
"+@@#+@@@@@@@@@@@@@@@@@@@@@@@@@+%#+@@@@@@@@@@@@@@@@@@@@@@@@@+%@@++",
"+@@#+@@@@@@@@@@@@@@@@@@@@@@@@@+%#+@@@@@@@@@@@@@@@@@@@@@@@@@+%@@++",
"+@@#+@@@@@@@@@@@@@@@@@@@@@@@@@+%#+@@@@@@@@@@@@@@@@@@@@@@@@@+%@@++",
"+@@#+@@@@@@@@@@@@@@@@@@@@@@@@@+%#+@@@@@@@@@@@@@@@@@@@@@@@@@+%@@++",
"+@@#+++++++++++++++++++++++++++%#+++++++++++++++++++++++++++%@@++",
"+@@$%%%%%%%%%%%%%%%%%%%%%%%%%%%%$%%%%%%%%%%%%%%%%%%%%%%%%%%%%@@++",
"+@@############################$############################$@@++",
"+@@#+++++++++++++++++++++++++++%#+++++++++++++++++++++++++++%@@++",
"+@@#+@@@@@@@@@@@@@@@@@@@@@@@@@+%#+@@@@@@@@@@@@@@@@@@@@@@@@@+%@@++",
"+@@#+@@@@@@@@@@@@@@@@@@@@@@@@@+%#+@@@@@@@@@@@@@@@@@@@@@@@@@+%@@++",
"+@@#+@@@@@@@@@@@@@@@@@@@@@@@@@+%#+@@@@@@@@@@@@@@@@@@@@@@@@@+%@@++",
"+@@#+@@@@@@@@@@@@@@@@@@@@@@@@@+%#+@@@@@@@@@@@@@@@@@@@@@@@@@+%@@++",
"+@@#+@@@@@@@@@@@+++@@@@@@@@@@@+%#+@@@@@@@@@@@@@@@@@@@@@@@@@+%@@++",
"+@@#+@@@@@@@@@+++++++@@@@@@@@@+%#+@@@@@@@@@@@@@@@@@@@@@@@@@+%@@++",
"+@@#+@@@@@@@+++++++++++@@@@@@@+%#+@@@@@@@@@@@@@@@@@@@@@@@@@+%@@++",
"+@@#+@@@@@@+++++++++++++@@@@@@+%#+@@@@@@@@@@@@@@@@@@@@@@@@@+%@@++",
"+@@#+@@@@@@+++++++++++++@@@@@@+%#+@@@@@@@@@@@@@@@@@@@@@@@@@+%@@++",
"+@@#+@@@@@+++@@@@+@@@@+++@@@@@+%#+@@@@@@@@@@@@@@@@@@@@@@@@@+%@@++",
"+@@#+@@@@@+++@++@+@++@+++@@@@@+%#+@@@@@@@@@@@@@@@@@@@@@@@@@+%@@++",
"+@@#+@@@@+++++++@++++@++++@@@@+%#+@@@@@@@@@@@@++@@@@@@@@@@@+%@@++",
"+@@#+@@@@+++++@@@++@@@++++@@@@+%#+@@@@@@@@@@@++++@@@@@@@@@@+%@@++",
"+@@#+@@@@+++++++@++++@++++@@@@+%#+@@@@@@@@@@@++++@@@@@@@@@@+%@@++",
"+@@#+@@@@@+++@++@+@++@+++@@@@@+%#+@@@@@@@@@@@@++@@@@@@@@@@@+%@@++",
"+@@#+@@@@@+++@@@@+@@@@+++@@@@@+%#+@@@@@@@@@@@@@@@@@@@@@@@@@+%@@++",
"+@@#+@@@@@@+++++++++++++@@@@@@+%#+@@@@@@@@@@@@@@@@@@@@@@@@@+%@@++",
"+@@#+@@@@@@+++++++++++++@@@@@@+%#+@@@@@@@@@@@@@@@@@@@@@@@@@+%@@++",
"+@@#+@@@@@@@+++++++++++@@@@@@@+%#+@@@@@@@@@@@@@@@@@@@@@@@@@+%@@++",
"+@@#+@@@@@@@@@+++++++@@@@@@@@@+%#+@@@@@@@@@@@@@@@@@@@@@@@@@+%@@++",
"+@@#+@@@@@@@@@@@+++@@@@@@@@@@@+%#+@@@@@@@@@@@@@@@@@@@@@@@@@+%@@++",
"+@@#+@@@@@@@@@@@@@@@@@@@@@@@@@+%#+@@@@@@@@@@@@@@@@@@@@@@@@@+%@@++",
"+@@#+@@@@@@@@@@@@@@@@@@@@@@@@@+%#+@@@@@@@@@@@@@@@@@@@@@@@@@+%@@++",
"+@@#+@@@@@@@@@@@@@@@@@@@@@@@@@+%#+@@@@@@@@@@@@@@@@@@@@@@@@@+%@@++",
"+@@#+@@@@@@@@@@@@@@@@@@@@@@@@@+%#+@@@@@@@@@@@@@@@@@@@@@@@@@+%@@++",
"+@@#+++++++++++++++++++++++++++%#+++++++++++++++++++++++++++%@@++",
"+@@$%%%%%%%%%%%%%%%%%%%%%%%%%%%%$%%%%%%%%%%%%%%%%%%%%%%%%%%%%@@++",
"+@@############################$############################$@@++",
"+@@#+++++++++++++++++++++++++++%#+++++++++++++++++++++++++++%@@++",
"+@@#+@@@@@@@@@@@@@@@@@@@@@@@@@+%#+@@@@@@@@@@@@@@@@@@@@@@@@@+%@@++",
"+@@#+@@@@@@@@@@@@@@@@@@@@@@@@@+%#+@@@@@@@@@@@@@@@@@@@@@@@@@+%@@++",
"+@@#+@@@@@@@@@@@@@@@@@@@@@@@@@+%#+@@@@@@@@@@@@@@@@@@@@@@@@@+%@@++",
"+@@#+@@@@@@@@@@@@@@@@@@@@@@@@@+%#+@@@@@@@@@@@@@@@@@@@@@@@@@+%@@++",
"+@@#+@@@@@@@@@@@+++@@@@@@@@@@@+%#+@@@@@@@@@@@@@@@@@@@@@@@@@+%@@++",
"+@@#+@@@@@@@@@+++++++@@@@@@@@@+%#+@@@@@@@@@@@@@@@@@@@@@@@@@+%@@++",
"+@@#+@@@@@@@+++++++++++@@@@@@@+%#+@@@@@@@@@@@@@@@@@@@@@@@@@+%@@++",
"+@@#+@@@@@@+++++++++++++@@@@@@+%#+@@@@@@@@@@@@@@@@@@@@@@@@@+%@@++",
"+@@#+@@@@@@+++++++++++++@@@@@@+%#+@@@@@@@@@@@@@@@@@@@@@@@@@+%@@++",
"+@@#+@@@@@+++@@@@+@@@@+++@@@@@+%#+@@@@@@@@@@@@@@@@@@@@@@@@@+%@@++",
"+@@#+@@@@@+++@++++@++++++@@@@@+%#+@@@@@@@@@@@+++@@@@@@@@@@@+%@@++",
"+@@#+@@@@++++@++++@+++++++@@@@+%#+@@@@@@@@@@+++++@@@@@@@@@@+%@@++",
"+@@#+@@@@++++@@@@+@@@@++++@@@@+%#+@@@@@@@@@@+++++@@@@@@@@@@+%@@++",
"+@@#+@@@@++++@++@++++@++++@@@@+%#+@@@@@@@@@@+++++@@@@@@@@@@+%@@++",
"+@@#+@@@@@+++@++@++++@+++@@@@@+%#+@@@@@@@@@@@+++@@@@@@@@@@@+%@@++",
"+@@#+@@@@@+++@@@@+@@@@+++@@@@@+%#+@@@@@@@@@@@@@@@@@@@@@@@@@+%@@++",
"+@@#+@@@@@@+++++++++++++@@@@@@+%#+@@@@@@@@@@@@@@@@@@@@@@@@@+%@@++",
"+@@#+@@@@@@+++++++++++++@@@@@@+%#+@@@@@@@@@@@@@@@@@@@@@@@@@+%@@++",
"+@@#+@@@@@@@+++++++++++@@@@@@@+%#+@@@@@@@@@@@@@@@@@@@@@@@@@+%@@++",
"+@@#+@@@@@@@@@+++++++@@@@@@@@@+%#+@@@@@@@@@@@@@@@@@@@@@@@@@+%@@++",
"+@@#+@@@@@@@@@@@+++@@@@@@@@@@@+%#+@@@@@@@@@@@@@@@@@@@@@@@@@+%@@++",
"+@@#+@@@@@@@@@@@@@@@@@@@@@@@@@+%#+@@@@@@@@@@@@@@@@@@@@@@@@@+%@@++",
"+@@#+@@@@@@@@@@@@@@@@@@@@@@@@@+%#+@@@@@@@@@@@@@@@@@@@@@@@@@+%@@++",
"+@@#+@@@@@@@@@@@@@@@@@@@@@@@@@+%#+@@@@@@@@@@@@@@@@@@@@@@@@@+%@@++",
"+@@#+@@@@@@@@@@@@@@@@@@@@@@@@@+%#+@@@@@@@@@@@@@@@@@@@@@@@@@+%@@++",
"+@@#+++++++++++++++++++++++++++%#+++++++++++++++++++++++++++%@@++",
"+@@$%%%%%%%%%%%%%%%%%%%%%%%%%%%%$%%%%%%%%%%%%%%%%%%%%%%%%%%%%@@++",
"+@@############################$############################$@@++",
"+@@#+++++++++++++++++++++++++++%#+++++++++++++++++++++++++++%@@++",
"+@@#+@@@@@@@@@@@@@@@@@@@@@@@@@+%#+@@@@@@@@@@@@@@@@@@@@@@@@@+%@@++",
"+@@#+@@@@@@@@@@@@@@@@@@@@@@@@@+%#+@@@@@@@@@@@@@@@@@@@@@@@@@+%@@++",
"+@@#+@@@@@@@@@@@@@@@@@@@@@@@@@+%#+@@@@@@@@@@@@@@@@@@@@@@@@@+%@@++",
"+@@#+@@@@@@@@@@@@@@@@@@@@@@@@@+%#+@@@@@@@@@@@@@@@@@@@@@@@@@+%@@++",
"+@@#+@@@@@@@@@@@+++@@@@@@@@@@@+%#+@@@@@@@@@@@@@@@@@@@@@@@@@+%@@++",
"+@@#+@@@@@@@@@+++++++@@@@@@@@@+%#+@@@@@@@@@@@@@@@@@@@@@@@@@+%@@++",
"+@@#+@@@@@@@+++++++++++@@@@@@@+%#+@@@@@@@@@@@@@@@@@@@@@@@@@+%@@++",
"+@@#+@@@@@@+++++++++++++@@@@@@+%#+@@@@@@@@@@@@@@@@@@@@@@@@@+%@@++",
"+@@#+@@@@@@+++++++++++++@@@@@@+%#+@@@@@@@@@@@@@@@@@@@@@@@@@+%@@++",
"+@@#+@@@@@+++@@@@+@@@@+++@@@@@+%#+@@@@@@@@@@@+++@@@@@@@@@@@+%@@++",
"+@@#+@@@@@+++@++@+@++@+++@@@@@+%#+@@@@@@@@@@+++++@@@@@@@@@@+%@@++",
"+@@#+@@@@++++@++@+@++@++++@@@@+%#+@@@@@@@@@+++++++@@@@@@@@@+%@@++",
"+@@#+@@@@++++@@@@+@@@@++++@@@@+%#+@@@@@@@@@+++++++@@@@@@@@@+%@@++",
"+@@#+@@@@+++++++@++++@++++@@@@+%#+@@@@@@@@@+++++++@@@@@@@@@+%@@++",
"+@@#+@@@@@+++@++@+@++@+++@@@@@+%#+@@@@@@@@@@+++++@@@@@@@@@@+%@@++",
"+@@#+@@@@@+++@@@@+@@@@+++@@@@@+%#+@@@@@@@@@@@+++@@@@@@@@@@@+%@@++",
"+@@#+@@@@@@+++++++++++++@@@@@@+%#+@@@@@@@@@@@@@@@@@@@@@@@@@+%@@++",
"+@@#+@@@@@@+++++++++++++@@@@@@+%#+@@@@@@@@@@@@@@@@@@@@@@@@@+%@@++",
"+@@#+@@@@@@@+++++++++++@@@@@@@+%#+@@@@@@@@@@@@@@@@@@@@@@@@@+%@@++",
"+@@#+@@@@@@@@@+++++++@@@@@@@@@+%#+@@@@@@@@@@@@@@@@@@@@@@@@@+%@@++",
"+@@#+@@@@@@@@@@@+++@@@@@@@@@@@+%#+@@@@@@@@@@@@@@@@@@@@@@@@@+%@@++",
"+@@#+@@@@@@@@@@@@@@@@@@@@@@@@@+%#+@@@@@@@@@@@@@@@@@@@@@@@@@+%@@++",
"+@@#+@@@@@@@@@@@@@@@@@@@@@@@@@+%#+@@@@@@@@@@@@@@@@@@@@@@@@@+%@@++",
"+@@#+@@@@@@@@@@@@@@@@@@@@@@@@@+%#+@@@@@@@@@@@@@@@@@@@@@@@@@+%@@++",
"+@@#+@@@@@@@@@@@@@@@@@@@@@@@@@+%#+@@@@@@@@@@@@@@@@@@@@@@@@@+%@@++",
"+@@#+++++++++++++++++++++++++++%#+++++++++++++++++++++++++++%@@++",
"+@@$%%%%%%%%%%%%%%%%%%%%%%%%%%%%$%%%%%%%%%%%%%%%%%%%%%%%%%%%%@@++",
"+@@@@@@@@@@@@@@@@@@@@@@@@@@@@@@@@@@@@@@@@@@@@@@@@@@@@@@@@@@@@@@++",
"+@@@@@@@@@@@@@@@@@@@@@@@@@@@@@@@@@@@@@@@@@@@@@@@@@@@@@@@@@@@@@@++",
".++++++++++++++++++++++++++++++++++++++++++++++++++++++++++++++++",
"..++++++++++++++++++++++++++++++++++++++++++++++++++++++++++++++."};
