/* XPM */
static char *pentool1[] = {
/* columns rows colors chars-per-pixel */
"32 32 3 1",
"  c black",
". c #888888",
"X c white",
/* pixels */
"XXXXXXXXXXXXXXXXXXXXXXXXXXXXXXXX",
"X                              X",
"X XXXXXXXXXXXXXXXXXXXXXXXXXXXX X",
"X XXXXXXXXXXXXXXXXXXXXXXXXXXXX X",
"X XXXXXXXXXXXXXXXXXXXXXXXXXXXX X",
"X XXXXXXXXXXXXXXXXXXXXXXXXXXXX X",
"X XXXXXXXXXXXXXXXXXXXXXXXXXXXX X",
"X XXXXXXXXXXXXXXXXXXXXXXXXXXXX X",
"X XX XXXXXXXXXXXXXXXXXXXXXXXXX X",
"X XX  XXXXXXXXXXXXXXXXXXXXXXXX X",
"X XX   XXXXXXXXXXXXXXXXXXXXXXX X",
"X XX .X  XXXXXXXXXXXXXXXXXXXXX X",
"X XX ..XX   XXXXXXXXXXXXXXXXXX X",
"X XXX ..XXXX  XXXXXXXXXXXXXXXX X",
"X XXX ..XXXXXX  XXXXXXXXXXXXXX X",
"X XXXX ..XXXXXXX XXXXXXXXXXXXX X",
"X XXXXX ..XXXXXXX XXXXXXXXXXXX X",
"X XXXXXX ..XXXXXX   XXXXXXXXXX X",
"X XXXXXXX ..XXXX. XX  XXXXXXXX X",
"X XXXXXXXX  .... .XXXX  XXXXXX X",
"X XXXXXXXXXX      .XXXXX  XXXX X",
"X XXXXXXXXXXXXXXXX  .XXXXX  XX X",
"X XXXXXXXXXXXXXXXXXX  .XXXXX X X",
"X XXXXXXXXXXXXXXXXXXXX  .XXXXX X",
"X XXXXXXXXXXXXXXXXXXXXXX  .XXX X",
"X XXXXXXXXXXXXXXXXXXXXXXXX  .X X",
"X XXXXXXXXXXXXXXXXXXXXXXXXXX X X",
"X XXXXXXXXXXXXXXXXXXXXXXXXXXXX X",
"X XXXXXXXXXXXXXXXXXXXXXXXXXXXX X",
"X XXXXXXXXXXXXXXXXXXXXXXXXXXXX X",
"X                              X",
"XXXXXXXXXXXXXXXXXXXXXXXXXXXXXXXX"
};
