/* XPM */
static const char * selectHide[] = {
"29 29 6 1",
" 	c None",
".	c #CECECE",
"+	c #A5A5A5",
"@	c #000000",
"#	c #606060",
"$	c #9B9B9B",
"............................+",
".@@@@@@@@@@@@@@@@@@@@@@@@@@@#",
".@$$$$$$$$$$$$$$$$$$$$$$$$$@#",
".@$$$$$$$$$$$$$$$$$$$$$$$$$@#",
".@$$$$$$$$$$$$$$$$$$$$$$$$$@#",
".@$$$$$$$$$$$$$$$$$$$$$$$$$@#",
".@$$$$$$$$$$$$$$$$$$$$$$$$$@#",
".@$$$$$$$$$$$$$$$$$$$$$$$$$@#",
".@$$$$..$..$..$..$..$..$$$$@#",
".@$$$$.$$$$$$$$$$$$$$$.$$$$@#",
".@$$$$$$$$$$$$$$$$$$$$$$$$$@#",
".@$$$$.$$$$$$$$$$$$$$$.$$$$@#",
".@$$$$.$$$$$$$$$$$$$$$.$$$$@#",
".@$$$$$$$$$$$$$$$$$$$$$$$$$@#",
".@$$$$.$$$$$$$$$$$$$$$.$$$$@#",
".@$$$$.$$$$$$$$$$$$$$$.$$$$@#",
".@$$$$$$$$$$$$$$$$$$$$$$$$$@#",
".@$$$$.$$$$$$$$$$$$$$$.$$$$@#",
".@$$$$.$$$$$$$$$$$$$$$.$$$$@#",
".@$$$$$$$$$$$$$$$$$$$$$$$$$@#",
".@$$$$.$$$$$$$$$$$$$$$.$$$$@#",
".@$$$$..$..$..$..$..$..$$$$@#",
".@$$$$$$$$$$$$$$$$$$$$$$$$$@#",
".@$$$$$$$$$$$$$$$$$$$$$$$$$@#",
".@$$$$$$$$$$$$$$$$$$$$$$$$$@#",
".@$$$$$$$$$$$$$$$$$$$$$$$$$@#",
".@$$$$$$$$$$$$$$$$$$$$$$$$$@#",
".@@@@@@@@@@@@@@@@@@@@@@@@@@@#",
"+############################"};
