/* XPM */
static const char * select_center[] = {
"25 25 4 1",
" 	c None",
".	c #9B9B9B",
"+	c #CECECE",
"@	c #FFFFFF",
".........................",
".........................",
".........................",
".........................",
".........+++++++.........",
".......++@@@@@@@++.......",
"......++@@@@@@@@@++......",
".....++@@@@@@@@@@@++.....",
".....+@@@@@@+@@@@@@+.....",
"....+@@@@@@@+@@@@@@@+....",
"....+@@@@@@@+@@@@@@@+....",
"....+@@@@@@@+@@@@@@@+....",
"....+@@@+++++++++@@@+....",
"....+@@@@@@@+@@@@@@@+....",
"....+@@@@@@@+@@@@@@@+....",
"....+@@@@@@@+@@@@@@@+....",
".....+@@@@@@+@@@@@@+.....",
".....++@@@@@@@@@@@++.....",
"......++@@@@@@@@@++......",
".......++@@@@@@@++.......",
".........+++++++.........",
".........................",
".........................",
".........................",
"........................."};
